<svg xmlns="http://www.w3.org/2000/svg" xmlns:xlink="http://www.w3.org/1999/xlink" version="1.1" class="marks" width="777" height="472" viewBox="0 0 777 472"><rect width="777" height="472" fill="white"/><g fill="none" stroke-miterlimit="10" transform="translate(61,31)"><g class="mark-group role-frame root" role="graphics-object" aria-roledescription="group mark container"><g transform="translate(0,0)"><path class="background" aria-hidden="true" d="M0.5,0.5h600v400h-600Z" stroke="#ddd"/><g><g class="mark-group role-axis" aria-hidden="true"><g transform="translate(0.5,400.5)"><path class="background" aria-hidden="true" d="M0,0h0v0h0Z" pointer-events="none"/><g><g class="mark-rule role-axis-grid" pointer-events="none"><line transform="translate(0,-400)" x2="0" y2="400" stroke="#ddd" stroke-width="1" opacity="1"/><line transform="translate(48,-400)" x2="0" y2="400" stroke="#ddd" stroke-width="1" opacity="1"/><line transform="translate(95,-400)" x2="0" y2="400" stroke="#ddd" stroke-width="1" opacity="1"/><line transform="translate(143,-400)" x2="0" y2="400" stroke="#ddd" stroke-width="1" opacity="1"/><line transform="translate(190,-400)" x2="0" y2="400" stroke="#ddd" stroke-width="1" opacity="1"/><line transform="translate(238,-400)" x2="0" y2="400" stroke="#ddd" stroke-width="1" opacity="1"/><line transform="translate(286,-400)" x2="0" y2="400" stroke="#ddd" stroke-width="1" opacity="1"/><line transform="translate(333,-400)" x2="0" y2="400" stroke="#ddd" stroke-width="1" opacity="1"/><line transform="translate(381,-400)" x2="0" y2="400" stroke="#ddd" stroke-width="1" opacity="1"/><line transform="translate(429,-400)" x2="0" y2="400" stroke="#ddd" stroke-width="1" opacity="1"/><line transform="translate(476,-400)" x2="0" y2="400" stroke="#ddd" stroke-width="1" opacity="1"/><line transform="translate(524,-400)" x2="0" y2="400" stroke="#ddd" stroke-width="1" opacity="1"/><line transform="translate(571,-400)" x2="0" y2="400" stroke="#ddd" stroke-width="1" opacity="1"/></g></g><path class="foreground" aria-hidden="true" d="" pointer-events="none" display="none"/></g></g><g class="mark-group role-axis" aria-hidden="true"><g transform="translate(0.5,0.5)"><path class="background" aria-hidden="true" d="M0,0h0v0h0Z" pointer-events="none"/><g><g class="mark-rule role-axis-grid" pointer-events="none"><line transform="translate(0,400)" x2="600" y2="0" stroke="#ddd" stroke-width="1" opacity="1"/><line transform="translate(0,360)" x2="600" y2="0" stroke="#ddd" stroke-width="1" opacity="1"/><line transform="translate(0,320)" x2="600" y2="0" stroke="#ddd" stroke-width="1" opacity="1"/><line transform="translate(0,280)" x2="600" y2="0" stroke="#ddd" stroke-width="1" opacity="1"/><line transform="translate(0,240)" x2="600" y2="0" stroke="#ddd" stroke-width="1" opacity="1"/><line transform="translate(0,200)" x2="600" y2="0" stroke="#ddd" stroke-width="1" opacity="1"/><line transform="translate(0,160)" x2="600" y2="0" stroke="#ddd" stroke-width="1" opacity="1"/><line transform="translate(0,120)" x2="600" y2="0" stroke="#ddd" stroke-width="1" opacity="1"/><line transform="translate(0,80)" x2="600" y2="0" stroke="#ddd" stroke-width="1" opacity="1"/><line transform="translate(0,40)" x2="600" y2="0" stroke="#ddd" stroke-width="1" opacity="1"/><line transform="translate(0,0)" x2="600" y2="0" stroke="#ddd" stroke-width="1" opacity="1"/></g></g><path class="foreground" aria-hidden="true" d="" pointer-events="none" display="none"/></g></g><g class="mark-group role-axis" role="graphics-symbol" aria-roledescription="axis" aria-label="X-axis titled 'Year' for a time scale with values from Friday, 01 January 1960, 12:00:00 AM to Sunday, 01 January 2023, 12:00:00 AM"><g transform="translate(0.5,400.5)"><path class="background" aria-hidden="true" d="M0,0h0v0h0Z" pointer-events="none"/><g><g class="mark-rule role-axis-tick" pointer-events="none"><line transform="translate(0,0)" x2="0" y2="5" stroke="#888" stroke-width="1" opacity="1"/><line transform="translate(48,0)" x2="0" y2="5" stroke="#888" stroke-width="1" opacity="1"/><line transform="translate(95,0)" x2="0" y2="5" stroke="#888" stroke-width="1" opacity="1"/><line transform="translate(143,0)" x2="0" y2="5" stroke="#888" stroke-width="1" opacity="1"/><line transform="translate(190,0)" x2="0" y2="5" stroke="#888" stroke-width="1" opacity="1"/><line transform="translate(238,0)" x2="0" y2="5" stroke="#888" stroke-width="1" opacity="1"/><line transform="translate(286,0)" x2="0" y2="5" stroke="#888" stroke-width="1" opacity="1"/><line transform="translate(333,0)" x2="0" y2="5" stroke="#888" stroke-width="1" opacity="1"/><line transform="translate(381,0)" x2="0" y2="5" stroke="#888" stroke-width="1" opacity="1"/><line transform="translate(429,0)" x2="0" y2="5" stroke="#888" stroke-width="1" opacity="1"/><line transform="translate(476,0)" x2="0" y2="5" stroke="#888" stroke-width="1" opacity="1"/><line transform="translate(524,0)" x2="0" y2="5" stroke="#888" stroke-width="1" opacity="1"/><line transform="translate(571,0)" x2="0" y2="5" stroke="#888" stroke-width="1" opacity="1"/></g><g class="mark-text role-axis-label" pointer-events="none"><text text-anchor="start" transform="translate(0,16)" font-family="Arial" font-size="12px" fill="#333333" opacity="1">1960</text><text text-anchor="middle" transform="translate(47.63808613271913,16)" font-family="Arial" font-size="12px" fill="#333333" opacity="1">1965</text><text text-anchor="middle" transform="translate(95.25009777932294,16)" font-family="Arial" font-size="12px" fill="#333333" opacity="1">1970</text><text text-anchor="middle" transform="translate(142.86210942592675,16)" font-family="Arial" font-size="12px" fill="#333333" opacity="1">1975</text><text text-anchor="middle" transform="translate(190.47412107253052,16)" font-family="Arial" font-size="12px" fill="#333333" opacity="1">1980</text><text text-anchor="middle" transform="translate(238.11220720524966,16)" font-family="Arial" font-size="12px" fill="#333333" opacity="1">1985</text><text text-anchor="middle" transform="translate(285.7242188518535,16)" font-family="Arial" font-size="12px" fill="#333333" opacity="1">1990</text><text text-anchor="middle" transform="translate(333.33623049845727,16)" font-family="Arial" font-size="12px" fill="#333333" opacity="1">1995</text><text text-anchor="middle" transform="translate(380.94824214506104,16)" font-family="Arial" font-size="12px" fill="#333333" opacity="1">2000</text><text text-anchor="middle" transform="translate(428.5863282777802,16)" font-family="Arial" font-size="12px" fill="#333333" opacity="1">2005</text><text text-anchor="middle" transform="translate(476.198339924384,16)" font-family="Arial" font-size="12px" fill="#333333" opacity="1">2010</text><text text-anchor="middle" transform="translate(523.8103515709878,16)" font-family="Arial" font-size="12px" fill="#333333" opacity="1">2015</text><text text-anchor="middle" transform="translate(571.4223632175915,16)" font-family="Arial" font-size="12px" fill="#333333" opacity="1">2020</text></g><g class="mark-rule role-axis-domain" pointer-events="none"><line transform="translate(0,0)" x2="600" y2="0" stroke="#888" stroke-width="1" opacity="1"/></g><g class="mark-text role-axis-title" pointer-events="none"><text text-anchor="middle" transform="translate(300,33)" font-family="Arial" font-size="14px" font-weight="bold" fill="#333333" opacity="1">Year</text></g></g><path class="foreground" aria-hidden="true" d="" pointer-events="none" display="none"/></g></g><g class="mark-group role-axis" role="graphics-symbol" aria-roledescription="axis" aria-label="Y-axis titled 'Percentage of total population' for a linear scale with values from 0% to 100%"><g transform="translate(0.5,0.5)"><path class="background" aria-hidden="true" d="M0,0h0v0h0Z" pointer-events="none"/><g><g class="mark-rule role-axis-tick" pointer-events="none"><line transform="translate(0,400)" x2="-5" y2="0" stroke="#888" stroke-width="1" opacity="1"/><line transform="translate(0,360)" x2="-5" y2="0" stroke="#888" stroke-width="1" opacity="1"/><line transform="translate(0,320)" x2="-5" y2="0" stroke="#888" stroke-width="1" opacity="1"/><line transform="translate(0,280)" x2="-5" y2="0" stroke="#888" stroke-width="1" opacity="1"/><line transform="translate(0,240)" x2="-5" y2="0" stroke="#888" stroke-width="1" opacity="1"/><line transform="translate(0,200)" x2="-5" y2="0" stroke="#888" stroke-width="1" opacity="1"/><line transform="translate(0,160)" x2="-5" y2="0" stroke="#888" stroke-width="1" opacity="1"/><line transform="translate(0,120)" x2="-5" y2="0" stroke="#888" stroke-width="1" opacity="1"/><line transform="translate(0,80)" x2="-5" y2="0" stroke="#888" stroke-width="1" opacity="1"/><line transform="translate(0,40)" x2="-5" y2="0" stroke="#888" stroke-width="1" opacity="1"/><line transform="translate(0,0)" x2="-5" y2="0" stroke="#888" stroke-width="1" opacity="1"/></g><g class="mark-text role-axis-label" pointer-events="none"><text text-anchor="end" transform="translate(-7,404)" font-family="Arial" font-size="12px" fill="#333333" opacity="1">0%</text><text text-anchor="end" transform="translate(-7,364)" font-family="Arial" font-size="12px" fill="#333333" opacity="1">10%</text><text text-anchor="end" transform="translate(-7,324)" font-family="Arial" font-size="12px" fill="#333333" opacity="1">20%</text><text text-anchor="end" transform="translate(-7,284)" font-family="Arial" font-size="12px" fill="#333333" opacity="1">30%</text><text text-anchor="end" transform="translate(-7,244)" font-family="Arial" font-size="12px" fill="#333333" opacity="1">40%</text><text text-anchor="end" transform="translate(-7,204)" font-family="Arial" font-size="12px" fill="#333333" opacity="1">50%</text><text text-anchor="end" transform="translate(-7,164)" font-family="Arial" font-size="12px" fill="#333333" opacity="1">60%</text><text text-anchor="end" transform="translate(-7,124.00000000000001)" font-family="Arial" font-size="12px" fill="#333333" opacity="1">70%</text><text text-anchor="end" transform="translate(-7,83.99999999999999)" font-family="Arial" font-size="12px" fill="#333333" opacity="1">80%</text><text text-anchor="end" transform="translate(-7,43.99999999999999)" font-family="Arial" font-size="12px" fill="#333333" opacity="1">90%</text><text text-anchor="end" transform="translate(-7,4)" font-family="Arial" font-size="12px" fill="#333333" opacity="1">100%</text></g><g class="mark-rule role-axis-domain" pointer-events="none"><line transform="translate(0,400)" x2="0" y2="-400" stroke="#888" stroke-width="1" opacity="1"/></g><g class="mark-text role-axis-title" pointer-events="none"><text text-anchor="middle" transform="translate(-41.69140625,200) rotate(-90) translate(0,-3)" font-family="Arial" font-size="14px" font-weight="bold" fill="#333333" opacity="1">Percentage of total population</text></g></g><path class="foreground" aria-hidden="true" d="" pointer-events="none" display="none"/></g></g><g class="mark-group role-scope pathgroup" role="graphics-object" aria-roledescription="group mark container"><g transform="translate(0,0)"><path class="background" aria-hidden="true" d="M0,0h600v400h-600Z"/><g><g class="mark-area role-mark marks" role="graphics-symbol" aria-roledescription="area mark container"><path d="M0,0L9.543,0L19.06,0L28.578,0L38.095,0L47.638,0L57.155,0L66.672,0L76.19,0L85.733,0L95.25,0L104.767,0L114.284,0L123.828,0L133.345,0L142.862,0L152.379,0L161.923,0L171.44,0L180.957,0L190.474,0L200.017,0L209.535,0L219.052,0L228.569,0L238.112,0L247.629,0L257.147,0L266.664,0L276.207,0L285.724,0L295.241,0L304.759,0L314.302,0L323.819,0L333.336,0L342.853,0L352.397,0L361.914,0L371.431,0L380.948,0L390.492,0L400.009,0L409.526,0L419.043,0L428.586,0L438.104,0L447.621,0L457.138,0L466.681,0L476.198,0L485.716,0L495.233,0L504.776,0L514.293,0L523.81,0L533.328,0L542.871,0L552.388,0L561.905,0L571.422,0L580.966,0L590.483,0L600,0L600,170.917L590.483,172.659L580.966,174.36L571.422,176.018L561.905,177.758L552.388,179.533L542.871,181.332L533.328,183.146L523.81,184.985L514.293,186.838L504.776,188.664L495.233,190.457L485.716,192.218L476.198,194.003L466.681,195.963L457.138,197.961L447.621,199.99L438.104,201.967L428.586,203.971L419.043,205.995L409.526,207.993L400.009,209.961L390.492,211.922L380.948,213.705L371.431,215.23L361.914,216.718L352.397,218.196L342.853,219.65L333.336,221.082L323.819,222.527L314.302,223.976L304.759,225.414L295.241,226.876L285.724,228.342L276.207,229.762L266.664,231.171L257.147,232.619L247.629,234.068L238.112,235.504L228.569,236.914L219.052,238.313L209.535,239.661L200.017,241.152L190.474,242.83L180.957,244.466L171.44,246.058L161.923,247.377L152.379,248.418L142.862,249.436L133.345,250.348L123.828,251.401L114.284,252.329L104.767,253.176L95.25,253.977L85.733,254.731L76.19,255.513L66.672,256.339L57.155,257.185L47.638,257.977L38.095,258.842L28.578,260.378L19.06,261.884L9.543,263.61L0,265.559Z" fill="#166417"/></g></g><path class="foreground" aria-hidden="true" d="" display="none"/></g><g transform="translate(0,0)"><path class="background" aria-hidden="true" d="M0,0h600v400h-600Z"/><g><g class="mark-area role-mark marks" role="graphics-symbol" aria-roledescription="area mark container"><path d="M0,265.559L9.543,263.61L19.06,261.884L28.578,260.378L38.095,258.842L47.638,257.977L57.155,257.185L66.672,256.339L76.19,255.513L85.733,254.731L95.25,253.977L104.767,253.176L114.284,252.329L123.828,251.401L133.345,250.348L142.862,249.436L152.379,248.418L161.923,247.377L171.44,246.058L180.957,244.466L190.474,242.83L200.017,241.152L209.535,239.661L219.052,238.313L228.569,236.914L238.112,235.504L247.629,234.068L257.147,232.619L266.664,231.171L276.207,229.762L285.724,228.342L295.241,226.876L304.759,225.414L314.302,223.976L323.819,222.527L333.336,221.082L342.853,219.65L352.397,218.196L361.914,216.718L371.431,215.23L380.948,213.705L390.492,211.922L400.009,209.961L409.526,207.993L419.043,205.995L428.586,203.971L438.104,201.967L447.621,199.99L457.138,197.961L466.681,195.963L476.198,194.003L485.716,192.218L495.233,190.457L504.776,188.664L514.293,186.838L523.81,184.985L533.328,183.146L542.871,181.332L552.388,179.533L561.905,177.758L571.422,176.018L580.966,174.36L590.483,172.659L600,170.917L600,400L590.483,400L580.966,400L571.422,400L561.905,400L552.388,400L542.871,400L533.328,400L523.81,400L514.293,400L504.776,400L495.233,400L485.716,400L476.198,400L466.681,400L457.138,400L447.621,400L438.104,400L428.586,400L419.043,400L409.526,400L400.009,400L390.492,400L380.948,400L371.431,400L361.914,400L352.397,400L342.853,400L333.336,400L323.819,400L314.302,400L304.759,400L295.241,400L285.724,400L276.207,400L266.664,400L257.147,400L247.629,400L238.112,400L228.569,400L219.052,400L209.535,400L200.017,400L190.474,400L180.957,400L171.44,400L161.923,400L152.379,400L142.862,400L133.345,400L123.828,400L114.284,400L104.767,400L95.25,400L85.733,400L76.19,400L66.672,400L57.155,400L47.638,400L38.095,400L28.578,400L19.06,400L9.543,400L0,400Z" fill="#742183"/></g></g><path class="foreground" aria-hidden="true" d="" display="none"/></g></g><g class="mark-group role-legend" role="graphics-symbol" aria-roledescription="legend" aria-label="Symbol legend titled 'Population type' for fill color with 2 values: Rural population, Urban population"><g transform="translate(618,0)"><path class="background" aria-hidden="true" d="M0,0h93v41h-93Z" pointer-events="none"/><g><g class="mark-group role-legend-entry"><g transform="translate(0,17)"><path class="background" aria-hidden="true" d="M0,0h0v0h0Z" pointer-events="none"/><g><g class="mark-group role-scope" role="graphics-object" aria-roledescription="group mark container"><g transform="translate(0,0)"><path class="background" aria-hidden="true" d="M0,0h92.1669921875v11h-92.1669921875Z" pointer-events="none" opacity="1"/><g><g class="mark-symbol role-legend-symbol" pointer-events="none"><path transform="translate(6,6)" d="M5,0A5,5,0,1,1,-5,0A5,5,0,1,1,5,0" fill="#166417" stroke-width="1.5" opacity="1"/></g><g class="mark-text role-legend-label" pointer-events="none"><text text-anchor="start" transform="translate(16,9)" font-family="Arial" font-size="10px" fill="#000" opacity="1">Rural population</text></g></g><path class="foreground" aria-hidden="true" d="" pointer-events="none" display="none"/></g><g transform="translate(0,13)"><path class="background" aria-hidden="true" d="M0,0h92.1669921875v11h-92.1669921875Z" pointer-events="none" opacity="1"/><g><g class="mark-symbol role-legend-symbol" pointer-events="none"><path transform="translate(6,6)" d="M5,0A5,5,0,1,1,-5,0A5,5,0,1,1,5,0" fill="#742183" stroke-width="1.5" opacity="1"/></g><g class="mark-text role-legend-label" pointer-events="none"><text text-anchor="start" transform="translate(16,9)" font-family="Arial" font-size="10px" fill="#000" opacity="1">Urban population</text></g></g><path class="foreground" aria-hidden="true" d="" pointer-events="none" display="none"/></g></g></g><path class="foreground" aria-hidden="true" d="" pointer-events="none" display="none"/></g></g><g class="mark-text role-legend-title" pointer-events="none"><text text-anchor="start" transform="translate(0,9)" font-family="Arial" font-size="12px" font-weight="bold" fill="#000" opacity="1">Population type</text></g></g><path class="foreground" aria-hidden="true" d="" pointer-events="none" display="none"/></g></g><g class="mark-group role-title"><g transform="translate(-55.69140625,-26)"><path class="background" aria-hidden="true" d="M0,0h0v0h0Z" pointer-events="none"/><g><g class="mark-text role-title-text" role="graphics-symbol" aria-roledescription="title" aria-label="Title text 'Rural population vs Urban population: Worldwide'" pointer-events="none"><text text-anchor="start" transform="translate(0,13)" font-family="Helvetica" font-size="16px" font-weight="bold" fill="#333333" opacity="1">Rural population vs Urban population: Worldwide</text></g></g><path class="foreground" aria-hidden="true" d="" pointer-events="none" display="none"/></g></g></g><path class="foreground" aria-hidden="true" d="" display="none"/></g></g></g></svg>