<svg xmlns="http://www.w3.org/2000/svg" xmlns:xlink="http://www.w3.org/1999/xlink" version="1.1" class="marks" width="750" height="966" viewBox="0 0 750 966"><rect width="750" height="966" fill="white"/><g fill="none" stroke-miterlimit="10" transform="translate(144,46)"><g class="mark-group role-frame root" role="graphics-object" aria-roledescription="group mark container"><g transform="translate(0,0)"><path class="background" aria-hidden="true" d="M0,0h600v0h-600Z"/><g><g class="mark-group role-scope concat_0_group" role="graphics-object" aria-roledescription="group mark container"><g transform="translate(0,0)"><path class="background" aria-hidden="true" d="M0.5,0.5h600v400h-600Z" stroke="#ddd"/><g><g class="mark-group role-axis" aria-hidden="true"><g transform="translate(0.5,400.5)"><path class="background" aria-hidden="true" d="M0,0h0v0h0Z" pointer-events="none"/><g><g class="mark-rule role-axis-grid" pointer-events="none"><line transform="translate(10,0)" x2="0" y2="-400" stroke="#ddd" stroke-width="1" opacity="1"/><line transform="translate(40,0)" x2="0" y2="-400" stroke="#ddd" stroke-width="1" opacity="1"/><line transform="translate(70,0)" x2="0" y2="-400" stroke="#ddd" stroke-width="1" opacity="1"/><line transform="translate(100,0)" x2="0" y2="-400" stroke="#ddd" stroke-width="1" opacity="1"/><line transform="translate(130,0)" x2="0" y2="-400" stroke="#ddd" stroke-width="1" opacity="1"/><line transform="translate(160,0)" x2="0" y2="-400" stroke="#ddd" stroke-width="1" opacity="1"/><line transform="translate(190,0)" x2="0" y2="-400" stroke="#ddd" stroke-width="1" opacity="1"/><line transform="translate(220,0)" x2="0" y2="-400" stroke="#ddd" stroke-width="1" opacity="1"/><line transform="translate(249,0)" x2="0" y2="-400" stroke="#ddd" stroke-width="1" opacity="1"/><line transform="translate(279,0)" x2="0" y2="-400" stroke="#ddd" stroke-width="1" opacity="1"/><line transform="translate(309,0)" x2="0" y2="-400" stroke="#ddd" stroke-width="1" opacity="1"/><line transform="translate(339,0)" x2="0" y2="-400" stroke="#ddd" stroke-width="1" opacity="1"/><line transform="translate(369,0)" x2="0" y2="-400" stroke="#ddd" stroke-width="1" opacity="1"/><line transform="translate(399,0)" x2="0" y2="-400" stroke="#ddd" stroke-width="1" opacity="1"/><line transform="translate(429,0)" x2="0" y2="-400" stroke="#ddd" stroke-width="1" opacity="1"/><line transform="translate(459,0)" x2="0" y2="-400" stroke="#ddd" stroke-width="1" opacity="1"/><line transform="translate(488,0)" x2="0" y2="-400" stroke="#ddd" stroke-width="1" opacity="1"/><line transform="translate(518,0)" x2="0" y2="-400" stroke="#ddd" stroke-width="1" opacity="1"/><line transform="translate(548,0)" x2="0" y2="-400" stroke="#ddd" stroke-width="1" opacity="1"/><line transform="translate(578,0)" x2="0" y2="-400" stroke="#ddd" stroke-width="1" opacity="1"/></g></g><path class="foreground" aria-hidden="true" d="" pointer-events="none" display="none"/></g></g><g class="mark-group role-axis" role="graphics-symbol" aria-roledescription="axis" aria-label="X-axis titled 'Net migrants' for a linear scale with values from −6,673,580 to 3,366,387"><g transform="translate(0.5,400.5)"><path class="background" aria-hidden="true" d="M0,0h0v0h0Z" pointer-events="none"/><g><g class="mark-rule role-axis-tick" pointer-events="none"><line transform="translate(10,0)" x2="0" y2="5" stroke="#888" stroke-width="1" opacity="1"/><line transform="translate(40,0)" x2="0" y2="5" stroke="#888" stroke-width="1" opacity="1"/><line transform="translate(70,0)" x2="0" y2="5" stroke="#888" stroke-width="1" opacity="1"/><line transform="translate(100,0)" x2="0" y2="5" stroke="#888" stroke-width="1" opacity="1"/><line transform="translate(130,0)" x2="0" y2="5" stroke="#888" stroke-width="1" opacity="1"/><line transform="translate(160,0)" x2="0" y2="5" stroke="#888" stroke-width="1" opacity="1"/><line transform="translate(190,0)" x2="0" y2="5" stroke="#888" stroke-width="1" opacity="1"/><line transform="translate(220,0)" x2="0" y2="5" stroke="#888" stroke-width="1" opacity="1"/><line transform="translate(249,0)" x2="0" y2="5" stroke="#888" stroke-width="1" opacity="1"/><line transform="translate(279,0)" x2="0" y2="5" stroke="#888" stroke-width="1" opacity="1"/><line transform="translate(309,0)" x2="0" y2="5" stroke="#888" stroke-width="1" opacity="1"/><line transform="translate(339,0)" x2="0" y2="5" stroke="#888" stroke-width="1" opacity="1"/><line transform="translate(369,0)" x2="0" y2="5" stroke="#888" stroke-width="1" opacity="1"/><line transform="translate(399,0)" x2="0" y2="5" stroke="#888" stroke-width="1" opacity="1"/><line transform="translate(429,0)" x2="0" y2="5" stroke="#888" stroke-width="1" opacity="1"/><line transform="translate(459,0)" x2="0" y2="5" stroke="#888" stroke-width="1" opacity="1"/><line transform="translate(488,0)" x2="0" y2="5" stroke="#888" stroke-width="1" opacity="1"/><line transform="translate(518,0)" x2="0" y2="5" stroke="#888" stroke-width="1" opacity="1"/><line transform="translate(548,0)" x2="0" y2="5" stroke="#888" stroke-width="1" opacity="1"/><line transform="translate(578,0)" x2="0" y2="5" stroke="#888" stroke-width="1" opacity="1"/></g><g class="mark-text role-axis-label" pointer-events="none"><text text-anchor="middle" transform="translate(10.373340868550665,16)" font-family="Arial" font-size="12px" fill="#333333" opacity="1">−6,500,000</text><text text-anchor="middle" transform="translate(40.253917169249654,16)" font-family="Arial" font-size="12px" fill="#333333" opacity="0">−6,000,000</text><text text-anchor="middle" transform="translate(70.13449346994865,16)" font-family="Arial" font-size="12px" fill="#333333" opacity="0">−5,500,000</text><text text-anchor="middle" transform="translate(100.01506977064766,16)" font-family="Arial" font-size="12px" fill="#333333" opacity="0">−5,000,000</text><text text-anchor="middle" transform="translate(129.89564607134665,16)" font-family="Arial" font-size="12px" fill="#333333" opacity="1">−4,500,000</text><text text-anchor="middle" transform="translate(159.77622237204565,16)" font-family="Arial" font-size="12px" fill="#333333" opacity="0">−4,000,000</text><text text-anchor="middle" transform="translate(189.65679867274463,16)" font-family="Arial" font-size="12px" fill="#333333" opacity="0">−3,500,000</text><text text-anchor="middle" transform="translate(219.53737497344363,16)" font-family="Arial" font-size="12px" fill="#333333" opacity="0">−3,000,000</text><text text-anchor="middle" transform="translate(249.41795127414264,16)" font-family="Arial" font-size="12px" fill="#333333" opacity="1">−2,500,000</text><text text-anchor="middle" transform="translate(279.2985275748416,16)" font-family="Arial" font-size="12px" fill="#333333" opacity="0">−2,000,000</text><text text-anchor="middle" transform="translate(309.1791038755406,16)" font-family="Arial" font-size="12px" fill="#333333" opacity="0">−1,500,000</text><text text-anchor="middle" transform="translate(339.0596801762396,16)" font-family="Arial" font-size="12px" fill="#333333" opacity="0">−1,000,000</text><text text-anchor="middle" transform="translate(368.9402564769386,16)" font-family="Arial" font-size="12px" fill="#333333" opacity="1">−500,000</text><text text-anchor="middle" transform="translate(398.82083277763763,16)" font-family="Arial" font-size="12px" fill="#333333" opacity="0">0</text><text text-anchor="middle" transform="translate(428.7014090783366,16)" font-family="Arial" font-size="12px" fill="#333333" opacity="0">500,000</text><text text-anchor="middle" transform="translate(458.58198537903564,16)" font-family="Arial" font-size="12px" fill="#333333" opacity="0">1,000,000</text><text text-anchor="middle" transform="translate(488.4625616797346,16)" font-family="Arial" font-size="12px" fill="#333333" opacity="1">1,500,000</text><text text-anchor="middle" transform="translate(518.3431379804337,16)" font-family="Arial" font-size="12px" fill="#333333" opacity="0">2,000,000</text><text text-anchor="middle" transform="translate(548.2237142811325,16)" font-family="Arial" font-size="12px" fill="#333333" opacity="0">2,500,000</text><text text-anchor="middle" transform="translate(578.1042905818316,16)" font-family="Arial" font-size="12px" fill="#333333" opacity="0">3,000,000</text></g><g class="mark-rule role-axis-domain" pointer-events="none"><line transform="translate(0,0)" x2="600" y2="0" stroke="#888" stroke-width="1" opacity="1"/></g><g class="mark-text role-axis-title" pointer-events="none"><text text-anchor="middle" transform="translate(300,33)" font-family="Arial" font-size="14px" font-weight="bold" fill="#333333" opacity="1">Net migrants</text></g></g><path class="foreground" aria-hidden="true" d="" pointer-events="none" display="none"/></g></g><g class="mark-group role-axis" role="graphics-symbol" aria-roledescription="axis" aria-label="Y-axis titled 'Country' for a discrete scale with 20 values: Poland, United States, Russian Federation, Romania, Syrian Arab Republic, ending with Ukraine"><g transform="translate(0.5,0.5)"><path class="background" aria-hidden="true" d="M0,0h0v0h0Z" pointer-events="none"/><g><g class="mark-rule role-axis-tick" pointer-events="none"><line transform="translate(0,10)" x2="-5" y2="0" stroke="#888" stroke-width="1" opacity="1"/><line transform="translate(0,30)" x2="-5" y2="0" stroke="#888" stroke-width="1" opacity="1"/><line transform="translate(0,50)" x2="-5" y2="0" stroke="#888" stroke-width="1" opacity="1"/><line transform="translate(0,70)" x2="-5" y2="0" stroke="#888" stroke-width="1" opacity="1"/><line transform="translate(0,90)" x2="-5" y2="0" stroke="#888" stroke-width="1" opacity="1"/><line transform="translate(0,110)" x2="-5" y2="0" stroke="#888" stroke-width="1" opacity="1"/><line transform="translate(0,130)" x2="-5" y2="0" stroke="#888" stroke-width="1" opacity="1"/><line transform="translate(0,150)" x2="-5" y2="0" stroke="#888" stroke-width="1" opacity="1"/><line transform="translate(0,170)" x2="-5" y2="0" stroke="#888" stroke-width="1" opacity="1"/><line transform="translate(0,190)" x2="-5" y2="0" stroke="#888" stroke-width="1" opacity="1"/><line transform="translate(0,210)" x2="-5" y2="0" stroke="#888" stroke-width="1" opacity="1"/><line transform="translate(0,230)" x2="-5" y2="0" stroke="#888" stroke-width="1" opacity="1"/><line transform="translate(0,250)" x2="-5" y2="0" stroke="#888" stroke-width="1" opacity="1"/><line transform="translate(0,270)" x2="-5" y2="0" stroke="#888" stroke-width="1" opacity="1"/><line transform="translate(0,290)" x2="-5" y2="0" stroke="#888" stroke-width="1" opacity="1"/><line transform="translate(0,310)" x2="-5" y2="0" stroke="#888" stroke-width="1" opacity="1"/><line transform="translate(0,330)" x2="-5" y2="0" stroke="#888" stroke-width="1" opacity="1"/><line transform="translate(0,350)" x2="-5" y2="0" stroke="#888" stroke-width="1" opacity="1"/><line transform="translate(0,370)" x2="-5" y2="0" stroke="#888" stroke-width="1" opacity="1"/><line transform="translate(0,390)" x2="-5" y2="0" stroke="#888" stroke-width="1" opacity="1"/></g><g class="mark-text role-axis-label" pointer-events="none"><text text-anchor="end" transform="translate(-7,13.5)" font-family="Arial" font-size="12px" fill="#333333" opacity="1">Poland</text><text text-anchor="end" transform="translate(-7,33.5)" font-family="Arial" font-size="12px" fill="#333333" opacity="1">United States</text><text text-anchor="end" transform="translate(-7,53.5)" font-family="Arial" font-size="12px" fill="#333333" opacity="1">Russian Federation</text><text text-anchor="end" transform="translate(-7,73.5)" font-family="Arial" font-size="12px" fill="#333333" opacity="1">Romania</text><text text-anchor="end" transform="translate(-7,93.5)" font-family="Arial" font-size="12px" fill="#333333" opacity="1">Syrian Arab Republic</text><text text-anchor="end" transform="translate(-7,113.5)" font-family="Arial" font-size="12px" fill="#333333" opacity="1">Hungary</text><text text-anchor="end" transform="translate(-7,133.5)" font-family="Arial" font-size="12px" fill="#333333" opacity="1">Moldova</text><text text-anchor="end" transform="translate(-7,153.5)" font-family="Arial" font-size="12px" fill="#333333" opacity="1">Slovak Republic</text><text text-anchor="end" transform="translate(-7,173.5)" font-family="Arial" font-size="12px" fill="#333333" opacity="1">Venezuela, RB</text><text text-anchor="end" transform="translate(-7,193.5)" font-family="Arial" font-size="12px" fill="#333333" opacity="1">Canada</text><text text-anchor="end" transform="translate(-7,213.5)" font-family="Arial" font-size="12px" fill="#333333" opacity="1">Uganda</text><text text-anchor="end" transform="translate(-7,233.5)" font-family="Arial" font-size="12px" fill="#333333" opacity="1">Jordan</text><text text-anchor="end" transform="translate(-7,253.5)" font-family="Arial" font-size="12px" fill="#333333" opacity="1">Lebanon</text><text text-anchor="end" transform="translate(-7,273.5)" font-family="Arial" font-size="12px" fill="#333333" opacity="1">Pakistan</text><text text-anchor="end" transform="translate(-7,293.5)" font-family="Arial" font-size="12px" fill="#333333" opacity="1">Colombia</text><text text-anchor="end" transform="translate(-7,313.5)" font-family="Arial" font-size="12px" fill="#333333" opacity="1">Turkiye</text><text text-anchor="end" transform="translate(-7,333.5)" font-family="Arial" font-size="12px" fill="#333333" opacity="1">Bangladesh</text><text text-anchor="end" transform="translate(-7,353.5)" font-family="Arial" font-size="12px" fill="#333333" opacity="1">China</text><text text-anchor="end" transform="translate(-7,373.5)" font-family="Arial" font-size="12px" fill="#333333" opacity="1">India</text><text text-anchor="end" transform="translate(-7,393.5)" font-family="Arial" font-size="12px" fill="#333333" opacity="1">Ukraine</text></g><g class="mark-rule role-axis-domain" pointer-events="none"><line transform="translate(0,0)" x2="0" y2="400" stroke="#888" stroke-width="1" opacity="1"/></g><g class="mark-text role-axis-title" pointer-events="none"><text text-anchor="middle" transform="translate(-123.060546875,200) rotate(-90) translate(0,-3)" font-family="Arial" font-size="14px" font-weight="bold" fill="#333333" opacity="1">Country</text></g></g><path class="foreground" aria-hidden="true" d="" pointer-events="none" display="none"/></g></g><g class="mark-rect role-mark concat_0_marks" role="graphics-symbol" aria-roledescription="rect mark container"><path d="M398.82083277763763,1h201.17916722236237v18h-201.17916722236237Z" fill="#166417"/><path d="M398.82083277763763,21h59.67390131859992v18h-59.67390131859992Z" fill="#166417"/><path d="M398.82083277763763,41h56.32159946342449v18h-56.32159946342449Z" fill="#166417"/><path d="M398.82083277763763,61h54.78980159994552v18h-54.78980159994552Z" fill="#166417"/><path d="M398.82083277763763,81h43.882853399816895v18h-43.882853399816895Z" fill="#166417"/><path d="M398.82083277763763,101h36.81514092626003v18h-36.81514092626003Z" fill="#166417"/><path d="M398.82083277763763,121h27.66140565999865v18h-27.66140565999865Z" fill="#166417"/><path d="M398.82083277763763,141h25.398549616746777v18h-25.398549616746777Z" fill="#166417"/><path d="M398.82083277763763,161h17.791672024419995v18h-17.791672024419995Z" fill="#166417"/><path d="M398.82083277763763,181h14.85578588057109v18h-14.85578588057109Z" fill="#166417"/><path d="M0,381h398.82083277763763v18h-398.82083277763763Z" fill="#742183"/><path d="M369.69904383151857,361h29.121788946119068v18h-29.121788946119068Z" fill="#742183"/><path d="M380.2124050806143,341h18.60842769702333v18h-18.60842769702333Z" fill="#742183"/><path d="M380.29624997771407,321h18.524582799923564v18h-18.524582799923564Z" fill="#742183"/><path d="M380.79770580919245,301h18.023126968445183v18h-18.023126968445183Z" fill="#742183"/><path d="M388.78550098820045,281h10.03533178943718v18h-10.03533178943718Z" fill="#742183"/><path d="M388.90119857963674,261h9.919634198000892v18h-9.919634198000892Z" fill="#742183"/><path d="M389.2448849682474,241h9.575947809390243v18h-9.575947809390243Z" fill="#742183"/><path d="M390.38303611954103,221h8.437796658096602v18h-8.437796658096602Z" fill="#742183"/><path d="M391.7184588355719,201h7.1023739420657535v18h-7.1023739420657535Z" fill="#742183"/></g><g class="mark-group role-title"><g transform="translate(-137.060546875,-20)"><path class="background" aria-hidden="true" d="M0,0h0v0h0Z" pointer-events="none"/><g><g class="mark-text role-title-text" role="graphics-symbol" aria-roledescription="title" aria-label="Title text '2022'" pointer-events="none"><text text-anchor="start" transform="translate(0,13)" font-family="Helvetica" font-size="16px" font-weight="bold" fill="#333333" opacity="1">2022</text></g></g><path class="foreground" aria-hidden="true" d="" pointer-events="none" display="none"/></g></g></g><path class="foreground" aria-hidden="true" d="" display="none"/></g></g><g class="mark-group role-scope concat_1_group" role="graphics-object" aria-roledescription="group mark container"><g transform="translate(0,478)"><path class="background" aria-hidden="true" d="M0.5,0.5h600v400h-600Z" stroke="#ddd"/><g><g class="mark-group role-axis" aria-hidden="true"><g transform="translate(0.5,400.5)"><path class="background" aria-hidden="true" d="M0,0h0v0h0Z" pointer-events="none"/><g><g class="mark-rule role-axis-grid" pointer-events="none"><line transform="translate(10,0)" x2="0" y2="-400" stroke="#ddd" stroke-width="1" opacity="1"/><line transform="translate(40,0)" x2="0" y2="-400" stroke="#ddd" stroke-width="1" opacity="1"/><line transform="translate(70,0)" x2="0" y2="-400" stroke="#ddd" stroke-width="1" opacity="1"/><line transform="translate(100,0)" x2="0" y2="-400" stroke="#ddd" stroke-width="1" opacity="1"/><line transform="translate(130,0)" x2="0" y2="-400" stroke="#ddd" stroke-width="1" opacity="1"/><line transform="translate(160,0)" x2="0" y2="-400" stroke="#ddd" stroke-width="1" opacity="1"/><line transform="translate(190,0)" x2="0" y2="-400" stroke="#ddd" stroke-width="1" opacity="1"/><line transform="translate(220,0)" x2="0" y2="-400" stroke="#ddd" stroke-width="1" opacity="1"/><line transform="translate(249,0)" x2="0" y2="-400" stroke="#ddd" stroke-width="1" opacity="1"/><line transform="translate(279,0)" x2="0" y2="-400" stroke="#ddd" stroke-width="1" opacity="1"/><line transform="translate(309,0)" x2="0" y2="-400" stroke="#ddd" stroke-width="1" opacity="1"/><line transform="translate(339,0)" x2="0" y2="-400" stroke="#ddd" stroke-width="1" opacity="1"/><line transform="translate(369,0)" x2="0" y2="-400" stroke="#ddd" stroke-width="1" opacity="1"/><line transform="translate(399,0)" x2="0" y2="-400" stroke="#ddd" stroke-width="1" opacity="1"/><line transform="translate(429,0)" x2="0" y2="-400" stroke="#ddd" stroke-width="1" opacity="1"/><line transform="translate(459,0)" x2="0" y2="-400" stroke="#ddd" stroke-width="1" opacity="1"/><line transform="translate(488,0)" x2="0" y2="-400" stroke="#ddd" stroke-width="1" opacity="1"/><line transform="translate(518,0)" x2="0" y2="-400" stroke="#ddd" stroke-width="1" opacity="1"/><line transform="translate(548,0)" x2="0" y2="-400" stroke="#ddd" stroke-width="1" opacity="1"/><line transform="translate(578,0)" x2="0" y2="-400" stroke="#ddd" stroke-width="1" opacity="1"/></g></g><path class="foreground" aria-hidden="true" d="" pointer-events="none" display="none"/></g></g><g class="mark-group role-axis" role="graphics-symbol" aria-roledescription="axis" aria-label="X-axis titled 'Net migrants' for a linear scale with values from −6,673,580 to 3,366,387"><g transform="translate(0.5,400.5)"><path class="background" aria-hidden="true" d="M0,0h0v0h0Z" pointer-events="none"/><g><g class="mark-rule role-axis-tick" pointer-events="none"><line transform="translate(10,0)" x2="0" y2="5" stroke="#888" stroke-width="1" opacity="1"/><line transform="translate(40,0)" x2="0" y2="5" stroke="#888" stroke-width="1" opacity="1"/><line transform="translate(70,0)" x2="0" y2="5" stroke="#888" stroke-width="1" opacity="1"/><line transform="translate(100,0)" x2="0" y2="5" stroke="#888" stroke-width="1" opacity="1"/><line transform="translate(130,0)" x2="0" y2="5" stroke="#888" stroke-width="1" opacity="1"/><line transform="translate(160,0)" x2="0" y2="5" stroke="#888" stroke-width="1" opacity="1"/><line transform="translate(190,0)" x2="0" y2="5" stroke="#888" stroke-width="1" opacity="1"/><line transform="translate(220,0)" x2="0" y2="5" stroke="#888" stroke-width="1" opacity="1"/><line transform="translate(249,0)" x2="0" y2="5" stroke="#888" stroke-width="1" opacity="1"/><line transform="translate(279,0)" x2="0" y2="5" stroke="#888" stroke-width="1" opacity="1"/><line transform="translate(309,0)" x2="0" y2="5" stroke="#888" stroke-width="1" opacity="1"/><line transform="translate(339,0)" x2="0" y2="5" stroke="#888" stroke-width="1" opacity="1"/><line transform="translate(369,0)" x2="0" y2="5" stroke="#888" stroke-width="1" opacity="1"/><line transform="translate(399,0)" x2="0" y2="5" stroke="#888" stroke-width="1" opacity="1"/><line transform="translate(429,0)" x2="0" y2="5" stroke="#888" stroke-width="1" opacity="1"/><line transform="translate(459,0)" x2="0" y2="5" stroke="#888" stroke-width="1" opacity="1"/><line transform="translate(488,0)" x2="0" y2="5" stroke="#888" stroke-width="1" opacity="1"/><line transform="translate(518,0)" x2="0" y2="5" stroke="#888" stroke-width="1" opacity="1"/><line transform="translate(548,0)" x2="0" y2="5" stroke="#888" stroke-width="1" opacity="1"/><line transform="translate(578,0)" x2="0" y2="5" stroke="#888" stroke-width="1" opacity="1"/></g><g class="mark-text role-axis-label" pointer-events="none"><text text-anchor="middle" transform="translate(10.373340868550665,16)" font-family="Arial" font-size="12px" fill="#333333" opacity="1">−6,500,000</text><text text-anchor="middle" transform="translate(40.253917169249654,16)" font-family="Arial" font-size="12px" fill="#333333" opacity="0">−6,000,000</text><text text-anchor="middle" transform="translate(70.13449346994865,16)" font-family="Arial" font-size="12px" fill="#333333" opacity="0">−5,500,000</text><text text-anchor="middle" transform="translate(100.01506977064766,16)" font-family="Arial" font-size="12px" fill="#333333" opacity="0">−5,000,000</text><text text-anchor="middle" transform="translate(129.89564607134665,16)" font-family="Arial" font-size="12px" fill="#333333" opacity="1">−4,500,000</text><text text-anchor="middle" transform="translate(159.77622237204565,16)" font-family="Arial" font-size="12px" fill="#333333" opacity="0">−4,000,000</text><text text-anchor="middle" transform="translate(189.65679867274463,16)" font-family="Arial" font-size="12px" fill="#333333" opacity="0">−3,500,000</text><text text-anchor="middle" transform="translate(219.53737497344363,16)" font-family="Arial" font-size="12px" fill="#333333" opacity="0">−3,000,000</text><text text-anchor="middle" transform="translate(249.41795127414264,16)" font-family="Arial" font-size="12px" fill="#333333" opacity="1">−2,500,000</text><text text-anchor="middle" transform="translate(279.2985275748416,16)" font-family="Arial" font-size="12px" fill="#333333" opacity="0">−2,000,000</text><text text-anchor="middle" transform="translate(309.1791038755406,16)" font-family="Arial" font-size="12px" fill="#333333" opacity="0">−1,500,000</text><text text-anchor="middle" transform="translate(339.0596801762396,16)" font-family="Arial" font-size="12px" fill="#333333" opacity="0">−1,000,000</text><text text-anchor="middle" transform="translate(368.9402564769386,16)" font-family="Arial" font-size="12px" fill="#333333" opacity="1">−500,000</text><text text-anchor="middle" transform="translate(398.82083277763763,16)" font-family="Arial" font-size="12px" fill="#333333" opacity="0">0</text><text text-anchor="middle" transform="translate(428.7014090783366,16)" font-family="Arial" font-size="12px" fill="#333333" opacity="0">500,000</text><text text-anchor="middle" transform="translate(458.58198537903564,16)" font-family="Arial" font-size="12px" fill="#333333" opacity="0">1,000,000</text><text text-anchor="middle" transform="translate(488.4625616797346,16)" font-family="Arial" font-size="12px" fill="#333333" opacity="1">1,500,000</text><text text-anchor="middle" transform="translate(518.3431379804337,16)" font-family="Arial" font-size="12px" fill="#333333" opacity="0">2,000,000</text><text text-anchor="middle" transform="translate(548.2237142811325,16)" font-family="Arial" font-size="12px" fill="#333333" opacity="0">2,500,000</text><text text-anchor="middle" transform="translate(578.1042905818316,16)" font-family="Arial" font-size="12px" fill="#333333" opacity="0">3,000,000</text></g><g class="mark-rule role-axis-domain" pointer-events="none"><line transform="translate(0,0)" x2="600" y2="0" stroke="#888" stroke-width="1" opacity="1"/></g><g class="mark-text role-axis-title" pointer-events="none"><text text-anchor="middle" transform="translate(300,33)" font-family="Arial" font-size="14px" font-weight="bold" fill="#333333" opacity="1">Net migrants</text></g></g><path class="foreground" aria-hidden="true" d="" pointer-events="none" display="none"/></g></g><g class="mark-group role-axis" role="graphics-symbol" aria-roledescription="axis" aria-label="Y-axis titled 'Country' for a discrete scale with 20 values: Ukraine, United States, Syrian Arab Republic, Venezuela, RB, Canada, ending with Poland"><g transform="translate(0.5,0.5)"><path class="background" aria-hidden="true" d="M0,0h0v0h0Z" pointer-events="none"/><g><g class="mark-rule role-axis-tick" pointer-events="none"><line transform="translate(0,10)" x2="-5" y2="0" stroke="#888" stroke-width="1" opacity="1"/><line transform="translate(0,30)" x2="-5" y2="0" stroke="#888" stroke-width="1" opacity="1"/><line transform="translate(0,50)" x2="-5" y2="0" stroke="#888" stroke-width="1" opacity="1"/><line transform="translate(0,70)" x2="-5" y2="0" stroke="#888" stroke-width="1" opacity="1"/><line transform="translate(0,90)" x2="-5" y2="0" stroke="#888" stroke-width="1" opacity="1"/><line transform="translate(0,110)" x2="-5" y2="0" stroke="#888" stroke-width="1" opacity="1"/><line transform="translate(0,130)" x2="-5" y2="0" stroke="#888" stroke-width="1" opacity="1"/><line transform="translate(0,150)" x2="-5" y2="0" stroke="#888" stroke-width="1" opacity="1"/><line transform="translate(0,170)" x2="-5" y2="0" stroke="#888" stroke-width="1" opacity="1"/><line transform="translate(0,190)" x2="-5" y2="0" stroke="#888" stroke-width="1" opacity="1"/><line transform="translate(0,210)" x2="-5" y2="0" stroke="#888" stroke-width="1" opacity="1"/><line transform="translate(0,230)" x2="-5" y2="0" stroke="#888" stroke-width="1" opacity="1"/><line transform="translate(0,250)" x2="-5" y2="0" stroke="#888" stroke-width="1" opacity="1"/><line transform="translate(0,270)" x2="-5" y2="0" stroke="#888" stroke-width="1" opacity="1"/><line transform="translate(0,290)" x2="-5" y2="0" stroke="#888" stroke-width="1" opacity="1"/><line transform="translate(0,310)" x2="-5" y2="0" stroke="#888" stroke-width="1" opacity="1"/><line transform="translate(0,330)" x2="-5" y2="0" stroke="#888" stroke-width="1" opacity="1"/><line transform="translate(0,350)" x2="-5" y2="0" stroke="#888" stroke-width="1" opacity="1"/><line transform="translate(0,370)" x2="-5" y2="0" stroke="#888" stroke-width="1" opacity="1"/><line transform="translate(0,390)" x2="-5" y2="0" stroke="#888" stroke-width="1" opacity="1"/></g><g class="mark-text role-axis-label" pointer-events="none"><text text-anchor="end" transform="translate(-7,13.5)" font-family="Arial" font-size="12px" fill="#333333" opacity="1">Ukraine</text><text text-anchor="end" transform="translate(-7,33.5)" font-family="Arial" font-size="12px" fill="#333333" opacity="1">United States</text><text text-anchor="end" transform="translate(-7,53.5)" font-family="Arial" font-size="12px" fill="#333333" opacity="1">Syrian Arab Republic</text><text text-anchor="end" transform="translate(-7,73.5)" font-family="Arial" font-size="12px" fill="#333333" opacity="1">Venezuela, RB</text><text text-anchor="end" transform="translate(-7,93.5)" font-family="Arial" font-size="12px" fill="#333333" opacity="1">Canada</text><text text-anchor="end" transform="translate(-7,113.5)" font-family="Arial" font-size="12px" fill="#333333" opacity="1">United Kingdom</text><text text-anchor="end" transform="translate(-7,133.5)" font-family="Arial" font-size="12px" fill="#333333" opacity="1">Germany</text><text text-anchor="end" transform="translate(-7,153.5)" font-family="Arial" font-size="12px" fill="#333333" opacity="1">Australia</text><text text-anchor="end" transform="translate(-7,173.5)" font-family="Arial" font-size="12px" fill="#333333" opacity="1">Japan</text><text text-anchor="end" transform="translate(-7,193.5)" font-family="Arial" font-size="12px" fill="#333333" opacity="1">France</text><text text-anchor="end" transform="translate(-7,213.5)" font-family="Arial" font-size="12px" fill="#333333" opacity="1">Jordan</text><text text-anchor="end" transform="translate(-7,233.5)" font-family="Arial" font-size="12px" fill="#333333" opacity="1">Pakistan</text><text text-anchor="end" transform="translate(-7,253.5)" font-family="Arial" font-size="12px" fill="#333333" opacity="1">Colombia</text><text text-anchor="end" transform="translate(-7,273.5)" font-family="Arial" font-size="12px" fill="#333333" opacity="1">Lebanon</text><text text-anchor="end" transform="translate(-7,293.5)" font-family="Arial" font-size="12px" fill="#333333" opacity="1">Romania</text><text text-anchor="end" transform="translate(-7,313.5)" font-family="Arial" font-size="12px" fill="#333333" opacity="1">Bangladesh</text><text text-anchor="end" transform="translate(-7,333.5)" font-family="Arial" font-size="12px" fill="#333333" opacity="1">China</text><text text-anchor="end" transform="translate(-7,353.5)" font-family="Arial" font-size="12px" fill="#333333" opacity="1">Turkiye</text><text text-anchor="end" transform="translate(-7,373.5)" font-family="Arial" font-size="12px" fill="#333333" opacity="1">India</text><text text-anchor="end" transform="translate(-7,393.5)" font-family="Arial" font-size="12px" fill="#333333" opacity="1">Poland</text></g><g class="mark-rule role-axis-domain" pointer-events="none"><line transform="translate(0,0)" x2="0" y2="400" stroke="#888" stroke-width="1" opacity="1"/></g><g class="mark-text role-axis-title" pointer-events="none"><text text-anchor="middle" transform="translate(-123.060546875,200) rotate(-90) translate(0,-3)" font-family="Arial" font-size="14px" font-weight="bold" fill="#333333" opacity="1">Country</text></g></g><path class="foreground" aria-hidden="true" d="" pointer-events="none" display="none"/></g></g><g class="mark-rect role-mark concat_1_marks" role="graphics-symbol" aria-roledescription="rect mark container"><path d="M398.82083277763763,1h106.65680474846181v18h-106.65680474846181Z" fill="#166417"/><path d="M398.82083277763763,21h59.74322425561758v18h-59.74322425561758Z" fill="#166417"/><path d="M398.82083277763763,41h45.245347917976176v18h-45.245347917976176Z" fill="#166417"/><path d="M398.82083277763763,61h19.189664667224463v18h-19.189664667224463Z" fill="#166417"/><path d="M398.82083277763763,81h14.925108817588693v18h-14.925108817588693Z" fill="#166417"/><path d="M398.82083277763763,101h9.907801489785754v18h-9.907801489785754Z" fill="#166417"/><path d="M398.82083277763763,121h9.307859278820331v18h-9.307859278820331Z" fill="#166417"/><path d="M398.82083277763763,141h8.366023513822256v18h-8.366023513822256Z" fill="#166417"/><path d="M398.82083277763763,161h5.975756693224184v18h-5.975756693224184Z" fill="#166417"/><path d="M398.82083277763763,181h4.049475461423299v18h-4.049475461423299Z" fill="#166417"/><path d="M344.4097973628798,381h54.41103541475786v18h-54.41103541475786Z" fill="#742183"/><path d="M369.7687850966044,361h29.05204768103323v18h-29.05204768103323Z" fill="#742183"/><path d="M379.8127822531688,341h19.008050524468842v18h-19.008050524468842Z" fill="#742183"/><path d="M380.28172801763196,321h18.53910476000567v18h-18.53910476000567Z" fill="#742183"/><path d="M380.29624997771407,301h18.524582799923564v18h-18.524582799923564Z" fill="#742183"/><path d="M383.60468714688005,281h15.21614563075758v18h-15.21614563075758Z" fill="#742183"/><path d="M388.2233278256791,261h10.597504951958513v18h-10.597504951958513Z" fill="#742183"/><path d="M388.35958325361025,241h10.46124952402738v18h-10.46124952402738Z" fill="#742183"/><path d="M388.90119857963674,221h9.919634198000892v18h-9.919634198000892Z" fill="#742183"/><path d="M389.4149054473984,201h9.405927330239251v18h-9.405927330239251Z" fill="#742183"/></g><g class="mark-group role-title"><g transform="translate(-137.060546875,-20)"><path class="background" aria-hidden="true" d="M0,0h0v0h0Z" pointer-events="none"/><g><g class="mark-text role-title-text" role="graphics-symbol" aria-roledescription="title" aria-label="Title text '2023'" pointer-events="none"><text text-anchor="start" transform="translate(0,13)" font-family="Helvetica" font-size="16px" font-weight="bold" fill="#333333" opacity="1">2023</text></g></g><path class="foreground" aria-hidden="true" d="" pointer-events="none" display="none"/></g></g></g><path class="foreground" aria-hidden="true" d="" display="none"/></g></g><g class="mark-group role-title"><g transform="translate(-138.060546875,-41)"><path class="background" aria-hidden="true" d="M0,0h0v0h0Z" pointer-events="none"/><g><g class="mark-text role-title-text" role="graphics-symbol" aria-roledescription="title" aria-label="Title text 'Net migration: Top 10 and Bottom 10 Countries'" pointer-events="none"><text text-anchor="start" transform="translate(0,13)" font-family="Helvetica" font-size="16px" font-weight="bold" fill="#333333" opacity="1">Net migration: Top 10 and Bottom 10 Countries</text></g></g><path class="foreground" aria-hidden="true" d="" pointer-events="none" display="none"/></g></g></g><path class="foreground" aria-hidden="true" d="" display="none"/></g></g></g></svg>