<svg xmlns="http://www.w3.org/2000/svg" xmlns:xlink="http://www.w3.org/1999/xlink" version="1.1" class="marks" width="787" height="488" viewBox="0 0 787 488"><rect width="787" height="488" fill="white"/><g fill="none" stroke-miterlimit="10" transform="translate(44,31)"><g class="mark-group role-frame root" role="graphics-object" aria-roledescription="group mark container"><g transform="translate(0,0)"><path class="background" aria-hidden="true" d="M0.5,0.5h600v400h-600Z" stroke="#ddd"/><g><g class="mark-group role-axis" aria-hidden="true"><g transform="translate(0.5,0.5)"><path class="background" aria-hidden="true" d="M0,0h0v0h0Z" pointer-events="none"/><g><g class="mark-rule role-axis-grid" pointer-events="none"><line transform="translate(0,400)" x2="600" y2="0" stroke="#ddd" stroke-width="1" opacity="1"/><line transform="translate(0,350)" x2="600" y2="0" stroke="#ddd" stroke-width="1" opacity="1"/><line transform="translate(0,300)" x2="600" y2="0" stroke="#ddd" stroke-width="1" opacity="1"/><line transform="translate(0,250)" x2="600" y2="0" stroke="#ddd" stroke-width="1" opacity="1"/><line transform="translate(0,200)" x2="600" y2="0" stroke="#ddd" stroke-width="1" opacity="1"/><line transform="translate(0,150)" x2="600" y2="0" stroke="#ddd" stroke-width="1" opacity="1"/><line transform="translate(0,100)" x2="600" y2="0" stroke="#ddd" stroke-width="1" opacity="1"/><line transform="translate(0,50)" x2="600" y2="0" stroke="#ddd" stroke-width="1" opacity="1"/><line transform="translate(0,0)" x2="600" y2="0" stroke="#ddd" stroke-width="1" opacity="1"/></g></g><path class="foreground" aria-hidden="true" d="" pointer-events="none" display="none"/></g></g><g class="mark-group role-axis" role="graphics-symbol" aria-roledescription="axis" aria-label="X-axis titled 'DECADE' for a discrete scale with 4 values: 1990, 2000, 2010, 2020"><g transform="translate(0.5,400.5)"><path class="background" aria-hidden="true" d="M0,0h0v0h0Z" pointer-events="none"/><g><g class="mark-rule role-axis-tick" pointer-events="none"><line transform="translate(85,0)" x2="0" y2="5" stroke="#888" stroke-width="1" opacity="1"/><line transform="translate(228,0)" x2="0" y2="5" stroke="#888" stroke-width="1" opacity="1"/><line transform="translate(371,0)" x2="0" y2="5" stroke="#888" stroke-width="1" opacity="1"/><line transform="translate(514,0)" x2="0" y2="5" stroke="#888" stroke-width="1" opacity="1"/></g><g class="mark-text role-axis-label" pointer-events="none"><text text-anchor="end" transform="translate(85.2142857142857,7) rotate(270) translate(0,4)" font-family="Arial" font-size="12px" fill="#333333" opacity="1">1990</text><text text-anchor="end" transform="translate(228.07142857142856,7) rotate(270) translate(0,4)" font-family="Arial" font-size="12px" fill="#333333" opacity="1">2000</text><text text-anchor="end" transform="translate(370.92857142857144,7) rotate(270) translate(0,4)" font-family="Arial" font-size="12px" fill="#333333" opacity="1">2010</text><text text-anchor="end" transform="translate(513.7857142857142,7) rotate(270) translate(0,4)" font-family="Arial" font-size="12px" fill="#333333" opacity="1">2020</text></g><g class="mark-rule role-axis-domain" pointer-events="none"><line transform="translate(0,0)" x2="600" y2="0" stroke="#888" stroke-width="1" opacity="1"/></g><g class="mark-text role-axis-title" pointer-events="none"><text text-anchor="middle" transform="translate(300,48.6953125)" font-family="Arial" font-size="14px" font-weight="bold" fill="#333333" opacity="1">DECADE</text></g></g><path class="foreground" aria-hidden="true" d="" pointer-events="none" display="none"/></g></g><g class="mark-group role-axis" role="graphics-symbol" aria-roledescription="axis" aria-label="Y-axis titled 'At least completed upper secondary, population 25+, total (%)' for a linear scale with values from 0 to 80"><g transform="translate(0.5,0.5)"><path class="background" aria-hidden="true" d="M0,0h0v0h0Z" pointer-events="none"/><g><g class="mark-rule role-axis-tick" pointer-events="none"><line transform="translate(0,400)" x2="-5" y2="0" stroke="#888" stroke-width="1" opacity="1"/><line transform="translate(0,350)" x2="-5" y2="0" stroke="#888" stroke-width="1" opacity="1"/><line transform="translate(0,300)" x2="-5" y2="0" stroke="#888" stroke-width="1" opacity="1"/><line transform="translate(0,250)" x2="-5" y2="0" stroke="#888" stroke-width="1" opacity="1"/><line transform="translate(0,200)" x2="-5" y2="0" stroke="#888" stroke-width="1" opacity="1"/><line transform="translate(0,150)" x2="-5" y2="0" stroke="#888" stroke-width="1" opacity="1"/><line transform="translate(0,100)" x2="-5" y2="0" stroke="#888" stroke-width="1" opacity="1"/><line transform="translate(0,50)" x2="-5" y2="0" stroke="#888" stroke-width="1" opacity="1"/><line transform="translate(0,0)" x2="-5" y2="0" stroke="#888" stroke-width="1" opacity="1"/></g><g class="mark-text role-axis-label" pointer-events="none"><text text-anchor="end" transform="translate(-7,404)" font-family="Arial" font-size="12px" fill="#333333" opacity="1">0</text><text text-anchor="end" transform="translate(-7,354)" font-family="Arial" font-size="12px" fill="#333333" opacity="1">10</text><text text-anchor="end" transform="translate(-7,304)" font-family="Arial" font-size="12px" fill="#333333" opacity="1">20</text><text text-anchor="end" transform="translate(-7,254)" font-family="Arial" font-size="12px" fill="#333333" opacity="1">30</text><text text-anchor="end" transform="translate(-7,204)" font-family="Arial" font-size="12px" fill="#333333" opacity="1">40</text><text text-anchor="end" transform="translate(-7,154)" font-family="Arial" font-size="12px" fill="#333333" opacity="1">50</text><text text-anchor="end" transform="translate(-7,104)" font-family="Arial" font-size="12px" fill="#333333" opacity="1">60</text><text text-anchor="end" transform="translate(-7,54)" font-family="Arial" font-size="12px" fill="#333333" opacity="1">70</text><text text-anchor="end" transform="translate(-7,4)" font-family="Arial" font-size="12px" fill="#333333" opacity="1">80</text></g><g class="mark-rule role-axis-domain" pointer-events="none"><line transform="translate(0,400)" x2="0" y2="-400" stroke="#888" stroke-width="1" opacity="1"/></g><g class="mark-text role-axis-title" pointer-events="none"><text text-anchor="middle" transform="translate(-24.34765625,200) rotate(-90) translate(0,-3)" font-family="Arial" font-size="14px" font-weight="bold" fill="#333333" opacity="1">At least completed upper secondary, population 25+, total (%)</text></g></g><path class="foreground" aria-hidden="true" d="" pointer-events="none" display="none"/></g></g><g class="mark-group role-axis" role="graphics-symbol" aria-roledescription="axis" aria-label="Y-axis titled 'GDP per capita, PPP (current international $)' for a linear scale with values from 0 to 55,000"><g transform="translate(600.5,0.5)"><path class="background" aria-hidden="true" d="M0,0h0v0h0Z" pointer-events="none"/><g><g class="mark-rule role-axis-tick" pointer-events="none"><line transform="translate(0,400)" x2="5" y2="0" stroke="#888" stroke-width="1" opacity="1"/><line transform="translate(0,364)" x2="5" y2="0" stroke="#888" stroke-width="1" opacity="1"/><line transform="translate(0,327)" x2="5" y2="0" stroke="#888" stroke-width="1" opacity="1"/><line transform="translate(0,291)" x2="5" y2="0" stroke="#888" stroke-width="1" opacity="1"/><line transform="translate(0,255)" x2="5" y2="0" stroke="#888" stroke-width="1" opacity="1"/><line transform="translate(0,218)" x2="5" y2="0" stroke="#888" stroke-width="1" opacity="1"/><line transform="translate(0,182)" x2="5" y2="0" stroke="#888" stroke-width="1" opacity="1"/><line transform="translate(0,145)" x2="5" y2="0" stroke="#888" stroke-width="1" opacity="1"/><line transform="translate(0,109)" x2="5" y2="0" stroke="#888" stroke-width="1" opacity="1"/><line transform="translate(0,73)" x2="5" y2="0" stroke="#888" stroke-width="1" opacity="1"/><line transform="translate(0,36)" x2="5" y2="0" stroke="#888" stroke-width="1" opacity="1"/><line transform="translate(0,0)" x2="5" y2="0" stroke="#888" stroke-width="1" opacity="1"/></g><g class="mark-text role-axis-label" pointer-events="none"><text text-anchor="start" transform="translate(7,404)" font-family="Arial" font-size="12px" fill="#333333" opacity="1">0</text><text text-anchor="start" transform="translate(7,367.6363636363636)" font-family="Arial" font-size="12px" fill="#333333" opacity="1">5,000</text><text text-anchor="start" transform="translate(7,331.27272727272725)" font-family="Arial" font-size="12px" fill="#333333" opacity="1">10,000</text><text text-anchor="start" transform="translate(7,294.90909090909093)" font-family="Arial" font-size="12px" fill="#333333" opacity="1">15,000</text><text text-anchor="start" transform="translate(7,258.5454545454545)" font-family="Arial" font-size="12px" fill="#333333" opacity="1">20,000</text><text text-anchor="start" transform="translate(7,222.18181818181816)" font-family="Arial" font-size="12px" fill="#333333" opacity="1">25,000</text><text text-anchor="start" transform="translate(7,185.81818181818184)" font-family="Arial" font-size="12px" fill="#333333" opacity="1">30,000</text><text text-anchor="start" transform="translate(7,149.45454545454547)" font-family="Arial" font-size="12px" fill="#333333" opacity="1">35,000</text><text text-anchor="start" transform="translate(7,113.09090909090908)" font-family="Arial" font-size="12px" fill="#333333" opacity="1">40,000</text><text text-anchor="start" transform="translate(7,76.7272727272727)" font-family="Arial" font-size="12px" fill="#333333" opacity="1">45,000</text><text text-anchor="start" transform="translate(7,40.363636363636374)" font-family="Arial" font-size="12px" fill="#333333" opacity="1">50,000</text><text text-anchor="start" transform="translate(7,4)" font-family="Arial" font-size="12px" fill="#333333" opacity="1">55,000</text></g><g class="mark-rule role-axis-domain" pointer-events="none"><line transform="translate(0,400)" x2="0" y2="-400" stroke="#888" stroke-width="1" opacity="1"/></g><g class="mark-text role-axis-title" pointer-events="none"><text text-anchor="middle" transform="translate(47.703125,200) rotate(90) translate(0,-3)" font-family="Arial" font-size="14px" font-weight="bold" fill="#333333" opacity="1">GDP per capita, PPP (current international $)</text></g></g><path class="foreground" aria-hidden="true" d="" pointer-events="none" display="none"/></g></g><g class="mark-rect role-mark layer_0_marks" role="graphics-symbol" aria-roledescription="rect mark container"><path d="M28.571428571428555,330.63h22.857142857142858v69.37h-22.857142857142858Z" fill="#742183"/><path d="M171.42857142857142,294.3928571428571h22.857142857142858v105.60714285714289h-22.857142857142858Z" fill="#742183"/><path d="M314.2857142857143,302.4920529801324h22.857142857142858v97.50794701986757h-22.857142857142858Z" fill="#742183"/><path d="M457.1428571428571,240.02179487179487h22.857142857142858v159.97820512820513h-22.857142857142858Z" fill="#742183"/><path d="M51.428571428571416,112.54400000000003h22.857142857142858v287.45599999999996h-22.857142857142858Z" fill="#166417"/><path d="M194.28571428571428,202.1936416184971h22.857142857142858v197.8063583815029h-22.857142857142858Z" fill="#166417"/><path d="M337.1428571428571,172.1271844660194h22.857142857142858v227.8728155339806h-22.857142857142858Z" fill="#166417"/><path d="M479.99999999999994,127.28627450980392h22.857142857142858v272.7137254901961h-22.857142857142858Z" fill="#166417"/><path d="M74.28571428571428,150.68846153846152h22.857142857142858v249.31153846153848h-22.857142857142858Z" fill="#f8c7cc"/><path d="M217.14285714285714,173.8591304347826h22.857142857142858v226.1408695652174h-22.857142857142858Z" fill="#f8c7cc"/><path d="M360,133.90166666666667h22.857142857142858v266.09833333333336h-22.857142857142858Z" fill="#f8c7cc"/><path d="M502.85714285714283,114.37068965517243h22.857142857142858v285.62931034482756h-22.857142857142858Z" fill="#f8c7cc"/><path d="M97.14285714285712,162.18333333333334h22.857142857142858v237.81666666666666h-22.857142857142858Z" fill="#edae49"/><path d="M240,81.47565445026181h22.857142857142858v318.5243455497382h-22.857142857142858Z" fill="#edae49"/><path d="M382.85714285714283,45.89285714285714h22.857142857142858v354.1071428571429h-22.857142857142858Z" fill="#edae49"/><path d="M525.7142857142857,20.541509433962226h22.857142857142858v379.45849056603777h-22.857142857142858Z" fill="#edae49"/><path d="M119.99999999999999,218.85h22.857142857142858v181.15h-22.857142857142858Z" fill="#81a684"/><path d="M262.85714285714283,103.05666666666662h22.857142857142858v296.9433333333334h-22.857142857142858Z" fill="#81a684"/><path d="M405.7142857142857,99.10749999999999h22.857142857142858v300.89250000000004h-22.857142857142858Z" fill="#81a684"/><path d="M548.5714285714286,114.96666666666667h22.857142857142858v285.0333333333333h-22.857142857142858Z" fill="#81a684"/></g><g class="mark-group role-scope layer_1_layer_0_pathgroup" role="graphics-object" aria-roledescription="group mark container"><g transform="translate(0,0)"><path class="background" aria-hidden="true" d="M0,0h600v400h-600Z"/><g><g class="mark-line role-mark layer_1_layer_0_marks" role="graphics-symbol" aria-roledescription="line mark container"><path d="M85.714,379.23L228.571,368.389L371.429,357.944L514.286,349.752" stroke="#742183" stroke-width="2"/></g></g><path class="foreground" aria-hidden="true" d="" display="none"/></g><g transform="translate(0,0)"><path class="background" aria-hidden="true" d="M0,0h600v400h-600Z"/><g><g class="mark-line role-mark layer_1_layer_0_marks" role="graphics-symbol" aria-roledescription="line mark container"><path d="M85.714,326.524L228.571,278.972L371.429,233.516L514.286,205.291" stroke="#166417" stroke-width="2"/></g></g><path class="foreground" aria-hidden="true" d="" display="none"/></g><g transform="translate(0,0)"><path class="background" aria-hidden="true" d="M0,0h600v400h-600Z"/><g><g class="mark-line role-mark layer_1_layer_0_marks" role="graphics-symbol" aria-roledescription="line mark container"><path d="M85.714,299.432L228.571,257.288L371.429,212.146L514.286,187.631" stroke="#f8c7cc" stroke-width="2"/></g></g><path class="foreground" aria-hidden="true" d="" display="none"/></g><g transform="translate(0,0)"><path class="background" aria-hidden="true" d="M0,0h600v400h-600Z"/><g><g class="mark-line role-mark layer_1_layer_0_marks" role="graphics-symbol" aria-roledescription="line mark container"><path d="M85.714,290.839L228.571,218.87L371.429,139.01L514.286,31.772" stroke="#edae49" stroke-width="2"/></g></g><path class="foreground" aria-hidden="true" d="" display="none"/></g><g transform="translate(0,0)"><path class="background" aria-hidden="true" d="M0,0h600v400h-600Z"/><g><g class="mark-line role-mark layer_1_layer_0_marks" role="graphics-symbol" aria-roledescription="line mark container"><path d="M85.714,359.193L228.571,344.89L371.429,320.251L514.286,297.749" stroke="#81a684" stroke-width="2"/></g></g><path class="foreground" aria-hidden="true" d="" display="none"/></g></g><g class="mark-symbol role-mark layer_1_layer_1_marks" role="graphics-symbol" aria-roledescription="symbol mark container"><path transform="translate(85.7142857142857,379.2296130572131)" d="M2.739,0A2.739,2.739,0,1,1,-2.739,0A2.739,2.739,0,1,1,2.739,0" fill="white" stroke="#742183" stroke-width="2" opacity="1"/><path transform="translate(228.57142857142856,368.3890357366771)" d="M2.739,0A2.739,2.739,0,1,1,-2.739,0A2.739,2.739,0,1,1,2.739,0" fill="white" stroke="#742183" stroke-width="2" opacity="1"/><path transform="translate(371.42857142857144,357.9441529350649)" d="M2.739,0A2.739,2.739,0,1,1,-2.739,0A2.739,2.739,0,1,1,2.739,0" fill="white" stroke="#742183" stroke-width="2" opacity="1"/><path transform="translate(514.2857142857142,349.75168181818185)" d="M2.739,0A2.739,2.739,0,1,1,-2.739,0A2.739,2.739,0,1,1,2.739,0" fill="white" stroke="#742183" stroke-width="2" opacity="1"/><path transform="translate(85.7142857142857,326.52447444976076)" d="M2.739,0A2.739,2.739,0,1,1,-2.739,0A2.739,2.739,0,1,1,2.739,0" fill="white" stroke="#166417" stroke-width="2" opacity="1"/><path transform="translate(228.57142857142856,278.97185039476653)" d="M2.739,0A2.739,2.739,0,1,1,-2.739,0A2.739,2.739,0,1,1,2.739,0" fill="white" stroke="#166417" stroke-width="2" opacity="1"/><path transform="translate(371.42857142857144,233.51568784279854)" d="M2.739,0A2.739,2.739,0,1,1,-2.739,0A2.739,2.739,0,1,1,2.739,0" fill="white" stroke="#166417" stroke-width="2" opacity="1"/><path transform="translate(514.2857142857142,205.29067000000003)" d="M2.739,0A2.739,2.739,0,1,1,-2.739,0A2.739,2.739,0,1,1,2.739,0" fill="white" stroke="#166417" stroke-width="2" opacity="1"/><path transform="translate(85.7142857142857,299.43225180840665)" d="M2.739,0A2.739,2.739,0,1,1,-2.739,0A2.739,2.739,0,1,1,2.739,0" fill="white" stroke="#f8c7cc" stroke-width="2" opacity="1"/><path transform="translate(228.57142857142856,257.2877104545455)" d="M2.739,0A2.739,2.739,0,1,1,-2.739,0A2.739,2.739,0,1,1,2.739,0" fill="white" stroke="#f8c7cc" stroke-width="2" opacity="1"/><path transform="translate(371.42857142857144,212.1456279016581)" d="M2.739,0A2.739,2.739,0,1,1,-2.739,0A2.739,2.739,0,1,1,2.739,0" fill="white" stroke="#f8c7cc" stroke-width="2" opacity="1"/><path transform="translate(514.2857142857142,187.63133906093904)" d="M2.739,0A2.739,2.739,0,1,1,-2.739,0A2.739,2.739,0,1,1,2.739,0" fill="white" stroke="#f8c7cc" stroke-width="2" opacity="1"/><path transform="translate(85.7142857142857,290.8386959311788)" d="M2.739,0A2.739,2.739,0,1,1,-2.739,0A2.739,2.739,0,1,1,2.739,0" fill="white" stroke="#edae49" stroke-width="2" opacity="1"/><path transform="translate(228.57142857142856,218.86961809398332)" d="M2.739,0A2.739,2.739,0,1,1,-2.739,0A2.739,2.739,0,1,1,2.739,0" fill="white" stroke="#edae49" stroke-width="2" opacity="1"/><path transform="translate(371.42857142857144,139.0098739957717)" d="M2.739,0A2.739,2.739,0,1,1,-2.739,0A2.739,2.739,0,1,1,2.739,0" fill="white" stroke="#edae49" stroke-width="2" opacity="1"/><path transform="translate(514.2857142857142,31.771623453469555)" d="M2.739,0A2.739,2.739,0,1,1,-2.739,0A2.739,2.739,0,1,1,2.739,0" fill="white" stroke="#edae49" stroke-width="2" opacity="1"/><path transform="translate(85.7142857142857,359.1933267532467)" d="M2.739,0A2.739,2.739,0,1,1,-2.739,0A2.739,2.739,0,1,1,2.739,0" fill="white" stroke="#81a684" stroke-width="2" opacity="1"/><path transform="translate(228.57142857142856,344.88958077922075)" d="M2.739,0A2.739,2.739,0,1,1,-2.739,0A2.739,2.739,0,1,1,2.739,0" fill="white" stroke="#81a684" stroke-width="2" opacity="1"/><path transform="translate(371.42857142857144,320.25089454545457)" d="M2.739,0A2.739,2.739,0,1,1,-2.739,0A2.739,2.739,0,1,1,2.739,0" fill="white" stroke="#81a684" stroke-width="2" opacity="1"/><path transform="translate(514.2857142857142,297.74885818181815)" d="M2.739,0A2.739,2.739,0,1,1,-2.739,0A2.739,2.739,0,1,1,2.739,0" fill="white" stroke="#81a684" stroke-width="2" opacity="1"/></g><g class="mark-group role-legend" role="graphics-symbol" aria-roledescription="legend" aria-label="Symbol legend titled 'Region' for fill color and stroke color with 5 values: Africa, Americas, Asia, Europe, Oceania"><g transform="translate(680,0)"><path class="background" aria-hidden="true" d="M0,0h58v94h-58Z" pointer-events="none"/><g><g class="mark-group role-legend-entry"><g transform="translate(0,17)"><path class="background" aria-hidden="true" d="M0,0h0v0h0Z" pointer-events="none"/><g><g class="mark-group role-scope" role="graphics-object" aria-roledescription="group mark container"><g transform="translate(0,0)"><path class="background" aria-hidden="true" d="M0,0h57.6748046875v12.5h-57.6748046875Z" pointer-events="none" opacity="1"/><g><g class="mark-symbol role-legend-symbol" pointer-events="none"><path transform="translate(6,6)" d="M5,0A5,5,0,1,1,-5,0A5,5,0,1,1,5,0" fill="#742183" stroke="#742183" stroke-width="1.5" opacity="1"/></g><g class="mark-text role-legend-label" pointer-events="none"><text text-anchor="start" transform="translate(16,9)" font-family="Arial" font-size="10px" fill="#000" opacity="1">Africa</text></g></g><path class="foreground" aria-hidden="true" d="" pointer-events="none" display="none"/></g><g transform="translate(0,16)"><path class="background" aria-hidden="true" d="M0,0h57.6748046875v12.5h-57.6748046875Z" pointer-events="none" opacity="1"/><g><g class="mark-symbol role-legend-symbol" pointer-events="none"><path transform="translate(6,6)" d="M5,0A5,5,0,1,1,-5,0A5,5,0,1,1,5,0" fill="#166417" stroke="#166417" stroke-width="1.5" opacity="1"/></g><g class="mark-text role-legend-label" pointer-events="none"><text text-anchor="start" transform="translate(16,9)" font-family="Arial" font-size="10px" fill="#000" opacity="1">Americas</text></g></g><path class="foreground" aria-hidden="true" d="" pointer-events="none" display="none"/></g><g transform="translate(0,32)"><path class="background" aria-hidden="true" d="M0,0h57.6748046875v12.5h-57.6748046875Z" pointer-events="none" opacity="1"/><g><g class="mark-symbol role-legend-symbol" pointer-events="none"><path transform="translate(6,6)" d="M5,0A5,5,0,1,1,-5,0A5,5,0,1,1,5,0" fill="#f8c7cc" stroke="#f8c7cc" stroke-width="1.5" opacity="1"/></g><g class="mark-text role-legend-label" pointer-events="none"><text text-anchor="start" transform="translate(16,9)" font-family="Arial" font-size="10px" fill="#000" opacity="1">Asia</text></g></g><path class="foreground" aria-hidden="true" d="" pointer-events="none" display="none"/></g><g transform="translate(0,48)"><path class="background" aria-hidden="true" d="M0,0h57.6748046875v12.5h-57.6748046875Z" pointer-events="none" opacity="1"/><g><g class="mark-symbol role-legend-symbol" pointer-events="none"><path transform="translate(6,6)" d="M5,0A5,5,0,1,1,-5,0A5,5,0,1,1,5,0" fill="#edae49" stroke="#edae49" stroke-width="1.5" opacity="1"/></g><g class="mark-text role-legend-label" pointer-events="none"><text text-anchor="start" transform="translate(16,9)" font-family="Arial" font-size="10px" fill="#000" opacity="1">Europe</text></g></g><path class="foreground" aria-hidden="true" d="" pointer-events="none" display="none"/></g><g transform="translate(0,64)"><path class="background" aria-hidden="true" d="M0,0h57.6748046875v12.5h-57.6748046875Z" pointer-events="none" opacity="1"/><g><g class="mark-symbol role-legend-symbol" pointer-events="none"><path transform="translate(6,6)" d="M5,0A5,5,0,1,1,-5,0A5,5,0,1,1,5,0" fill="#81a684" stroke="#81a684" stroke-width="1.5" opacity="1"/></g><g class="mark-text role-legend-label" pointer-events="none"><text text-anchor="start" transform="translate(16,9)" font-family="Arial" font-size="10px" fill="#000" opacity="1">Oceania</text></g></g><path class="foreground" aria-hidden="true" d="" pointer-events="none" display="none"/></g></g></g><path class="foreground" aria-hidden="true" d="" pointer-events="none" display="none"/></g></g><g class="mark-text role-legend-title" pointer-events="none"><text text-anchor="start" transform="translate(0,9)" font-family="Arial" font-size="12px" font-weight="bold" fill="#000" opacity="1">Region</text></g></g><path class="foreground" aria-hidden="true" d="" pointer-events="none" display="none"/></g></g><g class="mark-group role-title"><g transform="translate(-38.34765625,-26)"><path class="background" aria-hidden="true" d="M0,0h0v0h0Z" pointer-events="none"/><g><g class="mark-text role-title-text" role="graphics-symbol" aria-roledescription="title" aria-label="Title text 'Comparison between Educational Attainment and GDP per capita by Decade and Region'" pointer-events="none"><text text-anchor="start" transform="translate(0,13)" font-family="Helvetica" font-size="16px" font-weight="bold" fill="#333333" opacity="1">Comparison between Educational Attainment and GDP per capita by Decade and Region</text></g></g><path class="foreground" aria-hidden="true" d="" pointer-events="none" display="none"/></g></g></g><path class="foreground" aria-hidden="true" d="" display="none"/></g></g></g></svg>