<svg xmlns="http://www.w3.org/2000/svg" xmlns:xlink="http://www.w3.org/1999/xlink" version="1.1" class="marks" width="794" height="472" viewBox="0 0 794 472"><rect width="794" height="472" fill="white"/><g fill="none" stroke-miterlimit="10" transform="translate(51,31)"><g class="mark-group role-frame root" role="graphics-object" aria-roledescription="group mark container"><g transform="translate(0,0)"><path class="background" aria-hidden="true" d="M0.5,0.5h600v400h-600Z" stroke="#ddd"/><g><g class="mark-rect role-mark marks" role="graphics-symbol" aria-roledescription="rect mark container"><path d="M184.3709677419355,337.34210526315786h9.67741935483869v21.0526315789474h-9.67741935483869Z" fill="rgb(112, 48, 126)"/><path d="M494.0483870967742,274.1842105263158h9.677419354838719v21.0526315789474h-9.677419354838719Z" fill="rgb(102, 35, 114)"/><path d="M590.8225806451613,253.1315789473684h9.677419354838662v21.05263157894737h-9.677419354838662Z" fill="rgb(102, 35, 114)"/><path d="M397.2741935483871,0.5h9.677419354838719v21.05263157894739h-9.677419354838719Z" fill="rgb(197, 169, 208)"/><path d="M465.01612903225805,0.5h9.677419354838719v21.05263157894739h-9.677419354838719Z" fill="rgb(142, 89, 157)"/><path d="M494.0483870967742,0.5h9.677419354838719v21.05263157894739h-9.677419354838719Z" fill="rgb(192, 229, 188)"/><path d="M503.7258064516129,0.5h9.677419354838662v21.05263157894739h-9.677419354838662Z" fill="rgb(197, 169, 208)"/><path d="M590.8225806451613,0.5h9.677419354838662v21.05263157894739h-9.677419354838662Z" fill="rgb(14, 94, 41)"/><path d="M261.7903225806452,211.02631578947373h9.677419354838662v21.05263157894734h-9.677419354838662Z" fill="rgb(102, 35, 114)"/><path d="M406.9516129032258,126.8157894736842h9.677419354838776v21.052631578947384h-9.677419354838776Z" fill="rgb(133, 74, 148)"/><path d="M445.66129032258067,105.76315789473686h9.677419354838662v21.05263157894734h-9.677419354838662Z" fill="rgb(112, 48, 126)"/><path d="M465.01612903225805,84.71052631578947h9.677419354838719v21.0526315789474h-9.677419354838719Z" fill="rgb(112, 48, 126)"/><path d="M561.7903225806451,63.657894736842124h9.677419354838776v21.05263157894734h-9.677419354838776Z" fill="rgb(102, 35, 114)"/><path d="M194.04838709677418,0.5h9.677419354838719v21.05263157894739h-9.677419354838719Z" fill="rgb(142, 89, 157)"/><path d="M397.2741935483871,126.8157894736842h9.677419354838719v21.052631578947384h-9.677419354838719Z" fill="rgb(112, 48, 126)"/><path d="M523.0806451612904,126.8157894736842h9.677419354838662v21.052631578947384h-9.677419354838662Z" fill="rgb(102, 35, 114)"/><path d="M590.8225806451613,105.76315789473686h9.677419354838662v21.05263157894734h-9.677419354838662Z" fill="rgb(123, 61, 137)"/><path d="M194.04838709677418,21.55263157894739h9.677419354838719v21.05263157894734h-9.677419354838719Z" fill="rgb(112, 48, 126)"/><path d="M300.5,0.5h9.677419354838719v21.05263157894739h-9.677419354838719Z" fill="rgb(133, 74, 148)"/><path d="M281.14516129032256,0.5h9.677419354838719v21.05263157894739h-9.677419354838719Z" fill="rgb(170, 132, 185)"/><path d="M542.4354838709677,0.5h9.677419354838776v21.05263157894739h-9.677419354838776Z" fill="rgb(206, 180, 214)"/><path d="M552.1129032258065,0.5h9.677419354838662v21.05263157894739h-9.677419354838662Z" fill="rgb(197, 169, 208)"/><path d="M581.1451612903226,0.5h9.677419354838776v21.05263157894739h-9.677419354838776Z" fill="rgb(221, 201, 225)"/><path d="M387.59677419354836,0.5h9.677419354838719v21.05263157894739h-9.677419354838719Z" fill="rgb(188, 157, 200)"/><path d="M484.37096774193543,0.5h9.677419354838776v21.05263157894739h-9.677419354838776Z" fill="rgb(197, 169, 208)"/><path d="M377.9193548387097,0.5h9.677419354838662v21.05263157894739h-9.677419354838662Z" fill="rgb(123, 61, 137)"/><path d="M455.33870967741933,0.5h9.677419354838719v21.05263157894739h-9.677419354838719Z" fill="rgb(133, 74, 148)"/><path d="M474.69354838709677,0.5h9.677419354838662v21.05263157894739h-9.677419354838662Z" fill="rgb(151, 103, 167)"/><path d="M513.4032258064516,0.5h9.677419354838776v21.05263157894739h-9.677419354838776Z" fill="rgb(213, 191, 220)"/><path d="M523.0806451612904,0.5h9.677419354838662v21.05263157894739h-9.677419354838662Z" fill="rgb(206, 180, 214)"/><path d="M532.758064516129,0.5h9.677419354838662v21.05263157894739h-9.677419354838662Z" fill="rgb(213, 191, 220)"/><path d="M571.4677419354839,0.5h9.677419354838662v21.05263157894739h-9.677419354838662Z" fill="rgb(228, 212, 231)"/><path d="M203.7258064516129,126.8157894736842h9.677419354838719v21.052631578947384h-9.677419354838719Z" fill="rgb(91, 22, 103)"/><path d="M300.5,63.657894736842124h9.677419354838719v21.05263157894734h-9.677419354838719Z" fill="rgb(102, 35, 114)"/><path d="M397.2741935483871,42.60526315789473h9.677419354838719v21.05263157894739h-9.677419354838719Z" fill="rgb(102, 35, 114)"/><path d="M494.0483870967742,21.55263157894739h9.677419354838719v21.05263157894734h-9.677419354838719Z" fill="rgb(206, 180, 214)"/><path d="M203.7258064516129,295.2368421052632h9.677419354838719v21.05263157894734h-9.677419354838719Z" fill="rgb(102, 35, 114)"/><path d="M300.5,253.1315789473684h9.677419354838719v21.05263157894737h-9.677419354838719Z" fill="rgb(91, 22, 103)"/><path d="M397.2741935483871,211.02631578947373h9.677419354838719v21.05263157894734h-9.677419354838719Z" fill="rgb(102, 35, 114)"/><path d="M455.33870967741933,211.02631578947373h9.677419354838719v21.05263157894734h-9.677419354838719Z" fill="rgb(102, 35, 114)"/><path d="M494.0483870967742,168.92105263157893h9.677419354838719v21.0526315789474h-9.677419354838719Z" fill="rgb(112, 48, 126)"/><path d="M503.7258064516129,168.92105263157893h9.677419354838662v21.0526315789474h-9.677419354838662Z" fill="rgb(112, 48, 126)"/><path d="M513.4032258064516,147.8684210526316h9.677419354838776v21.05263157894734h-9.677419354838776Z" fill="rgb(102, 35, 114)"/><path d="M523.0806451612904,147.8684210526316h9.677419354838662v21.05263157894734h-9.677419354838662Z" fill="rgb(102, 35, 114)"/><path d="M532.758064516129,126.8157894736842h9.677419354838662v21.052631578947384h-9.677419354838662Z" fill="rgb(91, 22, 103)"/><path d="M542.4354838709677,105.76315789473686h9.677419354838776v21.05263157894734h-9.677419354838776Z" fill="rgb(91, 22, 103)"/><path d="M552.1129032258065,105.76315789473686h9.677419354838662v21.05263157894734h-9.677419354838662Z" fill="rgb(102, 35, 114)"/><path d="M561.7903225806451,105.76315789473686h9.677419354838776v21.05263157894734h-9.677419354838776Z" fill="rgb(102, 35, 114)"/><path d="M571.4677419354839,105.76315789473686h9.677419354838662v21.05263157894734h-9.677419354838662Z" fill="rgb(91, 22, 103)"/><path d="M581.1451612903226,105.76315789473686h9.677419354838776v21.05263157894734h-9.677419354838776Z" fill="rgb(91, 22, 103)"/><path d="M590.8225806451613,84.71052631578947h9.677419354838662v21.0526315789474h-9.677419354838662Z" fill="rgb(142, 89, 157)"/><path d="M97.27419354838709,0.5h9.677419354838719v21.05263157894739h-9.677419354838719Z" fill="rgb(112, 48, 126)"/><path d="M300.5,105.76315789473686h9.677419354838719v21.05263157894734h-9.677419354838719Z" fill="rgb(102, 35, 114)"/><path d="M397.2741935483871,63.657894736842124h9.677419354838719v21.05263157894734h-9.677419354838719Z" fill="rgb(123, 61, 137)"/><path d="M310.1774193548387,295.2368421052632h9.677419354838662v21.05263157894734h-9.677419354838662Z" fill="rgb(91, 22, 103)"/><path d="M406.9516129032258,274.1842105263158h9.677419354838776v21.0526315789474h-9.677419354838776Z" fill="rgb(91, 22, 103)"/><path d="M445.66129032258067,295.2368421052632h9.677419354838662v21.05263157894734h-9.677419354838662Z" fill="rgb(102, 35, 114)"/><path d="M503.7258064516129,274.1842105263158h9.677419354838662v21.0526315789474h-9.677419354838662Z" fill="rgb(102, 35, 114)"/><path d="M590.8225806451613,211.02631578947373h9.677419354838662v21.05263157894734h-9.677419354838662Z" fill="rgb(112, 48, 126)"/><path d="M435.98387096774195,189.97368421052633h9.677419354838719v21.0526315789474h-9.677419354838719Z" fill="rgb(91, 22, 103)"/><path d="M552.1129032258065,126.8157894736842h9.677419354838662v21.052631578947384h-9.677419354838662Z" fill="rgb(102, 35, 114)"/><path d="M155.33870967741936,147.8684210526316h9.67741935483869v21.05263157894734h-9.67741935483869Z" fill="rgb(91, 22, 103)"/><path d="M310.1774193548387,84.71052631578947h9.677419354838662v21.0526315789474h-9.677419354838662Z" fill="rgb(91, 22, 103)"/><path d="M455.33870967741933,21.55263157894739h9.677419354838719v21.05263157894734h-9.677419354838719Z" fill="rgb(179, 144, 193)"/><path d="M465.01612903225805,21.55263157894739h9.677419354838719v21.05263157894734h-9.677419354838719Z" fill="rgb(197, 169, 208)"/><path d="M474.69354838709677,21.55263157894739h9.677419354838662v21.05263157894734h-9.677419354838662Z" fill="rgb(213, 191, 220)"/><path d="M503.7258064516129,21.55263157894739h9.677419354838662v21.05263157894734h-9.677419354838662Z" fill="rgb(197, 169, 208)"/><path d="M532.758064516129,21.55263157894739h9.677419354838662v21.05263157894734h-9.677419354838662Z" fill="rgb(188, 157, 200)"/><path d="M581.1451612903226,21.55263157894739h9.677419354838776v21.05263157894734h-9.677419354838776Z" fill="rgb(133, 74, 148)"/><path d="M300.5,42.60526315789473h9.677419354838719v21.05263157894739h-9.677419354838719Z" fill="rgb(112, 48, 126)"/><path d="M300.5,126.8157894736842h9.677419354838719v21.052631578947384h-9.677419354838719Z" fill="rgb(102, 35, 114)"/><path d="M416.62903225806457,63.657894736842124h9.677419354838662v21.05263157894734h-9.677419354838662Z" fill="rgb(102, 35, 114)"/><path d="M513.4032258064516,42.60526315789473h9.677419354838776v21.05263157894739h-9.677419354838776Z" fill="rgb(112, 48, 126)"/><path d="M194.04838709677418,105.76315789473686h9.677419354838719v21.05263157894734h-9.677419354838719Z" fill="rgb(91, 22, 103)"/><path d="M387.59677419354836,42.60526315789473h9.677419354838719v21.05263157894739h-9.677419354838719Z" fill="rgb(123, 61, 137)"/><path d="M426.30645161290323,42.60526315789473h9.677419354838719v21.05263157894739h-9.677419354838719Z" fill="rgb(133, 74, 148)"/><path d="M445.66129032258067,42.60526315789473h9.677419354838662v21.05263157894739h-9.677419354838662Z" fill="rgb(112, 48, 126)"/><path d="M484.37096774193543,21.55263157894739h9.677419354838776v21.05263157894734h-9.677419354838776Z" fill="rgb(228, 212, 231)"/><path d="M513.4032258064516,21.55263157894739h9.677419354838776v21.05263157894734h-9.677419354838776Z" fill="rgb(151, 103, 167)"/><path d="M523.0806451612904,21.55263157894739h9.677419354838662v21.05263157894734h-9.677419354838662Z" fill="rgb(160, 118, 176)"/><path d="M542.4354838709677,21.55263157894739h9.677419354838776v21.05263157894734h-9.677419354838776Z" fill="rgb(170, 132, 185)"/><path d="M552.1129032258065,21.55263157894739h9.677419354838662v21.05263157894734h-9.677419354838662Z" fill="rgb(142, 89, 157)"/><path d="M561.7903225806451,21.55263157894739h9.677419354838776v21.05263157894734h-9.677419354838776Z" fill="rgb(133, 74, 148)"/><path d="M590.8225806451613,21.55263157894739h9.677419354838662v21.05263157894734h-9.677419354838662Z" fill="rgb(221, 201, 225)"/><path d="M203.7258064516129,84.71052631578947h9.677419354838719v21.0526315789474h-9.677419354838719Z" fill="rgb(102, 35, 114)"/><path d="M397.2741935483871,21.55263157894739h9.677419354838719v21.05263157894734h-9.677419354838719Z" fill="rgb(133, 74, 148)"/><path d="M561.7903225806451,0.5h9.677419354838776v21.05263157894739h-9.677419354838776Z" fill="rgb(213, 191, 220)"/><path d="M145.66129032258064,379.44736842105266h9.677419354838719v21.05263157894734h-9.677419354838719Z" fill="rgb(91, 22, 103)"/><path d="M300.5,358.39473684210526h9.677419354838719v21.0526315789474h-9.677419354838719Z" fill="rgb(91, 22, 103)"/><path d="M348.8870967741936,358.39473684210526h9.677419354838662v21.0526315789474h-9.677419354838662Z" fill="rgb(91, 22, 103)"/><path d="M416.62903225806457,316.2894736842105h9.677419354838662v21.05263157894734h-9.677419354838662Z" fill="rgb(102, 35, 114)"/><path d="M435.98387096774195,316.2894736842105h9.677419354838719v21.05263157894734h-9.677419354838719Z" fill="rgb(91, 22, 103)"/><path d="M445.66129032258067,316.2894736842105h9.677419354838662v21.05263157894734h-9.677419354838662Z" fill="rgb(91, 22, 103)"/><path d="M455.33870967741933,295.2368421052632h9.677419354838719v21.05263157894734h-9.677419354838719Z" fill="rgb(91, 22, 103)"/><path d="M523.0806451612904,274.1842105263158h9.677419354838662v21.0526315789474h-9.677419354838662Z" fill="rgb(102, 35, 114)"/><path d="M561.7903225806451,253.1315789473684h9.677419354838776v21.05263157894737h-9.677419354838776Z" fill="rgb(123, 61, 137)"/><path d="M571.4677419354839,295.2368421052632h9.677419354838662v21.05263157894734h-9.677419354838662Z" fill="rgb(91, 22, 103)"/><path d="M590.8225806451613,274.1842105263158h9.677419354838662v21.0526315789474h-9.677419354838662Z" fill="rgb(91, 22, 103)"/><path d="M184.3709677419355,316.2894736842105h9.67741935483869v21.05263157894734h-9.67741935483869Z" fill="rgb(91, 22, 103)"/><path d="M290.8225806451613,253.1315789473684h9.677419354838719v21.05263157894737h-9.677419354838719Z" fill="rgb(91, 22, 103)"/><path d="M387.59677419354836,168.92105263157893h9.677419354838719v21.0526315789474h-9.677419354838719Z" fill="rgb(112, 48, 126)"/><path d="M465.01612903225805,211.02631578947373h9.677419354838719v21.05263157894734h-9.677419354838719Z" fill="rgb(91, 22, 103)"/><path d="M290.8225806451613,147.8684210526316h9.677419354838719v21.05263157894734h-9.677419354838719Z" fill="rgb(91, 22, 103)"/><path d="M387.59677419354836,84.71052631578947h9.677419354838719v21.0526315789474h-9.677419354838719Z" fill="rgb(102, 35, 114)"/><path d="M503.7258064516129,42.60526315789473h9.677419354838662v21.05263157894739h-9.677419354838662Z" fill="rgb(102, 35, 114)"/><path d="M532.758064516129,42.60526315789473h9.677419354838662v21.05263157894739h-9.677419354838662Z" fill="rgb(112, 48, 126)"/><path d="M368.241935483871,126.8157894736842h9.677419354838719v21.052631578947384h-9.677419354838719Z" fill="rgb(91, 22, 103)"/><path d="M426.30645161290323,105.76315789473686h9.677419354838719v21.05263157894734h-9.677419354838719Z" fill="rgb(102, 35, 114)"/><path d="M474.69354838709677,84.71052631578947h9.677419354838662v21.0526315789474h-9.677419354838662Z" fill="rgb(102, 35, 114)"/><path d="M523.0806451612904,84.71052631578947h9.677419354838662v21.0526315789474h-9.677419354838662Z" fill="rgb(133, 74, 148)"/><path d="M532.758064516129,63.657894736842124h9.677419354838662v21.05263157894734h-9.677419354838662Z" fill="rgb(112, 48, 126)"/><path d="M590.8225806451613,63.657894736842124h9.677419354838662v21.05263157894734h-9.677419354838662Z" fill="rgb(160, 118, 176)"/><path d="M155.33870967741936,232.07894736842107h9.67741935483869v21.05263157894734h-9.67741935483869Z" fill="rgb(91, 22, 103)"/><path d="M387.59677419354836,126.8157894736842h9.677419354838719v21.052631578947384h-9.677419354838719Z" fill="rgb(112, 48, 126)"/><path d="M455.33870967741933,105.76315789473686h9.677419354838719v21.05263157894734h-9.677419354838719Z" fill="rgb(102, 35, 114)"/><path d="M484.37096774193543,105.76315789473686h9.677419354838776v21.05263157894734h-9.677419354838776Z" fill="rgb(123, 61, 137)"/><path d="M561.7903225806451,84.71052631578947h9.677419354838776v21.0526315789474h-9.677419354838776Z" fill="rgb(123, 61, 137)"/><path d="M581.1451612903226,84.71052631578947h9.677419354838776v21.0526315789474h-9.677419354838776Z" fill="rgb(91, 22, 103)"/><path d="M145.66129032258064,337.34210526315786h9.677419354838719v21.0526315789474h-9.677419354838719Z" fill="rgb(91, 22, 103)"/><path d="M271.46774193548384,274.1842105263158h9.677419354838719v21.0526315789474h-9.677419354838719Z" fill="rgb(102, 35, 114)"/><path d="M387.59677419354836,189.97368421052633h9.677419354838719v21.0526315789474h-9.677419354838719Z" fill="rgb(112, 48, 126)"/><path d="M484.37096774193543,253.1315789473684h9.677419354838776v21.05263157894737h-9.677419354838776Z" fill="rgb(91, 22, 103)"/><path d="M581.1451612903226,253.1315789473684h9.677419354838776v21.05263157894737h-9.677419354838776Z" fill="rgb(91, 22, 103)"/><path d="M319.8548387096774,358.39473684210526h9.677419354838719v21.0526315789474h-9.677419354838719Z" fill="rgb(91, 22, 103)"/><path d="M387.59677419354836,295.2368421052632h9.677419354838719v21.05263157894734h-9.677419354838719Z" fill="rgb(91, 22, 103)"/><path d="M426.30645161290323,295.2368421052632h9.677419354838719v21.05263157894734h-9.677419354838719Z" fill="rgb(91, 22, 103)"/><path d="M532.758064516129,295.2368421052632h9.677419354838662v21.05263157894734h-9.677419354838662Z" fill="rgb(91, 22, 103)"/><path d="M542.4354838709677,316.2894736842105h9.677419354838776v21.05263157894734h-9.677419354838776Z" fill="rgb(91, 22, 103)"/><path d="M590.8225806451613,295.2368421052632h9.677419354838662v21.05263157894734h-9.677419354838662Z" fill="rgb(91, 22, 103)"/><path d="M213.40322580645162,21.55263157894739h9.677419354838719v21.05263157894734h-9.677419354838719Z" fill="rgb(91, 22, 103)"/><path d="M310.1774193548387,21.55263157894739h9.677419354838662v21.05263157894734h-9.677419354838662Z" fill="rgb(112, 48, 126)"/><path d="M406.9516129032258,0.5h9.677419354838776v21.05263157894739h-9.677419354838776Z" fill="rgb(142, 89, 157)"/><path d="M213.40322580645162,126.8157894736842h9.677419354838719v21.052631578947384h-9.677419354838719Z" fill="rgb(91, 22, 103)"/><path d="M290.8225806451613,84.71052631578947h9.677419354838719v21.0526315789474h-9.677419354838719Z" fill="rgb(112, 48, 126)"/><path d="M387.59677419354836,21.55263157894739h9.677419354838719v21.05263157894734h-9.677419354838719Z" fill="rgb(160, 118, 176)"/><path d="M319.8548387096774,21.55263157894739h9.677419354838719v21.05263157894734h-9.677419354838719Z" fill="rgb(91, 22, 103)"/><path d="M348.8870967741936,21.55263157894739h9.677419354838662v21.05263157894734h-9.677419354838662Z" fill="rgb(91, 22, 103)"/><path d="M426.30645161290323,21.55263157894739h9.677419354838719v21.05263157894734h-9.677419354838719Z" fill="rgb(123, 61, 137)"/><path d="M435.98387096774195,21.55263157894739h9.677419354838719v21.05263157894734h-9.677419354838719Z" fill="rgb(151, 103, 167)"/><path d="M445.66129032258067,21.55263157894739h9.677419354838662v21.05263157894734h-9.677419354838662Z" fill="rgb(151, 103, 167)"/><path d="M194.04838709677418,211.02631578947373h9.677419354838719v21.05263157894734h-9.677419354838719Z" fill="rgb(91, 22, 103)"/><path d="M503.7258064516129,211.02631578947373h9.677419354838662v21.05263157894734h-9.677419354838662Z" fill="rgb(91, 22, 103)"/><path d="M590.8225806451613,147.8684210526316h9.677419354838662v21.05263157894734h-9.677419354838662Z" fill="rgb(91, 22, 103)"/><path d="M455.33870967741933,147.8684210526316h9.677419354838719v21.05263157894734h-9.677419354838719Z" fill="rgb(102, 35, 114)"/><path d="M503.7258064516129,84.71052631578947h9.677419354838662v21.0526315789474h-9.677419354838662Z" fill="rgb(123, 61, 137)"/><path d="M542.4354838709677,84.71052631578947h9.677419354838776v21.0526315789474h-9.677419354838776Z" fill="rgb(102, 35, 114)"/><path d="M232.75806451612902,168.92105263157893h9.67741935483869v21.0526315789474h-9.67741935483869Z" fill="rgb(102, 35, 114)"/><path d="M435.98387096774195,84.71052631578947h9.677419354838719v21.0526315789474h-9.677419354838719Z" fill="rgb(102, 35, 114)"/><path d="M494.0483870967742,84.71052631578947h9.677419354838719v21.0526315789474h-9.677419354838719Z" fill="rgb(102, 35, 114)"/><path d="M232.75806451612902,21.55263157894739h9.67741935483869v21.05263157894734h-9.67741935483869Z" fill="rgb(91, 22, 103)"/><path d="M368.241935483871,253.1315789473684h9.677419354838719v21.05263157894737h-9.677419354838719Z" fill="rgb(91, 22, 103)"/><path d="M387.59677419354836,211.02631578947373h9.677419354838719v21.05263157894734h-9.677419354838719Z" fill="rgb(91, 22, 103)"/><path d="M503.7258064516129,232.07894736842107h9.677419354838662v21.05263157894734h-9.677419354838662Z" fill="rgb(91, 22, 103)"/><path d="M523.0806451612904,232.07894736842107h9.677419354838662v21.05263157894734h-9.677419354838662Z" fill="rgb(91, 22, 103)"/><path d="M571.4677419354839,42.60526315789473h9.677419354838662v21.05263157894739h-9.677419354838662Z" fill="rgb(123, 61, 137)"/><path d="M203.7258064516129,0.5h9.677419354838719v21.05263157894739h-9.677419354838719Z" fill="rgb(102, 35, 114)"/><path d="M203.7258064516129,105.76315789473686h9.677419354838719v21.05263157894734h-9.677419354838719Z" fill="rgb(91, 22, 103)"/><path d="M406.9516129032258,42.60526315789473h9.677419354838776v21.05263157894739h-9.677419354838776Z" fill="rgb(91, 22, 103)"/><path d="M455.33870967741933,42.60526315789473h9.677419354838719v21.05263157894739h-9.677419354838719Z" fill="rgb(133, 74, 148)"/><path d="M484.37096774193543,42.60526315789473h9.677419354838776v21.05263157894739h-9.677419354838776Z" fill="rgb(102, 35, 114)"/><path d="M213.40322580645162,63.657894736842124h9.677419354838719v21.05263157894734h-9.677419354838719Z" fill="rgb(91, 22, 103)"/><path d="M290.8225806451613,42.60526315789473h9.677419354838719v21.05263157894739h-9.677419354838719Z" fill="rgb(142, 89, 157)"/><path d="M155.33870967741936,253.1315789473684h9.67741935483869v21.05263157894737h-9.67741935483869Z" fill="rgb(102, 35, 114)"/><path d="M252.11290322580646,232.07894736842107h9.677419354838719v21.05263157894734h-9.677419354838719Z" fill="rgb(91, 22, 103)"/><path d="M348.8870967741936,168.92105263157893h9.677419354838662v21.0526315789474h-9.677419354838662Z" fill="rgb(91, 22, 103)"/><path d="M435.98387096774195,126.8157894736842h9.677419354838719v21.052631578947384h-9.677419354838719Z" fill="rgb(91, 22, 103)"/><path d="M445.66129032258067,126.8157894736842h9.677419354838662v21.052631578947384h-9.677419354838662Z" fill="rgb(91, 22, 103)"/><path d="M503.7258064516129,105.76315789473686h9.677419354838662v21.05263157894734h-9.677419354838662Z" fill="rgb(112, 48, 126)"/><path d="M513.4032258064516,105.76315789473686h9.677419354838776v21.05263157894734h-9.677419354838776Z" fill="rgb(91, 22, 103)"/><path d="M310.1774193548387,105.76315789473686h9.677419354838662v21.05263157894734h-9.677419354838662Z" fill="rgb(102, 35, 114)"/><path d="M445.66129032258067,63.657894736842124h9.677419354838662v21.05263157894734h-9.677419354838662Z" fill="rgb(102, 35, 114)"/><path d="M455.33870967741933,63.657894736842124h9.677419354838719v21.05263157894734h-9.677419354838719Z" fill="rgb(102, 35, 114)"/><path d="M465.01612903225805,63.657894736842124h9.677419354838719v21.05263157894734h-9.677419354838719Z" fill="rgb(102, 35, 114)"/><path d="M474.69354838709677,63.657894736842124h9.677419354838662v21.05263157894734h-9.677419354838662Z" fill="rgb(102, 35, 114)"/><path d="M484.37096774193543,63.657894736842124h9.677419354838776v21.05263157894734h-9.677419354838776Z" fill="rgb(123, 61, 137)"/><path d="M494.0483870967742,42.60526315789473h9.677419354838719v21.05263157894739h-9.677419354838719Z" fill="rgb(123, 61, 137)"/><path d="M542.4354838709677,42.60526315789473h9.677419354838776v21.05263157894739h-9.677419354838776Z" fill="rgb(112, 48, 126)"/><path d="M552.1129032258065,42.60526315789473h9.677419354838662v21.05263157894739h-9.677419354838662Z" fill="rgb(112, 48, 126)"/><path d="M561.7903225806451,42.60526315789473h9.677419354838776v21.05263157894739h-9.677419354838776Z" fill="rgb(112, 48, 126)"/><path d="M581.1451612903226,42.60526315789473h9.677419354838776v21.05263157894739h-9.677419354838776Z" fill="rgb(112, 48, 126)"/><path d="M406.9516129032258,189.97368421052633h9.677419354838776v21.0526315789474h-9.677419354838776Z" fill="rgb(91, 22, 103)"/><path d="M465.01612903225805,147.8684210526316h9.677419354838719v21.05263157894734h-9.677419354838719Z" fill="rgb(91, 22, 103)"/><path d="M155.33870967741936,168.92105263157893h9.67741935483869v21.0526315789474h-9.67741935483869Z" fill="rgb(91, 22, 103)"/><path d="M252.11290322580646,126.8157894736842h9.677419354838719v21.052631578947384h-9.677419354838719Z" fill="rgb(91, 22, 103)"/><path d="M387.59677419354836,63.657894736842124h9.677419354838719v21.05263157894734h-9.677419354838719Z" fill="rgb(112, 48, 126)"/><path d="M329.5322580645161,295.2368421052632h9.677419354838776v21.05263157894734h-9.677419354838776Z" fill="rgb(91, 22, 103)"/><path d="M426.30645161290323,253.1315789473684h9.677419354838719v21.05263157894737h-9.677419354838719Z" fill="rgb(91, 22, 103)"/><path d="M435.98387096774195,295.2368421052632h9.677419354838719v21.05263157894734h-9.677419354838719Z" fill="rgb(102, 35, 114)"/><path d="M455.33870967741933,253.1315789473684h9.677419354838719v21.05263157894737h-9.677419354838719Z" fill="rgb(91, 22, 103)"/><path d="M552.1129032258065,189.97368421052633h9.677419354838662v21.0526315789474h-9.677419354838662Z" fill="rgb(102, 35, 114)"/><path d="M319.8548387096774,105.76315789473686h9.677419354838719v21.05263157894734h-9.677419354838719Z" fill="rgb(91, 22, 103)"/><path d="M503.7258064516129,63.657894736842124h9.677419354838662v21.05263157894734h-9.677419354838662Z" fill="rgb(112, 48, 126)"/><path d="M590.8225806451613,42.60526315789473h9.677419354838662v21.05263157894739h-9.677419354838662Z" fill="rgb(133, 74, 148)"/><path d="M387.59677419354836,253.1315789473684h9.677419354838719v21.05263157894737h-9.677419354838719Z" fill="rgb(91, 22, 103)"/><path d="M513.4032258064516,232.07894736842107h9.677419354838776v21.05263157894734h-9.677419354838776Z" fill="rgb(102, 35, 114)"/><path d="M532.758064516129,189.97368421052633h9.677419354838662v21.0526315789474h-9.677419354838662Z" fill="rgb(91, 22, 103)"/><path d="M590.8225806451613,168.92105263157893h9.677419354838662v21.0526315789474h-9.677419354838662Z" fill="rgb(102, 35, 114)"/><path d="M581.1451612903226,63.657894736842124h9.677419354838776v21.05263157894734h-9.677419354838776Z" fill="rgb(91, 22, 103)"/><path d="M203.7258064516129,21.55263157894739h9.677419354838719v21.05263157894734h-9.677419354838719Z" fill="rgb(112, 48, 126)"/><path d="M300.5,21.55263157894739h9.677419354838719v21.05263157894734h-9.677419354838719Z" fill="rgb(102, 35, 114)"/><path d="M290.8225806451613,0.5h9.677419354838719v21.05263157894739h-9.677419354838719Z" fill="rgb(123, 61, 137)"/><path d="M329.5322580645161,147.8684210526316h9.677419354838776v21.05263157894734h-9.677419354838776Z" fill="rgb(91, 22, 103)"/><path d="M513.4032258064516,84.71052631578947h9.677419354838776v21.0526315789474h-9.677419354838776Z" fill="rgb(91, 22, 103)"/><path d="M523.0806451612904,63.657894736842124h9.677419354838662v21.05263157894734h-9.677419354838662Z" fill="rgb(123, 61, 137)"/><path d="M348.8870967741936,316.2894736842105h9.677419354838662v21.05263157894734h-9.677419354838662Z" fill="rgb(91, 22, 103)"/><path d="M416.62903225806457,295.2368421052632h9.677419354838662v21.05263157894734h-9.677419354838662Z" fill="rgb(91, 22, 103)"/><path d="M484.37096774193543,295.2368421052632h9.677419354838776v21.05263157894734h-9.677419354838776Z" fill="rgb(91, 22, 103)"/><path d="M387.59677419354836,232.07894736842107h9.677419354838719v21.05263157894734h-9.677419354838719Z" fill="rgb(91, 22, 103)"/><path d="M523.0806451612904,211.02631578947373h9.677419354838662v21.05263157894734h-9.677419354838662Z" fill="rgb(91, 22, 103)"/><path d="M590.8225806451613,189.97368421052633h9.677419354838662v21.0526315789474h-9.677419354838662Z" fill="rgb(91, 22, 103)"/><path d="M523.0806451612904,42.60526315789473h9.677419354838662v21.05263157894739h-9.677419354838662Z" fill="rgb(123, 61, 137)"/><path d="M213.40322580645162,274.1842105263158h9.677419354838719v21.0526315789474h-9.677419354838719Z" fill="rgb(102, 35, 114)"/><path d="M416.62903225806457,168.92105263157893h9.677419354838662v21.0526315789474h-9.677419354838662Z" fill="rgb(91, 22, 103)"/><path d="M445.66129032258067,211.02631578947373h9.677419354838662v21.05263157894734h-9.677419354838662Z" fill="rgb(91, 22, 103)"/><path d="M542.4354838709677,147.8684210526316h9.677419354838776v21.05263157894734h-9.677419354838776Z" fill="rgb(91, 22, 103)"/><path d="M203.7258064516129,232.07894736842107h9.677419354838719v21.05263157894734h-9.677419354838719Z" fill="rgb(91, 22, 103)"/><path d="M300.5,211.02631578947373h9.677419354838719v21.05263157894734h-9.677419354838719Z" fill="rgb(91, 22, 103)"/><path d="M397.2741935483871,147.8684210526316h9.677419354838719v21.05263157894734h-9.677419354838719Z" fill="rgb(91, 22, 103)"/><path d="M445.66129032258067,147.8684210526316h9.677419354838662v21.05263157894734h-9.677419354838662Z" fill="rgb(91, 22, 103)"/><path d="M494.0483870967742,126.8157894736842h9.677419354838719v21.052631578947384h-9.677419354838719Z" fill="rgb(102, 35, 114)"/><path d="M194.04838709677418,126.8157894736842h9.677419354838719v21.052631578947384h-9.677419354838719Z" fill="rgb(123, 61, 137)"/><path d="M290.8225806451613,63.657894736842124h9.677419354838719v21.05263157894734h-9.677419354838719Z" fill="rgb(91, 22, 103)"/><path d="M252.11290322580646,189.97368421052633h9.677419354838719v21.0526315789474h-9.677419354838719Z" fill="rgb(91, 22, 103)"/><path d="M348.8870967741936,105.76315789473686h9.677419354838662v21.05263157894734h-9.677419354838662Z" fill="rgb(91, 22, 103)"/><path d="M406.9516129032258,84.71052631578947h9.677419354838776v21.0526315789474h-9.677419354838776Z" fill="rgb(91, 22, 103)"/><path d="M435.98387096774195,63.657894736842124h9.677419354838719v21.05263157894734h-9.677419354838719Z" fill="rgb(91, 22, 103)"/><path d="M513.4032258064516,63.657894736842124h9.677419354838776v21.05263157894734h-9.677419354838776Z" fill="rgb(91, 22, 103)"/><path d="M387.59677419354836,105.76315789473686h9.677419354838719v21.05263157894734h-9.677419354838719Z" fill="rgb(102, 35, 114)"/><path d="M542.4354838709677,63.657894736842124h9.677419354838776v21.05263157894734h-9.677419354838776Z" fill="rgb(91, 22, 103)"/><path d="M223.08064516129033,21.55263157894739h9.67741935483869v21.05263157894734h-9.67741935483869Z" fill="rgb(91, 22, 103)"/><path d="M377.9193548387097,84.71052631578947h9.677419354838662v21.0526315789474h-9.677419354838662Z" fill="rgb(102, 35, 114)"/><path d="M184.3709677419355,126.8157894736842h9.67741935483869v21.052631578947384h-9.67741935483869Z" fill="rgb(91, 22, 103)"/><path d="M416.62903225806457,42.60526315789473h9.677419354838662v21.05263157894739h-9.677419354838662Z" fill="rgb(91, 22, 103)"/><path d="M145.66129032258064,168.92105263157893h9.677419354838719v21.0526315789474h-9.677419354838719Z" fill="rgb(91, 22, 103)"/><path d="M242.43548387096772,105.76315789473686h9.677419354838747v21.05263157894734h-9.677419354838747Z" fill="rgb(102, 35, 114)"/><path d="M339.2096774193549,84.71052631578947h9.677419354838719v21.0526315789474h-9.677419354838719Z" fill="rgb(91, 22, 103)"/><path d="M339.2096774193549,147.8684210526316h9.677419354838719v21.05263157894734h-9.677419354838719Z" fill="rgb(91, 22, 103)"/><path d="M435.98387096774195,105.76315789473686h9.677419354838719v21.05263157894734h-9.677419354838719Z" fill="rgb(91, 22, 103)"/><path d="M232.75806451612902,274.1842105263158h9.67741935483869v21.0526315789474h-9.67741935483869Z" fill="rgb(91, 22, 103)"/><path d="M455.33870967741933,232.07894736842107h9.677419354838719v21.05263157894734h-9.677419354838719Z" fill="rgb(91, 22, 103)"/><path d="M552.1129032258065,211.02631578947373h9.677419354838662v21.05263157894734h-9.677419354838662Z" fill="rgb(91, 22, 103)"/><path d="M232.75806451612902,147.8684210526316h9.67741935483869v21.05263157894734h-9.67741935483869Z" fill="rgb(91, 22, 103)"/><path d="M329.5322580645161,84.71052631578947h9.677419354838776v21.0526315789474h-9.677419354838776Z" fill="rgb(91, 22, 103)"/><path d="M435.98387096774195,168.92105263157893h9.677419354838719v21.0526315789474h-9.677419354838719Z" fill="rgb(91, 22, 103)"/><path d="M474.69354838709677,147.8684210526316h9.677419354838662v21.05263157894734h-9.677419354838662Z" fill="rgb(91, 22, 103)"/><path d="M368.241935483871,147.8684210526316h9.677419354838719v21.05263157894734h-9.677419354838719Z" fill="rgb(91, 22, 103)"/><path d="M484.37096774193543,147.8684210526316h9.677419354838776v21.05263157894734h-9.677419354838776Z" fill="rgb(102, 35, 114)"/><path d="M532.758064516129,147.8684210526316h9.677419354838662v21.05263157894734h-9.677419354838662Z" fill="rgb(102, 35, 114)"/><path d="M590.8225806451613,126.8157894736842h9.677419354838662v21.052631578947384h-9.677419354838662Z" fill="rgb(102, 35, 114)"/><path d="M165.01612903225805,63.657894736842124h9.677419354838747v21.05263157894734h-9.677419354838747Z" fill="rgb(91, 22, 103)"/><path d="M242.43548387096772,21.55263157894739h9.677419354838747v21.05263157894734h-9.677419354838747Z" fill="rgb(91, 22, 103)"/><path d="M339.2096774193549,0.5h9.677419354838719v21.05263157894739h-9.677419354838719Z" fill="rgb(102, 35, 114)"/><path d="M445.66129032258067,0.5h9.677419354838662v21.05263157894739h-9.677419354838662Z" fill="rgb(133, 74, 148)"/><path d="M155.33870967741936,379.44736842105266h9.67741935483869v21.05263157894734h-9.67741935483869Z" fill="rgb(91, 22, 103)"/><path d="M368.241935483871,337.34210526315786h9.677419354838719v21.0526315789474h-9.677419354838719Z" fill="rgb(91, 22, 103)"/><path d="M484.37096774193543,274.1842105263158h9.677419354838776v21.0526315789474h-9.677419354838776Z" fill="rgb(91, 22, 103)"/><path d="M532.758064516129,274.1842105263158h9.677419354838662v21.0526315789474h-9.677419354838662Z" fill="rgb(91, 22, 103)"/><path d="M581.1451612903226,274.1842105263158h9.677419354838776v21.0526315789474h-9.677419354838776Z" fill="rgb(91, 22, 103)"/><path d="M242.43548387096772,42.60526315789473h9.677419354838747v21.05263157894739h-9.677419354838747Z" fill="rgb(91, 22, 103)"/><path d="M339.2096774193549,42.60526315789473h9.677419354838719v21.05263157894739h-9.677419354838719Z" fill="rgb(91, 22, 103)"/><path d="M194.04838709677418,63.657894736842124h9.677419354838719v21.05263157894734h-9.677419354838719Z" fill="rgb(112, 48, 126)"/><path d="M406.9516129032258,21.55263157894739h9.677419354838776v21.05263157894734h-9.677419354838776Z" fill="rgb(102, 35, 114)"/><path d="M203.7258064516129,42.60526315789473h9.677419354838719v21.05263157894739h-9.677419354838719Z" fill="rgb(102, 35, 114)"/><path d="M416.62903225806457,0.5h9.677419354838662v21.05263157894739h-9.677419354838662Z" fill="rgb(102, 35, 114)"/><path d="M329.5322580645161,232.07894736842107h9.677419354838776v21.05263157894734h-9.677419354838776Z" fill="rgb(91, 22, 103)"/><path d="M426.30645161290323,189.97368421052633h9.677419354838719v21.0526315789474h-9.677419354838719Z" fill="rgb(102, 35, 114)"/><path d="M465.01612903225805,168.92105263157893h9.677419354838719v21.0526315789474h-9.677419354838719Z" fill="rgb(102, 35, 114)"/><path d="M474.69354838709677,168.92105263157893h9.677419354838662v21.0526315789474h-9.677419354838662Z" fill="rgb(102, 35, 114)"/><path d="M503.7258064516129,126.8157894736842h9.677419354838662v21.052631578947384h-9.677419354838662Z" fill="rgb(91, 22, 103)"/><path d="M194.04838709677418,295.2368421052632h9.677419354838719v21.05263157894734h-9.677419354838719Z" fill="rgb(91, 22, 103)"/><path d="M358.56451612903226,253.1315789473684h9.677419354838719v21.05263157894737h-9.677419354838719Z" fill="rgb(91, 22, 103)"/><path d="M416.62903225806457,211.02631578947373h9.677419354838662v21.05263157894734h-9.677419354838662Z" fill="rgb(91, 22, 103)"/><path d="M474.69354838709677,189.97368421052633h9.677419354838662v21.0526315789474h-9.677419354838662Z" fill="rgb(102, 35, 114)"/><path d="M532.758064516129,168.92105263157893h9.677419354838662v21.0526315789474h-9.677419354838662Z" fill="rgb(91, 22, 103)"/><path d="M552.1129032258065,147.8684210526316h9.677419354838662v21.05263157894734h-9.677419354838662Z" fill="rgb(91, 22, 103)"/><path d="M581.1451612903226,168.92105263157893h9.677419354838776v21.0526315789474h-9.677419354838776Z" fill="rgb(91, 22, 103)"/><path d="M223.08064516129033,84.71052631578947h9.67741935483869v21.0526315789474h-9.67741935483869Z" fill="rgb(91, 22, 103)"/><path d="M300.5,84.71052631578947h9.677419354838719v21.0526315789474h-9.677419354838719Z" fill="rgb(91, 22, 103)"/><path d="M455.33870967741933,84.71052631578947h9.677419354838719v21.0526315789474h-9.677419354838719Z" fill="rgb(102, 35, 114)"/><path d="M203.7258064516129,316.2894736842105h9.677419354838719v21.05263157894734h-9.677419354838719Z" fill="rgb(91, 22, 103)"/><path d="M300.5,274.1842105263158h9.677419354838719v21.0526315789474h-9.677419354838719Z" fill="rgb(91, 22, 103)"/><path d="M155.33870967741936,21.55263157894739h9.67741935483869v21.05263157894734h-9.67741935483869Z" fill="rgb(91, 22, 103)"/><path d="M281.14516129032256,21.55263157894739h9.677419354838719v21.05263157894734h-9.677419354838719Z" fill="rgb(91, 22, 103)"/><path d="M348.8870967741936,0.5h9.677419354838662v21.05263157894739h-9.677419354838662Z" fill="rgb(112, 48, 126)"/><path d="M397.2741935483871,84.71052631578947h9.677419354838719v21.0526315789474h-9.677419354838719Z" fill="rgb(91, 22, 103)"/><path d="M397.2741935483871,358.39473684210526h9.677419354838719v21.0526315789474h-9.677419354838719Z" fill="rgb(91, 22, 103)"/><path d="M300.5,168.92105263157893h9.677419354838719v21.0526315789474h-9.677419354838719Z" fill="rgb(112, 48, 126)"/><path d="M416.62903225806457,189.97368421052633h9.677419354838662v21.0526315789474h-9.677419354838662Z" fill="rgb(91, 22, 103)"/><path d="M465.01612903225805,189.97368421052633h9.677419354838719v21.0526315789474h-9.677419354838719Z" fill="rgb(102, 35, 114)"/><path d="M561.7903225806451,147.8684210526316h9.677419354838776v21.05263157894734h-9.677419354838776Z" fill="rgb(102, 35, 114)"/><path d="M329.5322580645161,21.55263157894739h9.677419354838776v21.05263157894734h-9.677419354838776Z" fill="rgb(102, 35, 114)"/><path d="M465.01612903225805,42.60526315789473h9.677419354838719v21.05263157894739h-9.677419354838719Z" fill="rgb(91, 22, 103)"/><path d="M368.241935483871,232.07894736842107h9.677419354838719v21.05263157894734h-9.677419354838719Z" fill="rgb(91, 22, 103)"/><path d="M435.98387096774195,211.02631578947373h9.677419354838719v21.05263157894734h-9.677419354838719Z" fill="rgb(91, 22, 103)"/><path d="M445.66129032258067,189.97368421052633h9.677419354838662v21.0526315789474h-9.677419354838662Z" fill="rgb(91, 22, 103)"/><path d="M455.33870967741933,189.97368421052633h9.677419354838719v21.0526315789474h-9.677419354838719Z" fill="rgb(102, 35, 114)"/><path d="M484.37096774193543,168.92105263157893h9.677419354838776v21.0526315789474h-9.677419354838776Z" fill="rgb(102, 35, 114)"/><path d="M494.0483870967742,189.97368421052633h9.677419354838719v21.0526315789474h-9.677419354838719Z" fill="rgb(102, 35, 114)"/><path d="M513.4032258064516,168.92105263157893h9.677419354838776v21.0526315789474h-9.677419354838776Z" fill="rgb(91, 22, 103)"/><path d="M523.0806451612904,168.92105263157893h9.677419354838662v21.0526315789474h-9.677419354838662Z" fill="rgb(91, 22, 103)"/><path d="M552.1129032258065,168.92105263157893h9.677419354838662v21.0526315789474h-9.677419354838662Z" fill="rgb(91, 22, 103)"/><path d="M561.7903225806451,168.92105263157893h9.677419354838776v21.0526315789474h-9.677419354838776Z" fill="rgb(91, 22, 103)"/><path d="M571.4677419354839,168.92105263157893h9.677419354838662v21.0526315789474h-9.677419354838662Z" fill="rgb(91, 22, 103)"/><path d="M194.04838709677418,42.60526315789473h9.677419354838719v21.05263157894739h-9.677419354838719Z" fill="rgb(112, 48, 126)"/><path d="M213.40322580645162,84.71052631578947h9.677419354838719v21.0526315789474h-9.677419354838719Z" fill="rgb(102, 35, 114)"/><path d="M571.4677419354839,21.55263157894739h9.677419354838662v21.05263157894734h-9.677419354838662Z" fill="rgb(102, 35, 114)"/><path d="M203.7258064516129,63.657894736842124h9.677419354838719v21.05263157894734h-9.677419354838719Z" fill="rgb(102, 35, 114)"/><path d="M319.8548387096774,42.60526315789473h9.677419354838719v21.05263157894739h-9.677419354838719Z" fill="rgb(91, 22, 103)"/><path d="M435.98387096774195,42.60526315789473h9.677419354838719v21.05263157894739h-9.677419354838719Z" fill="rgb(102, 35, 114)"/><path d="M290.8225806451613,21.55263157894739h9.677419354838719v21.05263157894734h-9.677419354838719Z" fill="rgb(91, 22, 103)"/><path d="M416.62903225806457,21.55263157894739h9.677419354838662v21.05263157894734h-9.677419354838662Z" fill="rgb(91, 22, 103)"/><path d="M174.6935483870968,0.5h9.67741935483869v21.05263157894739h-9.67741935483869Z" fill="rgb(91, 22, 103)"/><path d="M271.46774193548384,0.5h9.677419354838719v21.05263157894739h-9.677419354838719Z" fill="rgb(91, 22, 103)"/><path d="M252.11290322580646,84.71052631578947h9.677419354838719v21.0526315789474h-9.677419354838719Z" fill="rgb(91, 22, 103)"/><path d="M358.56451612903226,63.657894736842124h9.677419354838719v21.05263157894734h-9.677419354838719Z" fill="rgb(91, 22, 103)"/><path d="M310.1774193548387,0.5h9.677419354838662v21.05263157894739h-9.677419354838662Z" fill="rgb(91, 22, 103)"/><path d="M174.6935483870968,253.1315789473684h9.67741935483869v21.05263157894737h-9.67741935483869Z" fill="rgb(91, 22, 103)"/><path d="M387.59677419354836,147.8684210526316h9.677419354838719v21.05263157894734h-9.677419354838719Z" fill="rgb(102, 35, 114)"/><path d="M484.37096774193543,126.8157894736842h9.677419354838776v21.052631578947384h-9.677419354838776Z" fill="rgb(102, 35, 114)"/><path d="M523.0806451612904,105.76315789473686h9.677419354838662v21.05263157894734h-9.677419354838662Z" fill="rgb(91, 22, 103)"/><path d="M203.7258064516129,168.92105263157893h9.677419354838719v21.0526315789474h-9.677419354838719Z" fill="rgb(102, 35, 114)"/><path d="M465.01612903225805,126.8157894736842h9.677419354838719v21.052631578947384h-9.677419354838719Z" fill="rgb(91, 22, 103)"/><path d="M426.30645161290323,63.657894736842124h9.677419354838719v21.05263157894734h-9.677419354838719Z" fill="rgb(102, 35, 114)"/><path d="M271.46774193548384,295.2368421052632h9.677419354838719v21.05263157894734h-9.677419354838719Z" fill="rgb(91, 22, 103)"/><path d="M406.9516129032258,253.1315789473684h9.677419354838776v21.05263157894737h-9.677419354838776Z" fill="rgb(91, 22, 103)"/><path d="M445.66129032258067,232.07894736842107h9.677419354838662v21.05263157894734h-9.677419354838662Z" fill="rgb(91, 22, 103)"/><path d="M474.69354838709677,211.02631578947373h9.677419354838662v21.05263157894734h-9.677419354838662Z" fill="rgb(91, 22, 103)"/><path d="M261.7903225806452,63.657894736842124h9.677419354838662v21.05263157894734h-9.677419354838662Z" fill="rgb(91, 22, 103)"/><path d="M329.5322580645161,42.60526315789473h9.677419354838776v21.05263157894739h-9.677419354838776Z" fill="rgb(91, 22, 103)"/><path d="M426.30645161290323,274.1842105263158h9.677419354838719v21.0526315789474h-9.677419354838719Z" fill="rgb(91, 22, 103)"/><path d="M513.4032258064516,274.1842105263158h9.677419354838776v21.0526315789474h-9.677419354838776Z" fill="rgb(91, 22, 103)"/><path d="M116.62903225806451,379.44736842105266h9.677419354838719v21.05263157894734h-9.677419354838719Z" fill="rgb(91, 22, 103)"/><path d="M590.8225806451613,232.07894736842107h9.677419354838662v21.05263157894734h-9.677419354838662Z" fill="rgb(91, 22, 103)"/><path d="M194.04838709677418,84.71052631578947h9.677419354838719v21.0526315789474h-9.677419354838719Z" fill="rgb(91, 22, 103)"/><path d="M348.8870967741936,63.657894736842124h9.677419354838662v21.05263157894734h-9.677419354838662Z" fill="rgb(91, 22, 103)"/><path d="M465.01612903225805,295.2368421052632h9.677419354838719v21.05263157894734h-9.677419354838719Z" fill="rgb(91, 22, 103)"/><path d="M561.7903225806451,274.1842105263158h9.677419354838776v21.0526315789474h-9.677419354838776Z" fill="rgb(91, 22, 103)"/><path d="M426.30645161290323,0.5h9.677419354838719v21.05263157894739h-9.677419354838719Z" fill="rgb(91, 22, 103)"/><path d="M435.98387096774195,0.5h9.677419354838719v21.05263157894739h-9.677419354838719Z" fill="rgb(102, 35, 114)"/><path d="M406.9516129032258,63.657894736842124h9.677419354838776v21.05263157894734h-9.677419354838776Z" fill="rgb(91, 22, 103)"/><path d="M271.46774193548384,168.92105263157893h9.677419354838719v21.0526315789474h-9.677419354838719Z" fill="rgb(91, 22, 103)"/><path d="M532.758064516129,84.71052631578947h9.677419354838662v21.0526315789474h-9.677419354838662Z" fill="rgb(91, 22, 103)"/><path d="M397.2741935483871,253.1315789473684h9.677419354838719v21.05263157894737h-9.677419354838719Z" fill="rgb(91, 22, 103)"/><path d="M581.1451612903226,126.8157894736842h9.677419354838776v21.052631578947384h-9.677419354838776Z" fill="rgb(91, 22, 103)"/><path d="M445.66129032258067,168.92105263157893h9.677419354838662v21.0526315789474h-9.677419354838662Z" fill="rgb(91, 22, 103)"/><path d="M494.0483870967742,147.8684210526316h9.677419354838719v21.05263157894734h-9.677419354838719Z" fill="rgb(91, 22, 103)"/><path d="M571.4677419354839,126.8157894736842h9.677419354838662v21.052631578947384h-9.677419354838662Z" fill="rgb(91, 22, 103)"/><path d="M155.33870967741936,0.5h9.67741935483869v21.05263157894739h-9.67741935483869Z" fill="rgb(91, 22, 103)"/><path d="M232.75806451612902,211.02631578947373h9.67741935483869v21.05263157894734h-9.67741935483869Z" fill="rgb(91, 22, 103)"/><path d="M484.37096774193543,84.71052631578947h9.677419354838776v21.0526315789474h-9.677419354838776Z" fill="rgb(91, 22, 103)"/><path d="M571.4677419354839,63.657894736842124h9.677419354838662v21.05263157894734h-9.677419354838662Z" fill="rgb(91, 22, 103)"/><path d="M145.66129032258064,147.8684210526316h9.677419354838719v21.05263157894734h-9.677419354838719Z" fill="rgb(91, 22, 103)"/><path d="M242.43548387096772,84.71052631578947h9.677419354838747v21.0526315789474h-9.677419354838747Z" fill="rgb(91, 22, 103)"/><path d="M145.66129032258064,189.97368421052633h9.677419354838719v21.0526315789474h-9.677419354838719Z" fill="rgb(91, 22, 103)"/><path d="M145.66129032258064,21.55263157894739h9.677419354838719v21.05263157894734h-9.677419354838719Z" fill="rgb(91, 22, 103)"/><path d="M242.43548387096772,0.5h9.677419354838747v21.05263157894739h-9.677419354838747Z" fill="rgb(91, 22, 103)"/><path d="M184.3709677419355,189.97368421052633h9.67741935483869v21.0526315789474h-9.67741935483869Z" fill="rgb(91, 22, 103)"/><path d="M329.5322580645161,126.8157894736842h9.677419354838776v21.052631578947384h-9.677419354838776Z" fill="rgb(91, 22, 103)"/><path d="M377.9193548387097,105.76315789473686h9.677419354838662v21.05263157894734h-9.677419354838662Z" fill="rgb(91, 22, 103)"/><path d="M426.30645161290323,84.71052631578947h9.677419354838719v21.0526315789474h-9.677419354838719Z" fill="rgb(91, 22, 103)"/><path d="M184.3709677419355,63.657894736842124h9.67741935483869v21.05263157894734h-9.67741935483869Z" fill="rgb(91, 22, 103)"/><path d="M281.14516129032256,42.60526315789473h9.677419354838719v21.05263157894739h-9.677419354838719Z" fill="rgb(91, 22, 103)"/><path d="M377.9193548387097,21.55263157894739h9.677419354838662v21.05263157894734h-9.677419354838662Z" fill="rgb(91, 22, 103)"/><path d="M358.56451612903226,42.60526315789473h9.677419354838719v21.05263157894739h-9.677419354838719Z" fill="rgb(91, 22, 103)"/><path d="M329.5322580645161,253.1315789473684h9.677419354838776v21.05263157894737h-9.677419354838776Z" fill="rgb(91, 22, 103)"/><path d="M290.8225806451613,126.8157894736842h9.677419354838719v21.052631578947384h-9.677419354838719Z" fill="rgb(91, 22, 103)"/><path d="M377.9193548387097,126.8157894736842h9.677419354838662v21.052631578947384h-9.677419354838662Z" fill="rgb(91, 22, 103)"/><path d="M310.1774193548387,63.657894736842124h9.677419354838662v21.05263157894734h-9.677419354838662Z" fill="rgb(91, 22, 103)"/><path d="M494.0483870967742,63.657894736842124h9.677419354838719v21.05263157894734h-9.677419354838719Z" fill="rgb(91, 22, 103)"/></g><g class="mark-group role-legend" role="graphics-symbol" aria-roledescription="legend" aria-label="Gradient legend titled 'Number of Countries' for fill color with values from 1 to 39"><g transform="translate(618,0)"><path class="background" aria-hidden="true" d="M0,0h120v217h-120Z" pointer-events="none"/><g><g class="mark-group role-legend-entry"><g transform="translate(0,17)"><path class="background" aria-hidden="true" d="M0,0h0v0h0Z" pointer-events="none"/><g><g class="mark-rect role-legend-gradient" pointer-events="none"><path d="M0,0h16v200h-16Z" fill="url(#gradient_1)" stroke="#ddd" stroke-width="0" opacity="1"/></g><g class="mark-text role-legend-label" pointer-events="none"><text text-anchor="start" transform="translate(18,155.63157894736844)" font-family="Arial" font-size="10px" fill="#000" opacity="1">10</text><text text-anchor="start" transform="translate(18,103)" font-family="Arial" font-size="10px" fill="#000" opacity="1">20</text><text text-anchor="start" transform="translate(18,50.36842105263157)" font-family="Arial" font-size="10px" fill="#000" opacity="1">30</text></g></g><path class="foreground" aria-hidden="true" d="" pointer-events="none" display="none"/></g></g><g class="mark-text role-legend-title" pointer-events="none"><text text-anchor="start" transform="translate(0,9)" font-family="Arial" font-size="12px" font-weight="bold" fill="#000" opacity="1">Number of Countries</text></g></g><path class="foreground" aria-hidden="true" d="" pointer-events="none" display="none"/></g></g><g class="mark-group role-title"><g transform="translate(-45.021484375,-26)"><path class="background" aria-hidden="true" d="M0,0h0v0h0Z" pointer-events="none"/><g><g class="mark-text role-title-text" role="graphics-symbol" aria-roledescription="title" aria-label="Title text 'Literacy rate, adult total (% of people ages 15 and above)'" pointer-events="none"><text text-anchor="start" transform="translate(0,13)" font-family="Helvetica" font-size="16px" font-weight="bold" fill="#333333" opacity="1">Literacy rate, adult total (% of people ages 15 and above)</text></g></g><path class="foreground" aria-hidden="true" d="" pointer-events="none" display="none"/></g></g><g class="mark-group role-axis" role="graphics-symbol" aria-roledescription="axis" aria-label="X-axis titled 'Year (binned)' for a linear scale with values from 1,960 to 2,022"><g transform="translate(0.5,400.5)"><path class="background" aria-hidden="true" d="M0,0h0v0h0Z" pointer-events="none"/><g><g class="mark-rule role-axis-tick" pointer-events="none"><line transform="translate(0,0)" x2="0" y2="5" stroke="#888" stroke-width="1" opacity="1"/><line transform="translate(10,0)" x2="0" y2="5" stroke="#888" stroke-width="1" opacity="1"/><line transform="translate(19,0)" x2="0" y2="5" stroke="#888" stroke-width="1" opacity="1"/><line transform="translate(29,0)" x2="0" y2="5" stroke="#888" stroke-width="1" opacity="1"/><line transform="translate(39,0)" x2="0" y2="5" stroke="#888" stroke-width="1" opacity="1"/><line transform="translate(48,0)" x2="0" y2="5" stroke="#888" stroke-width="1" opacity="1"/><line transform="translate(58,0)" x2="0" y2="5" stroke="#888" stroke-width="1" opacity="1"/><line transform="translate(68,0)" x2="0" y2="5" stroke="#888" stroke-width="1" opacity="1"/><line transform="translate(77,0)" x2="0" y2="5" stroke="#888" stroke-width="1" opacity="1"/><line transform="translate(87,0)" x2="0" y2="5" stroke="#888" stroke-width="1" opacity="1"/><line transform="translate(97,0)" x2="0" y2="5" stroke="#888" stroke-width="1" opacity="1"/><line transform="translate(106,0)" x2="0" y2="5" stroke="#888" stroke-width="1" opacity="1"/><line transform="translate(116,0)" x2="0" y2="5" stroke="#888" stroke-width="1" opacity="1"/><line transform="translate(126,0)" x2="0" y2="5" stroke="#888" stroke-width="1" opacity="1"/><line transform="translate(135,0)" x2="0" y2="5" stroke="#888" stroke-width="1" opacity="1"/><line transform="translate(145,0)" x2="0" y2="5" stroke="#888" stroke-width="1" opacity="1"/><line transform="translate(155,0)" x2="0" y2="5" stroke="#888" stroke-width="1" opacity="1"/><line transform="translate(165,0)" x2="0" y2="5" stroke="#888" stroke-width="1" opacity="1"/><line transform="translate(174,0)" x2="0" y2="5" stroke="#888" stroke-width="1" opacity="1"/><line transform="translate(184,0)" x2="0" y2="5" stroke="#888" stroke-width="1" opacity="1"/><line transform="translate(194,0)" x2="0" y2="5" stroke="#888" stroke-width="1" opacity="1"/><line transform="translate(203,0)" x2="0" y2="5" stroke="#888" stroke-width="1" opacity="1"/><line transform="translate(213,0)" x2="0" y2="5" stroke="#888" stroke-width="1" opacity="1"/><line transform="translate(223,0)" x2="0" y2="5" stroke="#888" stroke-width="1" opacity="1"/><line transform="translate(232,0)" x2="0" y2="5" stroke="#888" stroke-width="1" opacity="1"/><line transform="translate(242,0)" x2="0" y2="5" stroke="#888" stroke-width="1" opacity="1"/><line transform="translate(252,0)" x2="0" y2="5" stroke="#888" stroke-width="1" opacity="1"/><line transform="translate(261,0)" x2="0" y2="5" stroke="#888" stroke-width="1" opacity="1"/><line transform="translate(271,0)" x2="0" y2="5" stroke="#888" stroke-width="1" opacity="1"/><line transform="translate(281,0)" x2="0" y2="5" stroke="#888" stroke-width="1" opacity="1"/><line transform="translate(290,0)" x2="0" y2="5" stroke="#888" stroke-width="1" opacity="1"/><line transform="translate(300,0)" x2="0" y2="5" stroke="#888" stroke-width="1" opacity="1"/><line transform="translate(310,0)" x2="0" y2="5" stroke="#888" stroke-width="1" opacity="1"/><line transform="translate(319,0)" x2="0" y2="5" stroke="#888" stroke-width="1" opacity="1"/><line transform="translate(329,0)" x2="0" y2="5" stroke="#888" stroke-width="1" opacity="1"/><line transform="translate(339,0)" x2="0" y2="5" stroke="#888" stroke-width="1" opacity="1"/><line transform="translate(348,0)" x2="0" y2="5" stroke="#888" stroke-width="1" opacity="1"/><line transform="translate(358,0)" x2="0" y2="5" stroke="#888" stroke-width="1" opacity="1"/><line transform="translate(368,0)" x2="0" y2="5" stroke="#888" stroke-width="1" opacity="1"/><line transform="translate(377,0)" x2="0" y2="5" stroke="#888" stroke-width="1" opacity="1"/><line transform="translate(387,0)" x2="0" y2="5" stroke="#888" stroke-width="1" opacity="1"/><line transform="translate(397,0)" x2="0" y2="5" stroke="#888" stroke-width="1" opacity="1"/><line transform="translate(406,0)" x2="0" y2="5" stroke="#888" stroke-width="1" opacity="1"/><line transform="translate(416,0)" x2="0" y2="5" stroke="#888" stroke-width="1" opacity="1"/><line transform="translate(426,0)" x2="0" y2="5" stroke="#888" stroke-width="1" opacity="1"/><line transform="translate(435,0)" x2="0" y2="5" stroke="#888" stroke-width="1" opacity="1"/><line transform="translate(445,0)" x2="0" y2="5" stroke="#888" stroke-width="1" opacity="1"/><line transform="translate(455,0)" x2="0" y2="5" stroke="#888" stroke-width="1" opacity="1"/><line transform="translate(465,0)" x2="0" y2="5" stroke="#888" stroke-width="1" opacity="1"/><line transform="translate(474,0)" x2="0" y2="5" stroke="#888" stroke-width="1" opacity="1"/><line transform="translate(484,0)" x2="0" y2="5" stroke="#888" stroke-width="1" opacity="1"/><line transform="translate(494,0)" x2="0" y2="5" stroke="#888" stroke-width="1" opacity="1"/><line transform="translate(503,0)" x2="0" y2="5" stroke="#888" stroke-width="1" opacity="1"/><line transform="translate(513,0)" x2="0" y2="5" stroke="#888" stroke-width="1" opacity="1"/><line transform="translate(523,0)" x2="0" y2="5" stroke="#888" stroke-width="1" opacity="1"/><line transform="translate(532,0)" x2="0" y2="5" stroke="#888" stroke-width="1" opacity="1"/><line transform="translate(542,0)" x2="0" y2="5" stroke="#888" stroke-width="1" opacity="1"/><line transform="translate(552,0)" x2="0" y2="5" stroke="#888" stroke-width="1" opacity="1"/><line transform="translate(561,0)" x2="0" y2="5" stroke="#888" stroke-width="1" opacity="1"/><line transform="translate(571,0)" x2="0" y2="5" stroke="#888" stroke-width="1" opacity="1"/><line transform="translate(581,0)" x2="0" y2="5" stroke="#888" stroke-width="1" opacity="1"/><line transform="translate(590,0)" x2="0" y2="5" stroke="#888" stroke-width="1" opacity="1"/><line transform="translate(600,0)" x2="0" y2="5" stroke="#888" stroke-width="1" opacity="1"/></g><g class="mark-text role-axis-label" pointer-events="none"><text text-anchor="start" transform="translate(0,16)" font-family="Arial" font-size="12px" fill="#333333" opacity="1">1,960</text><text text-anchor="middle" transform="translate(9.67741935483871,16)" font-family="Arial" font-size="12px" fill="#333333" opacity="0">1,961</text><text text-anchor="middle" transform="translate(19.35483870967742,16)" font-family="Arial" font-size="12px" fill="#333333" opacity="0">1,962</text><text text-anchor="middle" transform="translate(29.032258064516128,16)" font-family="Arial" font-size="12px" fill="#333333" opacity="0">1,963</text><text text-anchor="middle" transform="translate(38.70967741935484,16)" font-family="Arial" font-size="12px" fill="#333333" opacity="0">1,964</text><text text-anchor="middle" transform="translate(48.387096774193544,16)" font-family="Arial" font-size="12px" fill="#333333" opacity="0">1,965</text><text text-anchor="middle" transform="translate(58.064516129032256,16)" font-family="Arial" font-size="12px" fill="#333333" opacity="0">1,966</text><text text-anchor="middle" transform="translate(67.74193548387096,16)" font-family="Arial" font-size="12px" fill="#333333" opacity="0">1,967</text><text text-anchor="middle" transform="translate(77.41935483870968,16)" font-family="Arial" font-size="12px" fill="#333333" opacity="1">1,968</text><text text-anchor="middle" transform="translate(87.0967741935484,16)" font-family="Arial" font-size="12px" fill="#333333" opacity="0">1,969</text><text text-anchor="middle" transform="translate(96.77419354838709,16)" font-family="Arial" font-size="12px" fill="#333333" opacity="0">1,970</text><text text-anchor="middle" transform="translate(106.45161290322581,16)" font-family="Arial" font-size="12px" fill="#333333" opacity="0">1,971</text><text text-anchor="middle" transform="translate(116.12903225806451,16)" font-family="Arial" font-size="12px" fill="#333333" opacity="0">1,972</text><text text-anchor="middle" transform="translate(125.80645161290323,16)" font-family="Arial" font-size="12px" fill="#333333" opacity="0">1,973</text><text text-anchor="middle" transform="translate(135.48387096774192,16)" font-family="Arial" font-size="12px" fill="#333333" opacity="0">1,974</text><text text-anchor="middle" transform="translate(145.16129032258064,16)" font-family="Arial" font-size="12px" fill="#333333" opacity="0">1,975</text><text text-anchor="middle" transform="translate(154.83870967741936,16)" font-family="Arial" font-size="12px" fill="#333333" opacity="1">1,976</text><text text-anchor="middle" transform="translate(164.51612903225805,16)" font-family="Arial" font-size="12px" fill="#333333" opacity="0">1,977</text><text text-anchor="middle" transform="translate(174.1935483870968,16)" font-family="Arial" font-size="12px" fill="#333333" opacity="0">1,978</text><text text-anchor="middle" transform="translate(183.8709677419355,16)" font-family="Arial" font-size="12px" fill="#333333" opacity="0">1,979</text><text text-anchor="middle" transform="translate(193.54838709677418,16)" font-family="Arial" font-size="12px" fill="#333333" opacity="0">1,980</text><text text-anchor="middle" transform="translate(203.2258064516129,16)" font-family="Arial" font-size="12px" fill="#333333" opacity="0">1,981</text><text text-anchor="middle" transform="translate(212.90322580645162,16)" font-family="Arial" font-size="12px" fill="#333333" opacity="0">1,982</text><text text-anchor="middle" transform="translate(222.58064516129033,16)" font-family="Arial" font-size="12px" fill="#333333" opacity="0">1,983</text><text text-anchor="middle" transform="translate(232.25806451612902,16)" font-family="Arial" font-size="12px" fill="#333333" opacity="1">1,984</text><text text-anchor="middle" transform="translate(241.93548387096772,16)" font-family="Arial" font-size="12px" fill="#333333" opacity="0">1,985</text><text text-anchor="middle" transform="translate(251.61290322580646,16)" font-family="Arial" font-size="12px" fill="#333333" opacity="0">1,986</text><text text-anchor="middle" transform="translate(261.2903225806452,16)" font-family="Arial" font-size="12px" fill="#333333" opacity="0">1,987</text><text text-anchor="middle" transform="translate(270.96774193548384,16)" font-family="Arial" font-size="12px" fill="#333333" opacity="0">1,988</text><text text-anchor="middle" transform="translate(280.64516129032256,16)" font-family="Arial" font-size="12px" fill="#333333" opacity="0">1,989</text><text text-anchor="middle" transform="translate(290.3225806451613,16)" font-family="Arial" font-size="12px" fill="#333333" opacity="0">1,990</text><text text-anchor="middle" transform="translate(300,16)" font-family="Arial" font-size="12px" fill="#333333" opacity="0">1,991</text><text text-anchor="middle" transform="translate(309.6774193548387,16)" font-family="Arial" font-size="12px" fill="#333333" opacity="1">1,992</text><text text-anchor="middle" transform="translate(319.3548387096774,16)" font-family="Arial" font-size="12px" fill="#333333" opacity="0">1,993</text><text text-anchor="middle" transform="translate(329.0322580645161,16)" font-family="Arial" font-size="12px" fill="#333333" opacity="0">1,994</text><text text-anchor="middle" transform="translate(338.7096774193549,16)" font-family="Arial" font-size="12px" fill="#333333" opacity="0">1,995</text><text text-anchor="middle" transform="translate(348.3870967741936,16)" font-family="Arial" font-size="12px" fill="#333333" opacity="0">1,996</text><text text-anchor="middle" transform="translate(358.06451612903226,16)" font-family="Arial" font-size="12px" fill="#333333" opacity="0">1,997</text><text text-anchor="middle" transform="translate(367.741935483871,16)" font-family="Arial" font-size="12px" fill="#333333" opacity="0">1,998</text><text text-anchor="middle" transform="translate(377.4193548387097,16)" font-family="Arial" font-size="12px" fill="#333333" opacity="0">1,999</text><text text-anchor="middle" transform="translate(387.09677419354836,16)" font-family="Arial" font-size="12px" fill="#333333" opacity="1">2,000</text><text text-anchor="middle" transform="translate(396.7741935483871,16)" font-family="Arial" font-size="12px" fill="#333333" opacity="0">2,001</text><text text-anchor="middle" transform="translate(406.4516129032258,16)" font-family="Arial" font-size="12px" fill="#333333" opacity="0">2,002</text><text text-anchor="middle" transform="translate(416.12903225806457,16)" font-family="Arial" font-size="12px" fill="#333333" opacity="0">2,003</text><text text-anchor="middle" transform="translate(425.80645161290323,16)" font-family="Arial" font-size="12px" fill="#333333" opacity="0">2,004</text><text text-anchor="middle" transform="translate(435.48387096774195,16)" font-family="Arial" font-size="12px" fill="#333333" opacity="0">2,005</text><text text-anchor="middle" transform="translate(445.16129032258067,16)" font-family="Arial" font-size="12px" fill="#333333" opacity="0">2,006</text><text text-anchor="middle" transform="translate(454.83870967741933,16)" font-family="Arial" font-size="12px" fill="#333333" opacity="0">2,007</text><text text-anchor="middle" transform="translate(464.51612903225805,16)" font-family="Arial" font-size="12px" fill="#333333" opacity="1">2,008</text><text text-anchor="middle" transform="translate(474.19354838709677,16)" font-family="Arial" font-size="12px" fill="#333333" opacity="0">2,009</text><text text-anchor="middle" transform="translate(483.87096774193543,16)" font-family="Arial" font-size="12px" fill="#333333" opacity="0">2,010</text><text text-anchor="middle" transform="translate(493.5483870967742,16)" font-family="Arial" font-size="12px" fill="#333333" opacity="0">2,011</text><text text-anchor="middle" transform="translate(503.2258064516129,16)" font-family="Arial" font-size="12px" fill="#333333" opacity="0">2,012</text><text text-anchor="middle" transform="translate(512.9032258064516,16)" font-family="Arial" font-size="12px" fill="#333333" opacity="0">2,013</text><text text-anchor="middle" transform="translate(522.5806451612904,16)" font-family="Arial" font-size="12px" fill="#333333" opacity="0">2,014</text><text text-anchor="middle" transform="translate(532.258064516129,16)" font-family="Arial" font-size="12px" fill="#333333" opacity="0">2,015</text><text text-anchor="middle" transform="translate(541.9354838709677,16)" font-family="Arial" font-size="12px" fill="#333333" opacity="1">2,016</text><text text-anchor="middle" transform="translate(551.6129032258065,16)" font-family="Arial" font-size="12px" fill="#333333" opacity="0">2,017</text><text text-anchor="middle" transform="translate(561.2903225806451,16)" font-family="Arial" font-size="12px" fill="#333333" opacity="0">2,018</text><text text-anchor="middle" transform="translate(570.9677419354839,16)" font-family="Arial" font-size="12px" fill="#333333" opacity="0">2,019</text><text text-anchor="middle" transform="translate(580.6451612903226,16)" font-family="Arial" font-size="12px" fill="#333333" opacity="0">2,020</text><text text-anchor="middle" transform="translate(590.3225806451613,16)" font-family="Arial" font-size="12px" fill="#333333" opacity="0">2,021</text><text text-anchor="end" transform="translate(600,16)" font-family="Arial" font-size="12px" fill="#333333" opacity="0">2,022</text></g><g class="mark-rule role-axis-domain" pointer-events="none"><line transform="translate(0,0)" x2="600" y2="0" stroke="#888" stroke-width="1" opacity="1"/></g><g class="mark-text role-axis-title" pointer-events="none"><text text-anchor="middle" transform="translate(300,33)" font-family="Arial" font-size="14px" font-weight="bold" fill="#333333" opacity="1">Year (binned)</text></g></g><path class="foreground" aria-hidden="true" d="" pointer-events="none" display="none"/></g></g><g class="mark-group role-axis" role="graphics-symbol" aria-roledescription="axis" aria-label="Y-axis titled '% Population' for a linear scale with values from 5 to 100"><g transform="translate(0.5,0.5)"><path class="background" aria-hidden="true" d="M0,0h0v0h0Z" pointer-events="none"/><g><g class="mark-rule role-axis-tick" pointer-events="none"><line transform="translate(0,400)" x2="-5" y2="0" stroke="#888" stroke-width="1" opacity="1"/><line transform="translate(0,379)" x2="-5" y2="0" stroke="#888" stroke-width="1" opacity="1"/><line transform="translate(0,358)" x2="-5" y2="0" stroke="#888" stroke-width="1" opacity="1"/><line transform="translate(0,337)" x2="-5" y2="0" stroke="#888" stroke-width="1" opacity="1"/><line transform="translate(0,316)" x2="-5" y2="0" stroke="#888" stroke-width="1" opacity="1"/><line transform="translate(0,295)" x2="-5" y2="0" stroke="#888" stroke-width="1" opacity="1"/><line transform="translate(0,274)" x2="-5" y2="0" stroke="#888" stroke-width="1" opacity="1"/><line transform="translate(0,253)" x2="-5" y2="0" stroke="#888" stroke-width="1" opacity="1"/><line transform="translate(0,232)" x2="-5" y2="0" stroke="#888" stroke-width="1" opacity="1"/><line transform="translate(0,211)" x2="-5" y2="0" stroke="#888" stroke-width="1" opacity="1"/><line transform="translate(0,189)" x2="-5" y2="0" stroke="#888" stroke-width="1" opacity="1"/><line transform="translate(0,168)" x2="-5" y2="0" stroke="#888" stroke-width="1" opacity="1"/><line transform="translate(0,147)" x2="-5" y2="0" stroke="#888" stroke-width="1" opacity="1"/><line transform="translate(0,126)" x2="-5" y2="0" stroke="#888" stroke-width="1" opacity="1"/><line transform="translate(0,105)" x2="-5" y2="0" stroke="#888" stroke-width="1" opacity="1"/><line transform="translate(0,84)" x2="-5" y2="0" stroke="#888" stroke-width="1" opacity="1"/><line transform="translate(0,63)" x2="-5" y2="0" stroke="#888" stroke-width="1" opacity="1"/><line transform="translate(0,42)" x2="-5" y2="0" stroke="#888" stroke-width="1" opacity="1"/><line transform="translate(0,21)" x2="-5" y2="0" stroke="#888" stroke-width="1" opacity="1"/><line transform="translate(0,0)" x2="-5" y2="0" stroke="#888" stroke-width="1" opacity="1"/></g><g class="mark-text role-axis-label" pointer-events="none"><text text-anchor="end" transform="translate(-7,404)" font-family="Arial" font-size="12px" fill="#333333" opacity="1">5</text><text text-anchor="end" transform="translate(-7,382.94736842105266)" font-family="Arial" font-size="12px" fill="#333333" opacity="1">10</text><text text-anchor="end" transform="translate(-7,361.89473684210526)" font-family="Arial" font-size="12px" fill="#333333" opacity="1">15</text><text text-anchor="end" transform="translate(-7,340.84210526315786)" font-family="Arial" font-size="12px" fill="#333333" opacity="1">20</text><text text-anchor="end" transform="translate(-7,319.7894736842105)" font-family="Arial" font-size="12px" fill="#333333" opacity="1">25</text><text text-anchor="end" transform="translate(-7,298.7368421052632)" font-family="Arial" font-size="12px" fill="#333333" opacity="1">30</text><text text-anchor="end" transform="translate(-7,277.6842105263158)" font-family="Arial" font-size="12px" fill="#333333" opacity="1">35</text><text text-anchor="end" transform="translate(-7,256.63157894736844)" font-family="Arial" font-size="12px" fill="#333333" opacity="1">40</text><text text-anchor="end" transform="translate(-7,235.57894736842107)" font-family="Arial" font-size="12px" fill="#333333" opacity="1">45</text><text text-anchor="end" transform="translate(-7,214.52631578947373)" font-family="Arial" font-size="12px" fill="#333333" opacity="1">50</text><text text-anchor="end" transform="translate(-7,193.47368421052633)" font-family="Arial" font-size="12px" fill="#333333" opacity="1">55</text><text text-anchor="end" transform="translate(-7,172.42105263157893)" font-family="Arial" font-size="12px" fill="#333333" opacity="1">60</text><text text-anchor="end" transform="translate(-7,151.3684210526316)" font-family="Arial" font-size="12px" fill="#333333" opacity="1">65</text><text text-anchor="end" transform="translate(-7,130.31578947368422)" font-family="Arial" font-size="12px" fill="#333333" opacity="1">70</text><text text-anchor="end" transform="translate(-7,109.26315789473686)" font-family="Arial" font-size="12px" fill="#333333" opacity="1">75</text><text text-anchor="end" transform="translate(-7,88.21052631578947)" font-family="Arial" font-size="12px" fill="#333333" opacity="1">80</text><text text-anchor="end" transform="translate(-7,67.15789473684212)" font-family="Arial" font-size="12px" fill="#333333" opacity="1">85</text><text text-anchor="end" transform="translate(-7,46.10526315789473)" font-family="Arial" font-size="12px" fill="#333333" opacity="1">90</text><text text-anchor="end" transform="translate(-7,25.05263157894739)" font-family="Arial" font-size="12px" fill="#333333" opacity="1">95</text><text text-anchor="end" transform="translate(-7,4)" font-family="Arial" font-size="12px" fill="#333333" opacity="1">100</text></g><g class="mark-rule role-axis-domain" pointer-events="none"><line transform="translate(0,400)" x2="0" y2="-400" stroke="#888" stroke-width="1" opacity="1"/></g><g class="mark-text role-axis-title" pointer-events="none"><text text-anchor="middle" transform="translate(-31.021484375,200) rotate(-90) translate(0,-3)" font-family="Arial" font-size="14px" font-weight="bold" fill="#333333" opacity="1">% Population</text></g></g><path class="foreground" aria-hidden="true" d="" pointer-events="none" display="none"/></g></g></g><path class="foreground" aria-hidden="true" d="" display="none"/></g></g></g><defs><linearGradient id="gradient_1" x1="0" x2="0" y1="1" y2="0"><stop offset="0" stop-color="rgb(91, 22, 103)"/><stop offset="0.02631578947368421" stop-color="rgb(102, 35, 114)"/><stop offset="0.07894736842105263" stop-color="rgb(123, 61, 137)"/><stop offset="0.13157894736842105" stop-color="rgb(142, 89, 157)"/><stop offset="0.18421052631578946" stop-color="rgb(160, 118, 176)"/><stop offset="0.23684210526315788" stop-color="rgb(179, 144, 193)"/><stop offset="0.2894736842105263" stop-color="rgb(197, 169, 208)"/><stop offset="0.34210526315789475" stop-color="rgb(213, 191, 220)"/><stop offset="0.39473684210526316" stop-color="rgb(228, 212, 231)"/><stop offset="0.4473684210526316" stop-color="rgb(234, 226, 235)"/><stop offset="0.5" stop-color="rgb(239, 240, 239)"/><stop offset="0.5526315789473685" stop-color="rgb(227, 239, 225)"/><stop offset="0.6052631578947368" stop-color="rgb(215, 238, 211)"/><stop offset="0.6578947368421053" stop-color="rgb(192, 229, 188)"/><stop offset="0.7105263157894737" stop-color="rgb(168, 217, 164)"/><stop offset="0.7631578947368421" stop-color="rgb(135, 200, 136)"/><stop offset="0.8157894736842105" stop-color="rgb(104, 180, 110)"/><stop offset="0.868421052631579" stop-color="rgb(73, 156, 87)"/><stop offset="0.9210526315789473" stop-color="rgb(46, 132, 66)"/><stop offset="0.9736842105263158" stop-color="rgb(25, 107, 49)"/><stop offset="1" stop-color="rgb(14, 94, 41)"/></linearGradient></defs></svg>