<svg xmlns="http://www.w3.org/2000/svg" xmlns:xlink="http://www.w3.org/1999/xlink" version="1.1" class="marks" width="814" height="872" viewBox="0 0 814 872"><rect width="814" height="872" fill="white"/><g fill="none" stroke-miterlimit="10" transform="translate(44,31)"><g class="mark-group role-frame root" role="graphics-object" aria-roledescription="group mark container"><g transform="translate(0,0)"><path class="background" aria-hidden="true" d="M0.5,0.5h600v800h-600Z" stroke="#ddd"/><g><g class="mark-group role-axis" aria-hidden="true"><g transform="translate(0.5,800.5)"><path class="background" aria-hidden="true" d="M0,0h0v0h0Z" pointer-events="none"/><g><g class="mark-rule role-axis-grid" pointer-events="none"><line transform="translate(19,-800)" x2="0" y2="800" stroke="#ddd" stroke-width="1" opacity="1"/><line transform="translate(56,-800)" x2="0" y2="800" stroke="#ddd" stroke-width="1" opacity="1"/><line transform="translate(94,-800)" x2="0" y2="800" stroke="#ddd" stroke-width="1" opacity="1"/><line transform="translate(131,-800)" x2="0" y2="800" stroke="#ddd" stroke-width="1" opacity="1"/><line transform="translate(169,-800)" x2="0" y2="800" stroke="#ddd" stroke-width="1" opacity="1"/><line transform="translate(206,-800)" x2="0" y2="800" stroke="#ddd" stroke-width="1" opacity="1"/><line transform="translate(244,-800)" x2="0" y2="800" stroke="#ddd" stroke-width="1" opacity="1"/><line transform="translate(281,-800)" x2="0" y2="800" stroke="#ddd" stroke-width="1" opacity="1"/><line transform="translate(319,-800)" x2="0" y2="800" stroke="#ddd" stroke-width="1" opacity="1"/><line transform="translate(356,-800)" x2="0" y2="800" stroke="#ddd" stroke-width="1" opacity="1"/><line transform="translate(394,-800)" x2="0" y2="800" stroke="#ddd" stroke-width="1" opacity="1"/><line transform="translate(431,-800)" x2="0" y2="800" stroke="#ddd" stroke-width="1" opacity="1"/><line transform="translate(469,-800)" x2="0" y2="800" stroke="#ddd" stroke-width="1" opacity="1"/><line transform="translate(506,-800)" x2="0" y2="800" stroke="#ddd" stroke-width="1" opacity="1"/><line transform="translate(544,-800)" x2="0" y2="800" stroke="#ddd" stroke-width="1" opacity="1"/><line transform="translate(581,-800)" x2="0" y2="800" stroke="#ddd" stroke-width="1" opacity="1"/></g></g><path class="foreground" aria-hidden="true" d="" pointer-events="none" display="none"/></g></g><g class="mark-group role-axis" aria-hidden="true"><g transform="translate(0.5,0.5)"><path class="background" aria-hidden="true" d="M0,0h0v0h0Z" pointer-events="none"/><g><g class="mark-rule role-axis-grid" pointer-events="none"><line transform="translate(0,800)" x2="600" y2="0" stroke="#ddd" stroke-width="1" opacity="1"/><line transform="translate(0,773)" x2="600" y2="0" stroke="#ddd" stroke-width="1" opacity="1"/><line transform="translate(0,747)" x2="600" y2="0" stroke="#ddd" stroke-width="1" opacity="1"/><line transform="translate(0,720)" x2="600" y2="0" stroke="#ddd" stroke-width="1" opacity="1"/><line transform="translate(0,693)" x2="600" y2="0" stroke="#ddd" stroke-width="1" opacity="1"/><line transform="translate(0,667)" x2="600" y2="0" stroke="#ddd" stroke-width="1" opacity="1"/><line transform="translate(0,640)" x2="600" y2="0" stroke="#ddd" stroke-width="1" opacity="1"/><line transform="translate(0,613)" x2="600" y2="0" stroke="#ddd" stroke-width="1" opacity="1"/><line transform="translate(0,587)" x2="600" y2="0" stroke="#ddd" stroke-width="1" opacity="1"/><line transform="translate(0,560)" x2="600" y2="0" stroke="#ddd" stroke-width="1" opacity="1"/><line transform="translate(0,533)" x2="600" y2="0" stroke="#ddd" stroke-width="1" opacity="1"/><line transform="translate(0,507)" x2="600" y2="0" stroke="#ddd" stroke-width="1" opacity="1"/><line transform="translate(0,480)" x2="600" y2="0" stroke="#ddd" stroke-width="1" opacity="1"/><line transform="translate(0,453)" x2="600" y2="0" stroke="#ddd" stroke-width="1" opacity="1"/><line transform="translate(0,427)" x2="600" y2="0" stroke="#ddd" stroke-width="1" opacity="1"/><line transform="translate(0,400)" x2="600" y2="0" stroke="#ddd" stroke-width="1" opacity="1"/><line transform="translate(0,373)" x2="600" y2="0" stroke="#ddd" stroke-width="1" opacity="1"/><line transform="translate(0,347)" x2="600" y2="0" stroke="#ddd" stroke-width="1" opacity="1"/><line transform="translate(0,320)" x2="600" y2="0" stroke="#ddd" stroke-width="1" opacity="1"/><line transform="translate(0,293)" x2="600" y2="0" stroke="#ddd" stroke-width="1" opacity="1"/><line transform="translate(0,267)" x2="600" y2="0" stroke="#ddd" stroke-width="1" opacity="1"/><line transform="translate(0,240)" x2="600" y2="0" stroke="#ddd" stroke-width="1" opacity="1"/><line transform="translate(0,213)" x2="600" y2="0" stroke="#ddd" stroke-width="1" opacity="1"/><line transform="translate(0,187)" x2="600" y2="0" stroke="#ddd" stroke-width="1" opacity="1"/><line transform="translate(0,160)" x2="600" y2="0" stroke="#ddd" stroke-width="1" opacity="1"/><line transform="translate(0,133)" x2="600" y2="0" stroke="#ddd" stroke-width="1" opacity="1"/><line transform="translate(0,107)" x2="600" y2="0" stroke="#ddd" stroke-width="1" opacity="1"/><line transform="translate(0,80)" x2="600" y2="0" stroke="#ddd" stroke-width="1" opacity="1"/><line transform="translate(0,53)" x2="600" y2="0" stroke="#ddd" stroke-width="1" opacity="1"/><line transform="translate(0,27)" x2="600" y2="0" stroke="#ddd" stroke-width="1" opacity="1"/><line transform="translate(0,0)" x2="600" y2="0" stroke="#ddd" stroke-width="1" opacity="1"/></g></g><path class="foreground" aria-hidden="true" d="" pointer-events="none" display="none"/></g></g><g class="mark-group role-axis" role="graphics-symbol" aria-roledescription="axis" aria-label="X-axis titled 'Year' for a time scale with values from Tuesday, 01 January 1991, 12:00:00 AM to Sunday, 01 January 2023, 12:00:00 AM"><g transform="translate(0.5,800.5)"><path class="background" aria-hidden="true" d="M0,0h0v0h0Z" pointer-events="none"/><g><g class="mark-rule role-axis-tick" pointer-events="none"><line transform="translate(19,0)" x2="0" y2="5" stroke="#888" stroke-width="1" opacity="1"/><line transform="translate(56,0)" x2="0" y2="5" stroke="#888" stroke-width="1" opacity="1"/><line transform="translate(94,0)" x2="0" y2="5" stroke="#888" stroke-width="1" opacity="1"/><line transform="translate(131,0)" x2="0" y2="5" stroke="#888" stroke-width="1" opacity="1"/><line transform="translate(169,0)" x2="0" y2="5" stroke="#888" stroke-width="1" opacity="1"/><line transform="translate(206,0)" x2="0" y2="5" stroke="#888" stroke-width="1" opacity="1"/><line transform="translate(244,0)" x2="0" y2="5" stroke="#888" stroke-width="1" opacity="1"/><line transform="translate(281,0)" x2="0" y2="5" stroke="#888" stroke-width="1" opacity="1"/><line transform="translate(319,0)" x2="0" y2="5" stroke="#888" stroke-width="1" opacity="1"/><line transform="translate(356,0)" x2="0" y2="5" stroke="#888" stroke-width="1" opacity="1"/><line transform="translate(394,0)" x2="0" y2="5" stroke="#888" stroke-width="1" opacity="1"/><line transform="translate(431,0)" x2="0" y2="5" stroke="#888" stroke-width="1" opacity="1"/><line transform="translate(469,0)" x2="0" y2="5" stroke="#888" stroke-width="1" opacity="1"/><line transform="translate(506,0)" x2="0" y2="5" stroke="#888" stroke-width="1" opacity="1"/><line transform="translate(544,0)" x2="0" y2="5" stroke="#888" stroke-width="1" opacity="1"/><line transform="translate(581,0)" x2="0" y2="5" stroke="#888" stroke-width="1" opacity="1"/></g><g class="mark-text role-axis-label" pointer-events="none"><text text-anchor="middle" transform="translate(18.737166324435318,16)" font-family="Arial" font-size="12px" fill="#333333" opacity="1">1992</text><text text-anchor="middle" transform="translate(56.262833675564686,16)" font-family="Arial" font-size="12px" fill="#333333" opacity="1">1994</text><text text-anchor="middle" transform="translate(93.73716632443532,16)" font-family="Arial" font-size="12px" fill="#333333" opacity="1">1996</text><text text-anchor="middle" transform="translate(131.26283367556468,16)" font-family="Arial" font-size="12px" fill="#333333" opacity="1">1998</text><text text-anchor="middle" transform="translate(168.7371663244353,16)" font-family="Arial" font-size="12px" fill="#333333" opacity="1">2000</text><text text-anchor="middle" transform="translate(206.2628336755647,16)" font-family="Arial" font-size="12px" fill="#333333" opacity="1">2002</text><text text-anchor="middle" transform="translate(243.7371663244353,16)" font-family="Arial" font-size="12px" fill="#333333" opacity="1">2004</text><text text-anchor="middle" transform="translate(281.2628336755647,16)" font-family="Arial" font-size="12px" fill="#333333" opacity="1">2006</text><text text-anchor="middle" transform="translate(318.73716632443535,16)" font-family="Arial" font-size="12px" fill="#333333" opacity="1">2008</text><text text-anchor="middle" transform="translate(356.26283367556465,16)" font-family="Arial" font-size="12px" fill="#333333" opacity="1">2010</text><text text-anchor="middle" transform="translate(393.73716632443535,16)" font-family="Arial" font-size="12px" fill="#333333" opacity="1">2012</text><text text-anchor="middle" transform="translate(431.26283367556465,16)" font-family="Arial" font-size="12px" fill="#333333" opacity="1">2014</text><text text-anchor="middle" transform="translate(468.73716632443535,16)" font-family="Arial" font-size="12px" fill="#333333" opacity="1">2016</text><text text-anchor="middle" transform="translate(506.26283367556465,16)" font-family="Arial" font-size="12px" fill="#333333" opacity="1">2018</text><text text-anchor="middle" transform="translate(543.7371663244353,16)" font-family="Arial" font-size="12px" fill="#333333" opacity="1">2020</text><text text-anchor="middle" transform="translate(581.2628336755647,16)" font-family="Arial" font-size="12px" fill="#333333" opacity="1">2022</text></g><g class="mark-rule role-axis-domain" pointer-events="none"><line transform="translate(0,0)" x2="600" y2="0" stroke="#888" stroke-width="1" opacity="1"/></g><g class="mark-text role-axis-title" pointer-events="none"><text text-anchor="middle" transform="translate(300,33)" font-family="Arial" font-size="14px" font-weight="bold" fill="#333333" opacity="1">Year</text></g></g><path class="foreground" aria-hidden="true" d="" pointer-events="none" display="none"/></g></g><g class="mark-group role-axis" role="graphics-symbol" aria-roledescription="axis" aria-label="Y-axis titled 'Ratio' for a linear scale with values from 30 to 90"><g transform="translate(0.5,0.5)"><path class="background" aria-hidden="true" d="M0,0h0v0h0Z" pointer-events="none"/><g><g class="mark-rule role-axis-tick" pointer-events="none"><line transform="translate(0,800)" x2="-5" y2="0" stroke="#888" stroke-width="1" opacity="1"/><line transform="translate(0,773)" x2="-5" y2="0" stroke="#888" stroke-width="1" opacity="1"/><line transform="translate(0,747)" x2="-5" y2="0" stroke="#888" stroke-width="1" opacity="1"/><line transform="translate(0,720)" x2="-5" y2="0" stroke="#888" stroke-width="1" opacity="1"/><line transform="translate(0,693)" x2="-5" y2="0" stroke="#888" stroke-width="1" opacity="1"/><line transform="translate(0,667)" x2="-5" y2="0" stroke="#888" stroke-width="1" opacity="1"/><line transform="translate(0,640)" x2="-5" y2="0" stroke="#888" stroke-width="1" opacity="1"/><line transform="translate(0,613)" x2="-5" y2="0" stroke="#888" stroke-width="1" opacity="1"/><line transform="translate(0,587)" x2="-5" y2="0" stroke="#888" stroke-width="1" opacity="1"/><line transform="translate(0,560)" x2="-5" y2="0" stroke="#888" stroke-width="1" opacity="1"/><line transform="translate(0,533)" x2="-5" y2="0" stroke="#888" stroke-width="1" opacity="1"/><line transform="translate(0,507)" x2="-5" y2="0" stroke="#888" stroke-width="1" opacity="1"/><line transform="translate(0,480)" x2="-5" y2="0" stroke="#888" stroke-width="1" opacity="1"/><line transform="translate(0,453)" x2="-5" y2="0" stroke="#888" stroke-width="1" opacity="1"/><line transform="translate(0,427)" x2="-5" y2="0" stroke="#888" stroke-width="1" opacity="1"/><line transform="translate(0,400)" x2="-5" y2="0" stroke="#888" stroke-width="1" opacity="1"/><line transform="translate(0,373)" x2="-5" y2="0" stroke="#888" stroke-width="1" opacity="1"/><line transform="translate(0,347)" x2="-5" y2="0" stroke="#888" stroke-width="1" opacity="1"/><line transform="translate(0,320)" x2="-5" y2="0" stroke="#888" stroke-width="1" opacity="1"/><line transform="translate(0,293)" x2="-5" y2="0" stroke="#888" stroke-width="1" opacity="1"/><line transform="translate(0,267)" x2="-5" y2="0" stroke="#888" stroke-width="1" opacity="1"/><line transform="translate(0,240)" x2="-5" y2="0" stroke="#888" stroke-width="1" opacity="1"/><line transform="translate(0,213)" x2="-5" y2="0" stroke="#888" stroke-width="1" opacity="1"/><line transform="translate(0,187)" x2="-5" y2="0" stroke="#888" stroke-width="1" opacity="1"/><line transform="translate(0,160)" x2="-5" y2="0" stroke="#888" stroke-width="1" opacity="1"/><line transform="translate(0,133)" x2="-5" y2="0" stroke="#888" stroke-width="1" opacity="1"/><line transform="translate(0,107)" x2="-5" y2="0" stroke="#888" stroke-width="1" opacity="1"/><line transform="translate(0,80)" x2="-5" y2="0" stroke="#888" stroke-width="1" opacity="1"/><line transform="translate(0,53)" x2="-5" y2="0" stroke="#888" stroke-width="1" opacity="1"/><line transform="translate(0,27)" x2="-5" y2="0" stroke="#888" stroke-width="1" opacity="1"/><line transform="translate(0,0)" x2="-5" y2="0" stroke="#888" stroke-width="1" opacity="1"/></g><g class="mark-text role-axis-label" pointer-events="none"><text text-anchor="end" transform="translate(-7,804)" font-family="Arial" font-size="12px" fill="#333333" opacity="1">30</text><text text-anchor="end" transform="translate(-7,777.3333333333334)" font-family="Arial" font-size="12px" fill="#333333" opacity="1">32</text><text text-anchor="end" transform="translate(-7,750.6666666666666)" font-family="Arial" font-size="12px" fill="#333333" opacity="1">34</text><text text-anchor="end" transform="translate(-7,724)" font-family="Arial" font-size="12px" fill="#333333" opacity="1">36</text><text text-anchor="end" transform="translate(-7,697.3333333333334)" font-family="Arial" font-size="12px" fill="#333333" opacity="1">38</text><text text-anchor="end" transform="translate(-7,670.6666666666667)" font-family="Arial" font-size="12px" fill="#333333" opacity="1">40</text><text text-anchor="end" transform="translate(-7,644)" font-family="Arial" font-size="12px" fill="#333333" opacity="1">42</text><text text-anchor="end" transform="translate(-7,617.3333333333333)" font-family="Arial" font-size="12px" fill="#333333" opacity="1">44</text><text text-anchor="end" transform="translate(-7,590.6666666666667)" font-family="Arial" font-size="12px" fill="#333333" opacity="1">46</text><text text-anchor="end" transform="translate(-7,564)" font-family="Arial" font-size="12px" fill="#333333" opacity="1">48</text><text text-anchor="end" transform="translate(-7,537.3333333333334)" font-family="Arial" font-size="12px" fill="#333333" opacity="1">50</text><text text-anchor="end" transform="translate(-7,510.66666666666663)" font-family="Arial" font-size="12px" fill="#333333" opacity="1">52</text><text text-anchor="end" transform="translate(-7,484)" font-family="Arial" font-size="12px" fill="#333333" opacity="1">54</text><text text-anchor="end" transform="translate(-7,457.3333333333333)" font-family="Arial" font-size="12px" fill="#333333" opacity="1">56</text><text text-anchor="end" transform="translate(-7,430.6666666666667)" font-family="Arial" font-size="12px" fill="#333333" opacity="1">58</text><text text-anchor="end" transform="translate(-7,404)" font-family="Arial" font-size="12px" fill="#333333" opacity="1">60</text><text text-anchor="end" transform="translate(-7,377.3333333333333)" font-family="Arial" font-size="12px" fill="#333333" opacity="1">62</text><text text-anchor="end" transform="translate(-7,350.6666666666667)" font-family="Arial" font-size="12px" fill="#333333" opacity="1">64</text><text text-anchor="end" transform="translate(-7,324)" font-family="Arial" font-size="12px" fill="#333333" opacity="1">66</text><text text-anchor="end" transform="translate(-7,297.33333333333337)" font-family="Arial" font-size="12px" fill="#333333" opacity="1">68</text><text text-anchor="end" transform="translate(-7,270.6666666666667)" font-family="Arial" font-size="12px" fill="#333333" opacity="1">70</text><text text-anchor="end" transform="translate(-7,244.00000000000003)" font-family="Arial" font-size="12px" fill="#333333" opacity="1">72</text><text text-anchor="end" transform="translate(-7,217.33333333333337)" font-family="Arial" font-size="12px" fill="#333333" opacity="1">74</text><text text-anchor="end" transform="translate(-7,190.66666666666663)" font-family="Arial" font-size="12px" fill="#333333" opacity="1">76</text><text text-anchor="end" transform="translate(-7,163.99999999999997)" font-family="Arial" font-size="12px" fill="#333333" opacity="1">78</text><text text-anchor="end" transform="translate(-7,137.33333333333331)" font-family="Arial" font-size="12px" fill="#333333" opacity="1">80</text><text text-anchor="end" transform="translate(-7,110.66666666666664)" font-family="Arial" font-size="12px" fill="#333333" opacity="1">82</text><text text-anchor="end" transform="translate(-7,83.99999999999999)" font-family="Arial" font-size="12px" fill="#333333" opacity="1">84</text><text text-anchor="end" transform="translate(-7,57.33333333333332)" font-family="Arial" font-size="12px" fill="#333333" opacity="1">86</text><text text-anchor="end" transform="translate(-7,30.66666666666666)" font-family="Arial" font-size="12px" fill="#333333" opacity="1">88</text><text text-anchor="end" transform="translate(-7,4)" font-family="Arial" font-size="12px" fill="#333333" opacity="1">90</text></g><g class="mark-rule role-axis-domain" pointer-events="none"><line transform="translate(0,800)" x2="0" y2="-800" stroke="#888" stroke-width="1" opacity="1"/></g><g class="mark-text role-axis-title" pointer-events="none"><text text-anchor="middle" transform="translate(-24.34765625,400) rotate(-90) translate(0,-3)" font-family="Arial" font-size="14px" font-weight="bold" fill="#333333" opacity="1">Ratio</text></g></g><path class="foreground" aria-hidden="true" d="" pointer-events="none" display="none"/></g></g><g class="mark-group role-scope layer_0_pathgroup" role="graphics-object" aria-roledescription="group mark container"><g transform="translate(0,0)"><path class="background" aria-hidden="true" d="M0,0h600v800h-600Z"/><g><g class="mark-line role-mark layer_0_marks" role="graphics-symbol" aria-roledescription="line mark container"><path d="M0,246.067L18.737,241.2L37.526,240.067L56.263,225.267L75,213.8L93.737,200.8L112.526,198.667L131.263,192L150,184.867L168.737,175.8L187.526,162.867L206.263,159.133L225,142.733L243.737,145.667L262.526,132.933L281.263,128.2L300,121.067L318.737,112.333L337.526,103.467L356.263,104.133L375,97.733L393.737,88.667L412.526,84.733L431.263,80.133L450,77.733L468.737,69.133L487.526,64.533L506.263,56.4L525,46.867L543.737,50.8L562.526,39.067L581.263,37.133L600,38.533" stroke="#742183" stroke-width="2"/></g></g><path class="foreground" aria-hidden="true" d="" display="none"/></g><g transform="translate(0,0)"><path class="background" aria-hidden="true" d="M0,0h600v800h-600Z"/><g><g class="mark-line role-mark layer_0_marks" role="graphics-symbol" aria-roledescription="line mark container"><path d="M0,198.133L18.737,193.28L37.526,189.6L56.263,184.987L75,183.173L93.737,183.307L112.526,185.92L131.263,186.107L150,186.213L168.737,186.853L187.526,187.653L206.263,187.92L225,187.947L243.737,190.613L262.526,190.72L281.263,191.493L300,193.413L318.737,194.72L337.526,197.333L356.263,194.693L375,194.533L393.737,197.12L412.526,200.027L431.263,192.827L450,191.28L468.737,191.547L487.526,202.32L506.263,202.107L525,205.867L543.737,201.627L562.526,195.307L581.263,201.68L600,201.013" stroke="#166417" stroke-width="2"/></g></g><path class="foreground" aria-hidden="true" d="" display="none"/></g><g transform="translate(0,0)"><path class="background" aria-hidden="true" d="M0,0h600v800h-600Z"/><g><g class="mark-line role-mark layer_0_marks" role="graphics-symbol" aria-roledescription="line mark container"><path d="M0,228.4L18.737,227.543L37.526,227.619L56.263,223.048L75,217.41L93.737,211.714L112.526,204.248L131.263,206.762L150,198.343L168.737,186.21L187.526,178.038L206.263,171.943L225,177.581L243.737,171.029L262.526,164.819L281.263,161.048L300,153.752L318.737,151.943L337.526,150.019L356.263,154.61L375,150.381L393.737,150.095L412.526,142.533L431.263,139.162L450,136.076L468.737,131.524L487.526,126.457L506.263,132.8L525,122.895L543.737,126.362L562.526,120.362L581.263,117.238L600,114.629" stroke="#f8c7cc" stroke-width="2"/></g></g><path class="foreground" aria-hidden="true" d="" display="none"/></g><g transform="translate(0,0)"><path class="background" aria-hidden="true" d="M0,0h600v800h-600Z"/><g><g class="mark-line role-mark layer_0_marks" role="graphics-symbol" aria-roledescription="line mark container"><path d="M0,128.88L18.737,131.787L37.526,136.373L56.263,145.4L75,151.693L93.737,154.12L112.526,152.213L131.263,148.013L150,141.973L168.737,138.493L187.526,133.147L206.263,131.173L225,126.08L243.737,123.8L262.526,123.707L281.263,128L300,128.44L318.737,136.547L337.526,140.467L356.263,141.373L375,137.627L393.737,134.52L412.526,137.027L431.263,139.253L450,145.16L468.737,147.947L487.526,147.493L506.263,150.547L525,153.787L543.737,158.787L562.526,145.253L581.263,127.704L600,127.881" stroke="#edae49" stroke-width="2"/></g></g><path class="foreground" aria-hidden="true" d="" display="none"/></g><g transform="translate(0,0)"><path class="background" aria-hidden="true" d="M0,0h600v800h-600Z"/><g><g class="mark-line role-mark layer_0_marks" role="graphics-symbol" aria-roledescription="line mark container"><path d="M0,440.748L18.737,432.886L37.526,426.585L56.263,420.082L75,411.858L93.737,405.462L112.526,394.916L131.263,386.856L150,381.892L168.737,383.127L187.526,373.781L206.263,367.798L225,358.374L243.737,349.389L262.526,337.376L281.263,332.688L300,328.529L318.737,319.57L337.526,313.656L356.263,309.368L375,307.819L393.737,296.542L412.526,296.043L431.263,293.23L450,289.983L468.737,283.656L487.526,282.882L506.263,274.499L525,269.48L543.737,278.581L562.526,265.617L581.263,274.396L600,269.789" stroke="#81a684" stroke-width="2"/></g></g><path class="foreground" aria-hidden="true" d="" display="none"/></g><g transform="translate(0,0)"><path class="background" aria-hidden="true" d="M0,0h600v800h-600Z"/><g><g class="mark-line role-mark layer_0_marks" role="graphics-symbol" aria-roledescription="line mark container"><path d="M0,122.16L18.737,124.693L37.526,126.987L56.263,128.427L75,126.88L93.737,128.347L112.526,129.867L131.263,132.987L150,135.013L168.737,136.027L187.526,136.587L206.263,136.667L225,137.493L243.737,138.373L262.526,139.467L281.263,133.2L300,126.507L318.737,121.627L337.526,115.493L356.263,107.173L375,100.267L393.737,102.187L412.526,104L431.263,106.773L450,112.453L468.737,118.8L487.526,118.88L506.263,118.32L525,118.187L543.737,118L562.526,110.347L581.263,118.64L600,117.2" stroke="#113447" stroke-width="2"/></g></g><path class="foreground" aria-hidden="true" d="" display="none"/></g><g transform="translate(0,0)"><path class="background" aria-hidden="true" d="M0,0h600v800h-600Z"/><g><g class="mark-line role-mark layer_0_marks" role="graphics-symbol" aria-roledescription="line mark container"><path d="M0,243.467L18.737,233.467L37.526,223.067L56.263,212.267L75,200.8L93.737,188.8L112.526,176.267L131.263,163.067L150,149.2L168.737,134.8L187.526,136.267L206.263,165.067L225,184.667L243.737,204.267L262.526,111.6L281.263,146.933L300,237.467L318.737,208.4L337.526,180L356.263,62.267L375,112.933L393.737,109.067L412.526,106.267L431.263,103.333L450,102.667L468.737,103.733L487.526,103.6L506.263,107.333L525,105.2L543.737,109.867L562.526,103.867L581.263,108L600,107.6" stroke="#AACEBE" stroke-width="2"/></g></g><path class="foreground" aria-hidden="true" d="" display="none"/></g><g transform="translate(0,0)"><path class="background" aria-hidden="true" d="M0,0h600v800h-600Z"/><g><g class="mark-line role-mark layer_0_marks" role="graphics-symbol" aria-roledescription="line mark container"><path d="M0,792L18.737,784.089L37.526,782.711L56.263,774.467L75,771.8L93.737,765.711L112.526,763.6L131.263,761.044L150,756.733L168.737,751.289L187.526,745.133L206.263,749.022L225,743.667L243.737,738.422L262.526,733.222L281.263,725.844L300,716.956L318.737,719.044L337.526,715.267L356.263,717.311L375,717.244L393.737,711.733L412.526,706.267L431.263,705.156L450,698.533L468.737,693.956L487.526,695.289L506.263,709.067L525,719.022L543.737,726.622L562.526,720.889L581.263,728.711L600,724.8" stroke="#c6e2e9" stroke-width="2"/></g></g><path class="foreground" aria-hidden="true" d="" display="none"/></g><g transform="translate(0,0)"><path class="background" aria-hidden="true" d="M0,0h600v800h-600Z"/><g><g class="mark-line role-mark layer_0_marks" role="graphics-symbol" aria-roledescription="line mark container"><path d="M0,179.6L18.737,173.067L37.526,166.933L56.263,155.4L75,148.467L93.737,143.533L112.526,136L131.263,128.467L150,123.4L168.737,117.933L187.526,112.4L206.263,106.133L225,96.933L243.737,95.533L262.526,94.667L281.263,88.8L300,83.267L318.737,80.867L337.526,70.2L356.263,67.267L375,69.6L393.737,68.933L412.526,69L431.263,70.6L450,75.8L468.737,72.4L487.526,66.2L506.263,62.867L525,62.467L543.737,68.733L562.526,66.8L581.263,57.4L600,52.933" stroke="#2c8c99" stroke-width="2"/></g></g><path class="foreground" aria-hidden="true" d="" display="none"/></g><g transform="translate(0,0)"><path class="background" aria-hidden="true" d="M0,0h600v800h-600Z"/><g><g class="mark-line role-mark layer_0_marks" role="graphics-symbol" aria-roledescription="line mark container"><path d="M0,175.173L18.737,172.64L37.526,163.307L56.263,163.587L75,161.04L93.737,152.947L112.526,147.893L131.263,145.507L150,129.36L168.737,117.667L187.526,116.067L206.263,108.387L225,107.4L243.737,106.96L262.526,96.84L281.263,96.32L300,96.16L318.737,91.533L337.526,72.733L356.263,67.92L375,68.36L393.737,63.027L412.526,61.427L431.263,67.013L450,63.707L468.737,61.013L487.526,59.16L506.263,57.533L525,53.573L543.737,54.747L562.526,51.493L581.263,39.427L600,37.867" stroke="#73eedc" stroke-width="2"/></g></g><path class="foreground" aria-hidden="true" d="" display="none"/></g><g transform="translate(0,0)"><path class="background" aria-hidden="true" d="M0,0h600v800h-600Z"/><g><g class="mark-line role-mark layer_0_marks" role="graphics-symbol" aria-roledescription="line mark container"><path d="M0,387.422L18.737,373.111L37.526,359.422L56.263,343.778L75,344.978L93.737,346.222L112.526,344.667L131.263,343.244L150,341.733L168.737,340.667L187.526,339.467L206.263,337.956L225,335.156L243.737,332.222L262.526,329.2L281.263,325.911L300,322.667L318.737,318.044L337.526,313.333L356.263,308.622L375,303.911L393.737,298.978L412.526,298.222L431.263,297.378L450,295.867L468.737,294.044L487.526,292L506.263,289.911L525,288.667L543.737,288.667L562.526,278.089L581.263,289.956L600,289.156" stroke="#742183" stroke-width="2"/></g></g><path class="foreground" aria-hidden="true" d="" display="none"/></g><g transform="translate(0,0)"><path class="background" aria-hidden="true" d="M0,0h600v800h-600Z"/><g><g class="mark-line role-mark layer_0_marks" role="graphics-symbol" aria-roledescription="line mark container"><path d="M0,214.17L18.737,212.8L37.526,212.279L56.263,205.661L75,203.018L93.737,200L112.526,199.721L131.263,199.964L150,195.648L168.737,196.715L187.526,200.861L206.263,205.345L225,205.2L243.737,210.194L262.526,207.079L281.263,206.97L300,204.545L318.737,203.745L337.526,205.891L356.263,204.836L375,200.679L393.737,198.982L412.526,195.188L431.263,190.303L450,186.582L468.737,185.297L487.526,186.497L506.263,186.121L525,187.612L543.737,192.242L562.526,181.782L581.263,188.424L600,186.545" stroke="#166417" stroke-width="2"/></g></g><path class="foreground" aria-hidden="true" d="" display="none"/></g><g transform="translate(0,0)"><path class="background" aria-hidden="true" d="M0,0h600v800h-600Z"/><g><g class="mark-line role-mark layer_0_marks" role="graphics-symbol" aria-roledescription="line mark container"><path d="M0,759.23L18.737,761.259L37.526,752.726L56.263,746.119L75,746.044L93.737,739.2L112.526,729.822L131.263,709.941L150,707.985L168.737,698.059L187.526,692.074L206.263,685.6L225,677.333L243.737,668.844L262.526,660.207L281.263,656.963L300,654.933L318.737,654.415L337.526,647.393L356.263,647.481L375,647.452L393.737,631.393L412.526,645.644L431.263,646.548L450,631.511L468.737,622.267L487.526,610.341L506.263,618.044L525,608.237L543.737,616.904L562.526,612.874L581.263,640.207L600,628.77" stroke="#f8c7cc" stroke-width="2"/></g></g><path class="foreground" aria-hidden="true" d="" display="none"/></g><g transform="translate(0,0)"><path class="background" aria-hidden="true" d="M0,0h600v800h-600Z"/><g><g class="mark-line role-mark layer_0_marks" role="graphics-symbol" aria-roledescription="line mark container"><path d="M0,374.267L18.737,369.322L37.526,365.789L56.263,360.222L75,355.856L93.737,350.122L112.526,346.256L131.263,341.078L150,335.756L168.737,327.4L187.526,329.556L206.263,319.267L225,314.522L243.737,309.322L262.526,297.944L281.263,292.678L300,287.989L318.737,277.578L337.526,269.156L356.263,261.844L375,252.056L393.737,241.967L412.526,236.278L431.263,227.3L450,218.889L468.737,213.967L487.526,211.478L506.263,209.944L525,192.156L543.737,195L562.526,180.978L581.263,174.289L600,166.9" stroke="#edae49" stroke-width="2"/></g></g><path class="foreground" aria-hidden="true" d="" display="none"/></g><g transform="translate(0,0)"><path class="background" aria-hidden="true" d="M0,0h600v800h-600Z"/><g><g class="mark-line role-mark layer_0_marks" role="graphics-symbol" aria-roledescription="line mark container"><path d="M0,186.346L18.737,184.749L37.526,181.824L56.263,178.034L75,173.957L93.737,171.589L112.526,168.723L131.263,165.759L150,162.06L168.737,158.488L187.526,156.976L206.263,153.504L225,150.221L243.737,148.326L262.526,146.136L281.263,145.611L300,144.888L318.737,144.068L337.526,143.506L356.263,143.472L375,143.021L393.737,143.061L412.526,139.926L431.263,139.382L450,138.017L468.737,137.674L487.526,135.847L506.263,136.15L525,135.66L543.737,136.698L562.526,128.485L581.263,136.777L600,133.6" stroke="#81a684" stroke-width="2"/></g></g><path class="foreground" aria-hidden="true" d="" display="none"/></g><g transform="translate(0,0)"><path class="background" aria-hidden="true" d="M0,0h600v800h-600Z"/><g><g class="mark-line role-mark layer_0_marks" role="graphics-symbol" aria-roledescription="line mark container"><path d="M0,655.859L18.737,651.37L37.526,652.052L56.263,641.215L75,634.793L93.737,631.356L112.526,630.03L131.263,624.844L150,612.704L168.737,613.807L187.526,609.052L206.263,605.467L225,601.496L243.737,603.911L262.526,602.963L281.263,599.067L300,595.207L318.737,593.881L337.526,585.296L356.263,574.704L375,572.793L393.737,569.252L412.526,568.652L431.263,560.807L450,549.919L468.737,546.215L487.526,545.57L506.263,541.304L525,534.281L543.737,525.904L562.526,523.615L581.263,522.067L600,498.227" stroke="#113447" stroke-width="2"/></g></g><path class="foreground" aria-hidden="true" d="" display="none"/></g><g transform="translate(0,0)"><path class="background" aria-hidden="true" d="M0,0h600v800h-600Z"/><g><g class="mark-line role-mark layer_0_marks" role="graphics-symbol" aria-roledescription="line mark container"><path d="M0,352L18.737,327.105L37.526,319.79L56.263,302.895L75,300.438L93.737,281.962L112.526,271.257L131.263,259.638L150,241.543L168.737,238.724L187.526,229.048L206.263,216.819L225,203.429L243.737,187.181L262.526,173.676L281.263,163.257L300,154.133L318.737,142.4L337.526,133.638L356.263,128.876L375,119.2L393.737,112.324L412.526,105.467L431.263,97.657L450,86.686L468.737,83.505L487.526,74.914L506.263,68.781L525,67.257L543.737,58.438L562.526,52.971L581.263,49.562L600,54.419" stroke="#AACEBE" stroke-width="2"/></g></g><path class="foreground" aria-hidden="true" d="" display="none"/></g></g><g class="mark-symbol role-mark layer_1_marks" role="graphics-symbol" aria-roledescription="symbol mark container"><path transform="translate(600,38.53333333333335)" d="M2.739,0A2.739,2.739,0,1,1,-2.739,0A2.739,2.739,0,1,1,2.739,0" fill="#742183" stroke-width="2" opacity="0.7"/><path transform="translate(600,201.0133333333332)" d="M2.739,0A2.739,2.739,0,1,1,-2.739,0A2.739,2.739,0,1,1,2.739,0" fill="#166417" stroke-width="2" opacity="0.7"/><path transform="translate(600,114.62857142857158)" d="M2.739,0A2.739,2.739,0,1,1,-2.739,0A2.739,2.739,0,1,1,2.739,0" fill="#f8c7cc" stroke-width="2" opacity="0.7"/><path transform="translate(600,127.88148148148161)" d="M2.739,0A2.739,2.739,0,1,1,-2.739,0A2.739,2.739,0,1,1,2.739,0" fill="#edae49" stroke-width="2" opacity="0.7"/><path transform="translate(600,269.7892473118279)" d="M2.739,0A2.739,2.739,0,1,1,-2.739,0A2.739,2.739,0,1,1,2.739,0" fill="#81a684" stroke-width="2" opacity="0.7"/><path transform="translate(600,117.19999999999987)" d="M2.739,0A2.739,2.739,0,1,1,-2.739,0A2.739,2.739,0,1,1,2.739,0" fill="#113447" stroke-width="2" opacity="0.7"/><path transform="translate(600,107.59999999999988)" d="M2.739,0A2.739,2.739,0,1,1,-2.739,0A2.739,2.739,0,1,1,2.739,0" fill="#AACEBE" stroke-width="2" opacity="0.7"/><path transform="translate(600,724.8000000000001)" d="M2.739,0A2.739,2.739,0,1,1,-2.739,0A2.739,2.739,0,1,1,2.739,0" fill="#c6e2e9" stroke-width="2" opacity="0.7"/><path transform="translate(600,52.93333333333328)" d="M2.739,0A2.739,2.739,0,1,1,-2.739,0A2.739,2.739,0,1,1,2.739,0" fill="#2c8c99" stroke-width="2" opacity="0.7"/><path transform="translate(600,37.866666666666674)" d="M2.739,0A2.739,2.739,0,1,1,-2.739,0A2.739,2.739,0,1,1,2.739,0" fill="#73eedc" stroke-width="2" opacity="0.7"/><path transform="translate(600,289.15555555555557)" d="M2.739,0A2.739,2.739,0,1,1,-2.739,0A2.739,2.739,0,1,1,2.739,0" fill="#742183" stroke-width="2" opacity="0.7"/><path transform="translate(600,186.54545454545445)" d="M2.739,0A2.739,2.739,0,1,1,-2.739,0A2.739,2.739,0,1,1,2.739,0" fill="#166417" stroke-width="2" opacity="0.7"/><path transform="translate(600,628.7703703703704)" d="M2.739,0A2.739,2.739,0,1,1,-2.739,0A2.739,2.739,0,1,1,2.739,0" fill="#f8c7cc" stroke-width="2" opacity="0.7"/><path transform="translate(600,166.89999999999995)" d="M2.739,0A2.739,2.739,0,1,1,-2.739,0A2.739,2.739,0,1,1,2.739,0" fill="#edae49" stroke-width="2" opacity="0.7"/><path transform="translate(600,133.59999999999994)" d="M2.739,0A2.739,2.739,0,1,1,-2.739,0A2.739,2.739,0,1,1,2.739,0" fill="#81a684" stroke-width="2" opacity="0.7"/><path transform="translate(600,498.2274509803922)" d="M2.739,0A2.739,2.739,0,1,1,-2.739,0A2.739,2.739,0,1,1,2.739,0" fill="#113447" stroke-width="2" opacity="0.7"/><path transform="translate(600,54.419047619047504)" d="M2.739,0A2.739,2.739,0,1,1,-2.739,0A2.739,2.739,0,1,1,2.739,0" fill="#AACEBE" stroke-width="2" opacity="0.7"/></g><g class="mark-text role-mark layer_2_marks" role="graphics-object" aria-roledescription="text mark container"><text text-anchor="start" transform="translate(604,44.53333333333335)" font-family="sans-serif" font-size="11px" fill="#742183">Australia and New Zealand</text><text text-anchor="start" transform="translate(604,204.0133333333332)" font-family="sans-serif" font-size="11px" fill="#166417">Central Asia</text><text text-anchor="start" transform="translate(604,111.62857142857158)" font-family="sans-serif" font-size="11px" fill="#f8c7cc">Eastern Asia</text><text text-anchor="start" transform="translate(604,128.88148148148161)" font-family="sans-serif" font-size="11px" fill="#edae49">Eastern Europe</text><text text-anchor="start" transform="translate(604,272.7892473118279)" font-family="sans-serif" font-size="11px" fill="#81a684">Latin America and the Caribbean</text><text text-anchor="start" transform="translate(604,120.19999999999987)" font-family="sans-serif" font-size="11px" fill="#113447">Melanesia</text><text text-anchor="start" transform="translate(604,103.59999999999988)" font-family="sans-serif" font-size="11px" fill="#AACEBE">Micronesia</text><text text-anchor="start" transform="translate(604,727.8000000000001)" font-family="sans-serif" font-size="11px" fill="#c6e2e9">Northern Africa</text><text text-anchor="start" transform="translate(604,55.93333333333328)" font-family="sans-serif" font-size="11px" fill="#2c8c99">Northern America</text><text text-anchor="start" transform="translate(604,35.866666666666674)" font-family="sans-serif" font-size="11px" fill="#73eedc">Northern Europe</text><text text-anchor="start" transform="translate(604,292.15555555555557)" font-family="sans-serif" font-size="11px" fill="#742183">Polynesia</text><text text-anchor="start" transform="translate(604,189.54545454545445)" font-family="sans-serif" font-size="11px" fill="#166417">South-eastern Asia</text><text text-anchor="start" transform="translate(604,631.7703703703704)" font-family="sans-serif" font-size="11px" fill="#f8c7cc">Southern Asia</text><text text-anchor="start" transform="translate(604,169.89999999999995)" font-family="sans-serif" font-size="11px" fill="#edae49">Southern Europe</text><text text-anchor="start" transform="translate(604,136.59999999999994)" font-family="sans-serif" font-size="11px" fill="#81a684">Sub-Saharan Africa</text><text text-anchor="start" transform="translate(604,501.2274509803922)" font-family="sans-serif" font-size="11px" fill="#113447">Western Asia</text><text text-anchor="start" transform="translate(604,65.419047619047504)" font-family="sans-serif" font-size="11px" fill="#AACEBE">Western Europe</text></g><g class="mark-group role-title"><g transform="translate(-38.34765625,-26)"><path class="background" aria-hidden="true" d="M0,0h0v0h0Z" pointer-events="none"/><g><g class="mark-text role-title-text" role="graphics-symbol" aria-roledescription="title" aria-label="Title text 'Ratio of female to male labor force participation rate (%) (modeled ILO estimate) by Sub-region'" pointer-events="none"><text text-anchor="start" transform="translate(0,13)" font-family="Helvetica" font-size="16px" font-weight="bold" fill="#333333" opacity="1">Ratio of female to male labor force participation rate (%) (modeled ILO estimate) by Sub-region</text></g></g><path class="foreground" aria-hidden="true" d="" pointer-events="none" display="none"/></g></g></g><path class="foreground" aria-hidden="true" d="" display="none"/></g></g></g></svg>