<svg xmlns="http://www.w3.org/2000/svg" xmlns:xlink="http://www.w3.org/1999/xlink" version="1.1" class="marks" width="732" height="472" viewBox="0 0 732 472"><rect width="732" height="472" fill="white"/><g fill="none" stroke-miterlimit="10" transform="translate(51,31)"><g class="mark-group role-frame root" role="graphics-object" aria-roledescription="group mark container"><g transform="translate(0,0)"><path class="background" aria-hidden="true" d="M0.5,0.5h600v400h-600Z" stroke="#ddd"/><g><g class="mark-group role-axis" aria-hidden="true"><g transform="translate(0.5,400.5)"><path class="background" aria-hidden="true" d="M0,0h0v0h0Z" pointer-events="none"/><g><g class="mark-rule role-axis-grid" pointer-events="none"><line transform="translate(0,-400)" x2="0" y2="400" stroke="#ddd" stroke-width="1" opacity="1"/><line transform="translate(30,-400)" x2="0" y2="400" stroke="#ddd" stroke-width="1" opacity="1"/><line transform="translate(60,-400)" x2="0" y2="400" stroke="#ddd" stroke-width="1" opacity="1"/><line transform="translate(90,-400)" x2="0" y2="400" stroke="#ddd" stroke-width="1" opacity="1"/><line transform="translate(120,-400)" x2="0" y2="400" stroke="#ddd" stroke-width="1" opacity="1"/><line transform="translate(150,-400)" x2="0" y2="400" stroke="#ddd" stroke-width="1" opacity="1"/><line transform="translate(180,-400)" x2="0" y2="400" stroke="#ddd" stroke-width="1" opacity="1"/><line transform="translate(210,-400)" x2="0" y2="400" stroke="#ddd" stroke-width="1" opacity="1"/><line transform="translate(240,-400)" x2="0" y2="400" stroke="#ddd" stroke-width="1" opacity="1"/><line transform="translate(270,-400)" x2="0" y2="400" stroke="#ddd" stroke-width="1" opacity="1"/><line transform="translate(300,-400)" x2="0" y2="400" stroke="#ddd" stroke-width="1" opacity="1"/><line transform="translate(330,-400)" x2="0" y2="400" stroke="#ddd" stroke-width="1" opacity="1"/><line transform="translate(360,-400)" x2="0" y2="400" stroke="#ddd" stroke-width="1" opacity="1"/><line transform="translate(390,-400)" x2="0" y2="400" stroke="#ddd" stroke-width="1" opacity="1"/><line transform="translate(420,-400)" x2="0" y2="400" stroke="#ddd" stroke-width="1" opacity="1"/><line transform="translate(450,-400)" x2="0" y2="400" stroke="#ddd" stroke-width="1" opacity="1"/><line transform="translate(480,-400)" x2="0" y2="400" stroke="#ddd" stroke-width="1" opacity="1"/><line transform="translate(510,-400)" x2="0" y2="400" stroke="#ddd" stroke-width="1" opacity="1"/><line transform="translate(540,-400)" x2="0" y2="400" stroke="#ddd" stroke-width="1" opacity="1"/><line transform="translate(570,-400)" x2="0" y2="400" stroke="#ddd" stroke-width="1" opacity="1"/><line transform="translate(600,-400)" x2="0" y2="400" stroke="#ddd" stroke-width="1" opacity="1"/></g></g><path class="foreground" aria-hidden="true" d="" pointer-events="none" display="none"/></g></g><g class="mark-group role-axis" aria-hidden="true"><g transform="translate(0.5,0.5)"><path class="background" aria-hidden="true" d="M0,0h0v0h0Z" pointer-events="none"/><g><g class="mark-rule role-axis-grid" pointer-events="none"><line transform="translate(0,400)" x2="600" y2="0" stroke="#ddd" stroke-width="1" opacity="1"/><line transform="translate(0,360)" x2="600" y2="0" stroke="#ddd" stroke-width="1" opacity="1"/><line transform="translate(0,320)" x2="600" y2="0" stroke="#ddd" stroke-width="1" opacity="1"/><line transform="translate(0,280)" x2="600" y2="0" stroke="#ddd" stroke-width="1" opacity="1"/><line transform="translate(0,240)" x2="600" y2="0" stroke="#ddd" stroke-width="1" opacity="1"/><line transform="translate(0,200)" x2="600" y2="0" stroke="#ddd" stroke-width="1" opacity="1"/><line transform="translate(0,160)" x2="600" y2="0" stroke="#ddd" stroke-width="1" opacity="1"/><line transform="translate(0,120)" x2="600" y2="0" stroke="#ddd" stroke-width="1" opacity="1"/><line transform="translate(0,80)" x2="600" y2="0" stroke="#ddd" stroke-width="1" opacity="1"/><line transform="translate(0,40)" x2="600" y2="0" stroke="#ddd" stroke-width="1" opacity="1"/><line transform="translate(0,0)" x2="600" y2="0" stroke="#ddd" stroke-width="1" opacity="1"/></g></g><path class="foreground" aria-hidden="true" d="" pointer-events="none" display="none"/></g></g><g class="mark-group role-axis" role="graphics-symbol" aria-roledescription="axis" aria-label="X-axis titled '% Female' for a linear scale with values from 0 to 100"><g transform="translate(0.5,400.5)"><path class="background" aria-hidden="true" d="M0,0h0v0h0Z" pointer-events="none"/><g><g class="mark-rule role-axis-tick" pointer-events="none"><line transform="translate(0,0)" x2="0" y2="5" stroke="#888" stroke-width="1" opacity="1"/><line transform="translate(30,0)" x2="0" y2="5" stroke="#888" stroke-width="1" opacity="1"/><line transform="translate(60,0)" x2="0" y2="5" stroke="#888" stroke-width="1" opacity="1"/><line transform="translate(90,0)" x2="0" y2="5" stroke="#888" stroke-width="1" opacity="1"/><line transform="translate(120,0)" x2="0" y2="5" stroke="#888" stroke-width="1" opacity="1"/><line transform="translate(150,0)" x2="0" y2="5" stroke="#888" stroke-width="1" opacity="1"/><line transform="translate(180,0)" x2="0" y2="5" stroke="#888" stroke-width="1" opacity="1"/><line transform="translate(210,0)" x2="0" y2="5" stroke="#888" stroke-width="1" opacity="1"/><line transform="translate(240,0)" x2="0" y2="5" stroke="#888" stroke-width="1" opacity="1"/><line transform="translate(270,0)" x2="0" y2="5" stroke="#888" stroke-width="1" opacity="1"/><line transform="translate(300,0)" x2="0" y2="5" stroke="#888" stroke-width="1" opacity="1"/><line transform="translate(330,0)" x2="0" y2="5" stroke="#888" stroke-width="1" opacity="1"/><line transform="translate(360,0)" x2="0" y2="5" stroke="#888" stroke-width="1" opacity="1"/><line transform="translate(390,0)" x2="0" y2="5" stroke="#888" stroke-width="1" opacity="1"/><line transform="translate(420,0)" x2="0" y2="5" stroke="#888" stroke-width="1" opacity="1"/><line transform="translate(450,0)" x2="0" y2="5" stroke="#888" stroke-width="1" opacity="1"/><line transform="translate(480,0)" x2="0" y2="5" stroke="#888" stroke-width="1" opacity="1"/><line transform="translate(510,0)" x2="0" y2="5" stroke="#888" stroke-width="1" opacity="1"/><line transform="translate(540,0)" x2="0" y2="5" stroke="#888" stroke-width="1" opacity="1"/><line transform="translate(570,0)" x2="0" y2="5" stroke="#888" stroke-width="1" opacity="1"/><line transform="translate(600,0)" x2="0" y2="5" stroke="#888" stroke-width="1" opacity="1"/></g><g class="mark-text role-axis-label" pointer-events="none"><text text-anchor="start" transform="translate(0,16)" font-family="Arial" font-size="12px" fill="#333333" opacity="1">0</text><text text-anchor="middle" transform="translate(30,16)" font-family="Arial" font-size="12px" fill="#333333" opacity="1">5</text><text text-anchor="middle" transform="translate(60,16)" font-family="Arial" font-size="12px" fill="#333333" opacity="1">10</text><text text-anchor="middle" transform="translate(90,16)" font-family="Arial" font-size="12px" fill="#333333" opacity="1">15</text><text text-anchor="middle" transform="translate(120,16)" font-family="Arial" font-size="12px" fill="#333333" opacity="1">20</text><text text-anchor="middle" transform="translate(150,16)" font-family="Arial" font-size="12px" fill="#333333" opacity="1">25</text><text text-anchor="middle" transform="translate(180,16)" font-family="Arial" font-size="12px" fill="#333333" opacity="1">30</text><text text-anchor="middle" transform="translate(210,16)" font-family="Arial" font-size="12px" fill="#333333" opacity="1">35</text><text text-anchor="middle" transform="translate(240,16)" font-family="Arial" font-size="12px" fill="#333333" opacity="1">40</text><text text-anchor="middle" transform="translate(270,16)" font-family="Arial" font-size="12px" fill="#333333" opacity="1">45</text><text text-anchor="middle" transform="translate(300,16)" font-family="Arial" font-size="12px" fill="#333333" opacity="1">50</text><text text-anchor="middle" transform="translate(330,16)" font-family="Arial" font-size="12px" fill="#333333" opacity="1">55</text><text text-anchor="middle" transform="translate(360,16)" font-family="Arial" font-size="12px" fill="#333333" opacity="1">60</text><text text-anchor="middle" transform="translate(390,16)" font-family="Arial" font-size="12px" fill="#333333" opacity="1">65</text><text text-anchor="middle" transform="translate(420,16)" font-family="Arial" font-size="12px" fill="#333333" opacity="1">70</text><text text-anchor="middle" transform="translate(450,16)" font-family="Arial" font-size="12px" fill="#333333" opacity="1">75</text><text text-anchor="middle" transform="translate(480,16)" font-family="Arial" font-size="12px" fill="#333333" opacity="1">80</text><text text-anchor="middle" transform="translate(510,16)" font-family="Arial" font-size="12px" fill="#333333" opacity="1">85</text><text text-anchor="middle" transform="translate(540,16)" font-family="Arial" font-size="12px" fill="#333333" opacity="1">90</text><text text-anchor="middle" transform="translate(570,16)" font-family="Arial" font-size="12px" fill="#333333" opacity="1">95</text><text text-anchor="end" transform="translate(600,16)" font-family="Arial" font-size="12px" fill="#333333" opacity="1">100</text></g><g class="mark-rule role-axis-domain" pointer-events="none"><line transform="translate(0,0)" x2="600" y2="0" stroke="#888" stroke-width="1" opacity="1"/></g><g class="mark-text role-axis-title" pointer-events="none"><text text-anchor="middle" transform="translate(300,33)" font-family="Arial" font-size="14px" font-weight="bold" fill="#333333" opacity="1">% Female</text></g></g><path class="foreground" aria-hidden="true" d="" pointer-events="none" display="none"/></g></g><g class="mark-group role-axis" role="graphics-symbol" aria-roledescription="axis" aria-label="Y-axis titled '% Male' for a linear scale with values from 0 to 100"><g transform="translate(0.5,0.5)"><path class="background" aria-hidden="true" d="M0,0h0v0h0Z" pointer-events="none"/><g><g class="mark-rule role-axis-tick" pointer-events="none"><line transform="translate(0,400)" x2="-5" y2="0" stroke="#888" stroke-width="1" opacity="1"/><line transform="translate(0,360)" x2="-5" y2="0" stroke="#888" stroke-width="1" opacity="1"/><line transform="translate(0,320)" x2="-5" y2="0" stroke="#888" stroke-width="1" opacity="1"/><line transform="translate(0,280)" x2="-5" y2="0" stroke="#888" stroke-width="1" opacity="1"/><line transform="translate(0,240)" x2="-5" y2="0" stroke="#888" stroke-width="1" opacity="1"/><line transform="translate(0,200)" x2="-5" y2="0" stroke="#888" stroke-width="1" opacity="1"/><line transform="translate(0,160)" x2="-5" y2="0" stroke="#888" stroke-width="1" opacity="1"/><line transform="translate(0,120)" x2="-5" y2="0" stroke="#888" stroke-width="1" opacity="1"/><line transform="translate(0,80)" x2="-5" y2="0" stroke="#888" stroke-width="1" opacity="1"/><line transform="translate(0,40)" x2="-5" y2="0" stroke="#888" stroke-width="1" opacity="1"/><line transform="translate(0,0)" x2="-5" y2="0" stroke="#888" stroke-width="1" opacity="1"/></g><g class="mark-text role-axis-label" pointer-events="none"><text text-anchor="end" transform="translate(-7,404)" font-family="Arial" font-size="12px" fill="#333333" opacity="1">0</text><text text-anchor="end" transform="translate(-7,364)" font-family="Arial" font-size="12px" fill="#333333" opacity="1">10</text><text text-anchor="end" transform="translate(-7,324)" font-family="Arial" font-size="12px" fill="#333333" opacity="1">20</text><text text-anchor="end" transform="translate(-7,284)" font-family="Arial" font-size="12px" fill="#333333" opacity="1">30</text><text text-anchor="end" transform="translate(-7,244)" font-family="Arial" font-size="12px" fill="#333333" opacity="1">40</text><text text-anchor="end" transform="translate(-7,204)" font-family="Arial" font-size="12px" fill="#333333" opacity="1">50</text><text text-anchor="end" transform="translate(-7,164)" font-family="Arial" font-size="12px" fill="#333333" opacity="1">60</text><text text-anchor="end" transform="translate(-7,124.00000000000001)" font-family="Arial" font-size="12px" fill="#333333" opacity="1">70</text><text text-anchor="end" transform="translate(-7,83.99999999999999)" font-family="Arial" font-size="12px" fill="#333333" opacity="1">80</text><text text-anchor="end" transform="translate(-7,43.99999999999999)" font-family="Arial" font-size="12px" fill="#333333" opacity="1">90</text><text text-anchor="end" transform="translate(-7,4)" font-family="Arial" font-size="12px" fill="#333333" opacity="1">100</text></g><g class="mark-rule role-axis-domain" pointer-events="none"><line transform="translate(0,400)" x2="0" y2="-400" stroke="#888" stroke-width="1" opacity="1"/></g><g class="mark-text role-axis-title" pointer-events="none"><text text-anchor="middle" transform="translate(-31.021484375,200) rotate(-90) translate(0,-3)" font-family="Arial" font-size="14px" font-weight="bold" fill="#333333" opacity="1">% Male</text></g></g><path class="foreground" aria-hidden="true" d="" pointer-events="none" display="none"/></g></g><g class="mark-symbol role-mark layer_0_marks" role="graphics-symbol" aria-roledescription="symbol mark container"><path transform="translate(495.3,281.04)" d="M3.873,0A3.873,3.873,0,1,1,-3.873,0A3.873,3.873,0,1,1,3.873,0" fill="#f8c7cc" stroke-width="2" opacity="0.7"/><path transform="translate(153.6,313.12)" d="M3.873,0A3.873,3.873,0,1,1,-3.873,0A3.873,3.873,0,1,1,3.873,0" fill="#edae49" stroke-width="2" opacity="0.7"/><path transform="translate(180,357.88)" d="M3.873,0A3.873,3.873,0,1,1,-3.873,0A3.873,3.873,0,1,1,3.873,0" fill="#742183" stroke-width="2" opacity="0.7"/><path transform="translate(134.52,318.68)" d="M3.873,0A3.873,3.873,0,1,1,-3.873,0A3.873,3.873,0,1,1,3.873,0" fill="#742183" stroke-width="2" opacity="0.7"/><path transform="translate(100.44,346.4)" d="M3.873,0A3.873,3.873,0,1,1,-3.873,0A3.873,3.873,0,1,1,3.873,0" fill="#166417" stroke-width="2" opacity="0.7"/><path transform="translate(113.28,296.96)" d="M3.873,0A3.873,3.873,0,1,1,-3.873,0A3.873,3.873,0,1,1,3.873,0" fill="#f8c7cc" stroke-width="2" opacity="0.7"/><path transform="translate(51.54,365.36)" d="M3.873,0A3.873,3.873,0,1,1,-3.873,0A3.873,3.873,0,1,1,3.873,0" fill="#81a684" stroke-width="2" opacity="0.7"/><path transform="translate(65.52000000000001,339.2)" d="M3.873,0A3.873,3.873,0,1,1,-3.873,0A3.873,3.873,0,1,1,3.873,0" fill="#edae49" stroke-width="2" opacity="0.7"/><path transform="translate(32.519999999999996,392.56)" d="M3.873,0A3.873,3.873,0,1,1,-3.873,0A3.873,3.873,0,1,1,3.873,0" fill="#f8c7cc" stroke-width="2" opacity="0.7"/><path transform="translate(146.64000000000001,350.12)" d="M3.873,0A3.873,3.873,0,1,1,-3.873,0A3.873,3.873,0,1,1,3.873,0" fill="#166417" stroke-width="2" opacity="0.7"/><path transform="translate(108.89999999999999,383.32)" d="M3.873,0A3.873,3.873,0,1,1,-3.873,0A3.873,3.873,0,1,1,3.873,0" fill="#f8c7cc" stroke-width="2" opacity="0.7"/><path transform="translate(284.76,356.32)" d="M3.873,0A3.873,3.873,0,1,1,-3.873,0A3.873,3.873,0,1,1,3.873,0" fill="#f8c7cc" stroke-width="2" opacity="0.7"/><path transform="translate(142.2,266.76)" d="M3.873,0A3.873,3.873,0,1,1,-3.873,0A3.873,3.873,0,1,1,3.873,0" fill="#166417" stroke-width="2" opacity="0.7"/><path transform="translate(31.44,378.88)" d="M3.873,0A3.873,3.873,0,1,1,-3.873,0A3.873,3.873,0,1,1,3.873,0" fill="#edae49" stroke-width="2" opacity="0.7"/><path transform="translate(34.38,369.52)" d="M3.873,0A3.873,3.873,0,1,1,-3.873,0A3.873,3.873,0,1,1,3.873,0" fill="#edae49" stroke-width="2" opacity="0.7"/><path transform="translate(207.54000000000002,340.72)" d="M3.873,0A3.873,3.873,0,1,1,-3.873,0A3.873,3.873,0,1,1,3.873,0" fill="#166417" stroke-width="2" opacity="0.7"/><path transform="translate(105.89999999999999,347.71999999999997)" d="M3.873,0A3.873,3.873,0,1,1,-3.873,0A3.873,3.873,0,1,1,3.873,0" fill="#742183" stroke-width="2" opacity="0.7"/><path transform="translate(136.44,332.24)" d="M3.873,0A3.873,3.873,0,1,1,-3.873,0A3.873,3.873,0,1,1,3.873,0" fill="#f8c7cc" stroke-width="2" opacity="0.7"/><path transform="translate(81.78,377.32)" d="M3.873,0A3.873,3.873,0,1,1,-3.873,0A3.873,3.873,0,1,1,3.873,0" fill="#166417" stroke-width="2" opacity="0.7"/><path transform="translate(89.88000000000001,332.4)" d="M3.873,0A3.873,3.873,0,1,1,-3.873,0A3.873,3.873,0,1,1,3.873,0" fill="#edae49" stroke-width="2" opacity="0.7"/><path transform="translate(242.52,261.00000000000006)" d="M3.873,0A3.873,3.873,0,1,1,-3.873,0A3.873,3.873,0,1,1,3.873,0" fill="#742183" stroke-width="2" opacity="0.7"/><path transform="translate(152.76,336.32)" d="M3.873,0A3.873,3.873,0,1,1,-3.873,0A3.873,3.873,0,1,1,3.873,0" fill="#166417" stroke-width="2" opacity="0.7"/><path transform="translate(124.5,324.32)" d="M3.873,0A3.873,3.873,0,1,1,-3.873,0A3.873,3.873,0,1,1,3.873,0" fill="#f8c7cc" stroke-width="2" opacity="0.7"/><path transform="translate(69.72,354.88)" d="M3.873,0A3.873,3.873,0,1,1,-3.873,0A3.873,3.873,0,1,1,3.873,0" fill="#edae49" stroke-width="2" opacity="0.7"/><path transform="translate(244.55999999999997,288.44000000000005)" d="M3.873,0A3.873,3.873,0,1,1,-3.873,0A3.873,3.873,0,1,1,3.873,0" fill="#742183" stroke-width="2" opacity="0.7"/><path transform="translate(67.8,343.76)" d="M3.873,0A3.873,3.873,0,1,1,-3.873,0A3.873,3.873,0,1,1,3.873,0" fill="#742183" stroke-width="2" opacity="0.7"/><path transform="translate(175.14,290.36)" d="M3.873,0A3.873,3.873,0,1,1,-3.873,0A3.873,3.873,0,1,1,3.873,0" fill="#742183" stroke-width="2" opacity="0.7"/><path transform="translate(83.64,356)" d="M3.873,0A3.873,3.873,0,1,1,-3.873,0A3.873,3.873,0,1,1,3.873,0" fill="#f8c7cc" stroke-width="2" opacity="0.7"/><path transform="translate(187.2,339.64)" d="M3.873,0A3.873,3.873,0,1,1,-3.873,0A3.873,3.873,0,1,1,3.873,0" fill="#742183" stroke-width="2" opacity="0.7"/><path transform="translate(65.1,349.68)" d="M3.873,0A3.873,3.873,0,1,1,-3.873,0A3.873,3.873,0,1,1,3.873,0" fill="#166417" stroke-width="2" opacity="0.7"/><path transform="translate(226.98,312)" d="M3.873,0A3.873,3.873,0,1,1,-3.873,0A3.873,3.873,0,1,1,3.873,0" fill="#742183" stroke-width="2" opacity="0.7"/><path transform="translate(291.24,296.88)" d="M3.873,0A3.873,3.873,0,1,1,-3.873,0A3.873,3.873,0,1,1,3.873,0" fill="#742183" stroke-width="2" opacity="0.7"/><path transform="translate(60.96,366.04)" d="M3.873,0A3.873,3.873,0,1,1,-3.873,0A3.873,3.873,0,1,1,3.873,0" fill="#edae49" stroke-width="2" opacity="0.7"/><path transform="translate(100.19999999999999,344.03999999999996)" d="M3.873,0A3.873,3.873,0,1,1,-3.873,0A3.873,3.873,0,1,1,3.873,0" fill="#166417" stroke-width="2" opacity="0.7"/><path transform="translate(77.52000000000001,358.36)" d="M3.873,0A3.873,3.873,0,1,1,-3.873,0A3.873,3.873,0,1,1,3.873,0" fill="#f8c7cc" stroke-width="2" opacity="0.7"/><path transform="translate(180.18,333.44)" d="M3.873,0A3.873,3.873,0,1,1,-3.873,0A3.873,3.873,0,1,1,3.873,0" fill="#166417" stroke-width="2" opacity="0.7"/><path transform="translate(137.64000000000001,321.36)" d="M3.873,0A3.873,3.873,0,1,1,-3.873,0A3.873,3.873,0,1,1,3.873,0" fill="#742183" stroke-width="2" opacity="0.7"/><path transform="translate(204.12000000000003,282.47999999999996)" d="M3.873,0A3.873,3.873,0,1,1,-3.873,0A3.873,3.873,0,1,1,3.873,0" fill="#742183" stroke-width="2" opacity="0.7"/><path transform="translate(194.34,295.4)" d="M3.873,0A3.873,3.873,0,1,1,-3.873,0A3.873,3.873,0,1,1,3.873,0" fill="#742183" stroke-width="2" opacity="0.7"/><path transform="translate(140.94,326.48)" d="M3.873,0A3.873,3.873,0,1,1,-3.873,0A3.873,3.873,0,1,1,3.873,0" fill="#166417" stroke-width="2" opacity="0.7"/><path transform="translate(151.74,347)" d="M3.873,0A3.873,3.873,0,1,1,-3.873,0A3.873,3.873,0,1,1,3.873,0" fill="#742183" stroke-width="2" opacity="0.7"/><path transform="translate(57.54,359.76)" d="M3.873,0A3.873,3.873,0,1,1,-3.873,0A3.873,3.873,0,1,1,3.873,0" fill="#edae49" stroke-width="2" opacity="0.7"/><path transform="translate(92.58,370.2)" d="M3.873,0A3.873,3.873,0,1,1,-3.873,0A3.873,3.873,0,1,1,3.873,0" fill="#166417" stroke-width="2" opacity="0.7"/><path transform="translate(77.10000000000001,355.68)" d="M3.873,0A3.873,3.873,0,1,1,-3.873,0A3.873,3.873,0,1,1,3.873,0" fill="#f8c7cc" stroke-width="2" opacity="0.7"/><path transform="translate(49.32000000000001,382.2)" d="M3.873,0A3.873,3.873,0,1,1,-3.873,0A3.873,3.873,0,1,1,3.873,0" fill="#edae49" stroke-width="2" opacity="0.7"/><path transform="translate(41.76,370.96)" d="M3.873,0A3.873,3.873,0,1,1,-3.873,0A3.873,3.873,0,1,1,3.873,0" fill="#edae49" stroke-width="2" opacity="0.7"/><path transform="translate(167.88,330.52000000000004)" d="M3.873,0A3.873,3.873,0,1,1,-3.873,0A3.873,3.873,0,1,1,3.873,0" fill="#742183" stroke-width="2" opacity="0.7"/><path transform="translate(185.16,317.24)" d="M3.873,0A3.873,3.873,0,1,1,-3.873,0A3.873,3.873,0,1,1,3.873,0" fill="#166417" stroke-width="2" opacity="0.7"/><path transform="translate(157.62,354.96)" d="M3.873,0A3.873,3.873,0,1,1,-3.873,0A3.873,3.873,0,1,1,3.873,0" fill="#166417" stroke-width="2" opacity="0.7"/><path transform="translate(233.82,338.6)" d="M3.873,0A3.873,3.873,0,1,1,-3.873,0A3.873,3.873,0,1,1,3.873,0" fill="#742183" stroke-width="2" opacity="0.7"/><path transform="translate(190.38000000000002,352.59999999999997)" d="M3.873,0A3.873,3.873,0,1,1,-3.873,0A3.873,3.873,0,1,1,3.873,0" fill="#166417" stroke-width="2" opacity="0.7"/><path transform="translate(168.66,317.64)" d="M3.873,0A3.873,3.873,0,1,1,-3.873,0A3.873,3.873,0,1,1,3.873,0" fill="#742183" stroke-width="2" opacity="0.7"/><path transform="translate(199.79999999999998,324.12)" d="M3.873,0A3.873,3.873,0,1,1,-3.873,0A3.873,3.873,0,1,1,3.873,0" fill="#742183" stroke-width="2" opacity="0.7"/><path transform="translate(42.96,352.36)" d="M3.873,0A3.873,3.873,0,1,1,-3.873,0A3.873,3.873,0,1,1,3.873,0" fill="#edae49" stroke-width="2" opacity="0.7"/><path transform="translate(241.86,276.84)" d="M3.873,0A3.873,3.873,0,1,1,-3.873,0A3.873,3.873,0,1,1,3.873,0" fill="#742183" stroke-width="2" opacity="0.7"/><path transform="translate(149.57999999999998,359.8)" d="M3.873,0A3.873,3.873,0,1,1,-3.873,0A3.873,3.873,0,1,1,3.873,0" fill="#742183" stroke-width="2" opacity="0.7"/><path transform="translate(172.98,359.44)" d="M3.873,0A3.873,3.873,0,1,1,-3.873,0A3.873,3.873,0,1,1,3.873,0" fill="#81a684" stroke-width="2" opacity="0.7"/><path transform="translate(40.86,367.52000000000004)" d="M3.873,0A3.873,3.873,0,1,1,-3.873,0A3.873,3.873,0,1,1,3.873,0" fill="#edae49" stroke-width="2" opacity="0.7"/><path transform="translate(56.58,354)" d="M3.873,0A3.873,3.873,0,1,1,-3.873,0A3.873,3.873,0,1,1,3.873,0" fill="#edae49" stroke-width="2" opacity="0.7"/><path transform="translate(157.32,322.24)" d="M3.873,0A3.873,3.873,0,1,1,-3.873,0A3.873,3.873,0,1,1,3.873,0" fill="#81a684" stroke-width="2" opacity="0.7"/><path transform="translate(199.44000000000003,299.76000000000005)" d="M3.873,0A3.873,3.873,0,1,1,-3.873,0A3.873,3.873,0,1,1,3.873,0" fill="#742183" stroke-width="2" opacity="0.7"/><path transform="translate(232.68,236.39999999999998)" d="M3.873,0A3.873,3.873,0,1,1,-3.873,0A3.873,3.873,0,1,1,3.873,0" fill="#742183" stroke-width="2" opacity="0.7"/><path transform="translate(149.28,314.04)" d="M3.873,0A3.873,3.873,0,1,1,-3.873,0A3.873,3.873,0,1,1,3.873,0" fill="#f8c7cc" stroke-width="2" opacity="0.7"/><path transform="translate(46.44,371.2)" d="M3.873,0A3.873,3.873,0,1,1,-3.873,0A3.873,3.873,0,1,1,3.873,0" fill="#edae49" stroke-width="2" opacity="0.7"/><path transform="translate(180,298.4)" d="M3.873,0A3.873,3.873,0,1,1,-3.873,0A3.873,3.873,0,1,1,3.873,0" fill="#742183" stroke-width="2" opacity="0.7"/><path transform="translate(67.44,353.4)" d="M3.873,0A3.873,3.873,0,1,1,-3.873,0A3.873,3.873,0,1,1,3.873,0" fill="#edae49" stroke-width="2" opacity="0.7"/><path transform="translate(85.86,357.4)" d="M3.873,0A3.873,3.873,0,1,1,-3.873,0A3.873,3.873,0,1,1,3.873,0" fill="#81a684" stroke-width="2" opacity="0.7"/><path transform="translate(240.78000000000003,368.6)" d="M3.873,0A3.873,3.873,0,1,1,-3.873,0A3.873,3.873,0,1,1,3.873,0" fill="#166417" stroke-width="2" opacity="0.7"/><path transform="translate(257.15999999999997,296.56)" d="M3.873,0A3.873,3.873,0,1,1,-3.873,0A3.873,3.873,0,1,1,3.873,0" fill="#742183" stroke-width="2" opacity="0.7"/><path transform="translate(94.92,352.32)" d="M3.873,0A3.873,3.873,0,1,1,-3.873,0A3.873,3.873,0,1,1,3.873,0" fill="#742183" stroke-width="2" opacity="0.7"/><path transform="translate(303.96,252.8)" d="M3.873,0A3.873,3.873,0,1,1,-3.873,0A3.873,3.873,0,1,1,3.873,0" fill="#166417" stroke-width="2" opacity="0.7"/><path transform="translate(167.04,343.04)" d="M3.873,0A3.873,3.873,0,1,1,-3.873,0A3.873,3.873,0,1,1,3.873,0" fill="#166417" stroke-width="2" opacity="0.7"/><path transform="translate(264.71999999999997,331)" d="M3.873,0A3.873,3.873,0,1,1,-3.873,0A3.873,3.873,0,1,1,3.873,0" fill="#166417" stroke-width="2" opacity="0.7"/><path transform="translate(33.779999999999994,374.96)" d="M3.873,0A3.873,3.873,0,1,1,-3.873,0A3.873,3.873,0,1,1,3.873,0" fill="#f8c7cc" stroke-width="2" opacity="0.7"/><path transform="translate(66.11999999999999,365.6)" d="M3.873,0A3.873,3.873,0,1,1,-3.873,0A3.873,3.873,0,1,1,3.873,0" fill="#edae49" stroke-width="2" opacity="0.7"/><path transform="translate(15.9,380.92)" d="M3.873,0A3.873,3.873,0,1,1,-3.873,0A3.873,3.873,0,1,1,3.873,0" fill="#edae49" stroke-width="2" opacity="0.7"/><path transform="translate(228.66,359.08)" d="M3.873,0A3.873,3.873,0,1,1,-3.873,0A3.873,3.873,0,1,1,3.873,0" fill="#f8c7cc" stroke-width="2" opacity="0.7"/><path transform="translate(157.8,333.28)" d="M3.873,0A3.873,3.873,0,1,1,-3.873,0A3.873,3.873,0,1,1,3.873,0" fill="#f8c7cc" stroke-width="2" opacity="0.7"/><path transform="translate(225.24,331.12)" d="M3.873,0A3.873,3.873,0,1,1,-3.873,0A3.873,3.873,0,1,1,3.873,0" fill="#f8c7cc" stroke-width="2" opacity="0.7"/><path transform="translate(317.70000000000005,315.64)" d="M3.873,0A3.873,3.873,0,1,1,-3.873,0A3.873,3.873,0,1,1,3.873,0" fill="#f8c7cc" stroke-width="2" opacity="0.7"/><path transform="translate(36.3,372.68)" d="M3.873,0A3.873,3.873,0,1,1,-3.873,0A3.873,3.873,0,1,1,3.873,0" fill="#edae49" stroke-width="2" opacity="0.7"/><path transform="translate(95.34,342.47999999999996)" d="M3.873,0A3.873,3.873,0,1,1,-3.873,0A3.873,3.873,0,1,1,3.873,0" fill="#f8c7cc" stroke-width="2" opacity="0.7"/><path transform="translate(73.67999999999999,347.84000000000003)" d="M3.873,0A3.873,3.873,0,1,1,-3.873,0A3.873,3.873,0,1,1,3.873,0" fill="#edae49" stroke-width="2" opacity="0.7"/><path transform="translate(135.84,316.44)" d="M3.873,0A3.873,3.873,0,1,1,-3.873,0A3.873,3.873,0,1,1,3.873,0" fill="#166417" stroke-width="2" opacity="0.7"/><path transform="translate(21.66,389.44)" d="M3.873,0A3.873,3.873,0,1,1,-3.873,0A3.873,3.873,0,1,1,3.873,0" fill="#f8c7cc" stroke-width="2" opacity="0.7"/><path transform="translate(215.21999999999997,291.12)" d="M3.873,0A3.873,3.873,0,1,1,-3.873,0A3.873,3.873,0,1,1,3.873,0" fill="#f8c7cc" stroke-width="2" opacity="0.7"/><path transform="translate(57.18,379.23999999999995)" d="M3.873,0A3.873,3.873,0,1,1,-3.873,0A3.873,3.873,0,1,1,3.873,0" fill="#f8c7cc" stroke-width="2" opacity="0.7"/><path transform="translate(151.61999999999998,348.96000000000004)" d="M3.873,0A3.873,3.873,0,1,1,-3.873,0A3.873,3.873,0,1,1,3.873,0" fill="#742183" stroke-width="2" opacity="0.7"/><path transform="translate(71.04,369.4)" d="M3.873,0A3.873,3.873,0,1,1,-3.873,0A3.873,3.873,0,1,1,3.873,0" fill="#f8c7cc" stroke-width="2" opacity="0.7"/><path transform="translate(58.5,351.35999999999996)" d="M3.873,0A3.873,3.873,0,1,1,-3.873,0A3.873,3.873,0,1,1,3.873,0" fill="#f8c7cc" stroke-width="2" opacity="0.7"/><path transform="translate(129.9,358.64000000000004)" d="M3.873,0A3.873,3.873,0,1,1,-3.873,0A3.873,3.873,0,1,1,3.873,0" fill="#f8c7cc" stroke-width="2" opacity="0.7"/><path transform="translate(129.84,361.16)" d="M3.873,0A3.873,3.873,0,1,1,-3.873,0A3.873,3.873,0,1,1,3.873,0" fill="#f8c7cc" stroke-width="2" opacity="0.7"/><path transform="translate(147.60000000000002,318.6)" d="M3.873,0A3.873,3.873,0,1,1,-3.873,0A3.873,3.873,0,1,1,3.873,0" fill="#f8c7cc" stroke-width="2" opacity="0.7"/><path transform="translate(37.74,368)" d="M3.873,0A3.873,3.873,0,1,1,-3.873,0A3.873,3.873,0,1,1,3.873,0" fill="#edae49" stroke-width="2" opacity="0.7"/><path transform="translate(183.9,320.16)" d="M3.873,0A3.873,3.873,0,1,1,-3.873,0A3.873,3.873,0,1,1,3.873,0" fill="#f8c7cc" stroke-width="2" opacity="0.7"/><path transform="translate(251.64,287.84000000000003)" d="M3.873,0A3.873,3.873,0,1,1,-3.873,0A3.873,3.873,0,1,1,3.873,0" fill="#742183" stroke-width="2" opacity="0.7"/><path transform="translate(111.35999999999999,358.52)" d="M3.873,0A3.873,3.873,0,1,1,-3.873,0A3.873,3.873,0,1,1,3.873,0" fill="#742183" stroke-width="2" opacity="0.7"/><path transform="translate(212.04000000000002,304.59999999999997)" d="M3.873,0A3.873,3.873,0,1,1,-3.873,0A3.873,3.873,0,1,1,3.873,0" fill="#742183" stroke-width="2" opacity="0.7"/><path transform="translate(57.96,354.96)" d="M3.873,0A3.873,3.873,0,1,1,-3.873,0A3.873,3.873,0,1,1,3.873,0" fill="#edae49" stroke-width="2" opacity="0.7"/><path transform="translate(63.66,371.28000000000003)" d="M3.873,0A3.873,3.873,0,1,1,-3.873,0A3.873,3.873,0,1,1,3.873,0" fill="#edae49" stroke-width="2" opacity="0.7"/><path transform="translate(26.76,378.2)" d="M3.873,0A3.873,3.873,0,1,1,-3.873,0A3.873,3.873,0,1,1,3.873,0" fill="#f8c7cc" stroke-width="2" opacity="0.7"/><path transform="translate(181.2,325.23999999999995)" d="M3.873,0A3.873,3.873,0,1,1,-3.873,0A3.873,3.873,0,1,1,3.873,0" fill="#742183" stroke-width="2" opacity="0.7"/><path transform="translate(149.88,342.2)" d="M3.873,0A3.873,3.873,0,1,1,-3.873,0A3.873,3.873,0,1,1,3.873,0" fill="#742183" stroke-width="2" opacity="0.7"/><path transform="translate(63.6,361)" d="M3.873,0A3.873,3.873,0,1,1,-3.873,0A3.873,3.873,0,1,1,3.873,0" fill="#f8c7cc" stroke-width="2" opacity="0.7"/><path transform="translate(164.82,309.71999999999997)" d="M3.873,0A3.873,3.873,0,1,1,-3.873,0A3.873,3.873,0,1,1,3.873,0" fill="#f8c7cc" stroke-width="2" opacity="0.7"/><path transform="translate(252.29999999999998,340.24)" d="M3.873,0A3.873,3.873,0,1,1,-3.873,0A3.873,3.873,0,1,1,3.873,0" fill="#742183" stroke-width="2" opacity="0.7"/><path transform="translate(49.5,367.72)" d="M3.873,0A3.873,3.873,0,1,1,-3.873,0A3.873,3.873,0,1,1,3.873,0" fill="#edae49" stroke-width="2" opacity="0.7"/><path transform="translate(288.6,302.24)" d="M3.873,0A3.873,3.873,0,1,1,-3.873,0A3.873,3.873,0,1,1,3.873,0" fill="#742183" stroke-width="2" opacity="0.7"/><path transform="translate(135.84,327.28000000000003)" d="M3.873,0A3.873,3.873,0,1,1,-3.873,0A3.873,3.873,0,1,1,3.873,0" fill="#742183" stroke-width="2" opacity="0.7"/><path transform="translate(145.62,365.64)" d="M3.873,0A3.873,3.873,0,1,1,-3.873,0A3.873,3.873,0,1,1,3.873,0" fill="#166417" stroke-width="2" opacity="0.7"/><path transform="translate(72.53999999999999,341.8)" d="M3.873,0A3.873,3.873,0,1,1,-3.873,0A3.873,3.873,0,1,1,3.873,0" fill="#edae49" stroke-width="2" opacity="0.7"/><path transform="translate(93.84,344.52)" d="M3.873,0A3.873,3.873,0,1,1,-3.873,0A3.873,3.873,0,1,1,3.873,0" fill="#f8c7cc" stroke-width="2" opacity="0.7"/><path transform="translate(110.16,313.24)" d="M3.873,0A3.873,3.873,0,1,1,-3.873,0A3.873,3.873,0,1,1,3.873,0" fill="#edae49" stroke-width="2" opacity="0.7"/><path transform="translate(310.8,340.12)" d="M3.873,0A3.873,3.873,0,1,1,-3.873,0A3.873,3.873,0,1,1,3.873,0" fill="#742183" stroke-width="2" opacity="0.7"/><path transform="translate(159.36,331.92)" d="M3.873,0A3.873,3.873,0,1,1,-3.873,0A3.873,3.873,0,1,1,3.873,0" fill="#742183" stroke-width="2" opacity="0.7"/><path transform="translate(124.97999999999999,360.88)" d="M3.873,0A3.873,3.873,0,1,1,-3.873,0A3.873,3.873,0,1,1,3.873,0" fill="#f8c7cc" stroke-width="2" opacity="0.7"/><path transform="translate(198.48,286.8)" d="M3.873,0A3.873,3.873,0,1,1,-3.873,0A3.873,3.873,0,1,1,3.873,0" fill="#742183" stroke-width="2" opacity="0.7"/><path transform="translate(264.65999999999997,315.96000000000004)" d="M3.873,0A3.873,3.873,0,1,1,-3.873,0A3.873,3.873,0,1,1,3.873,0" fill="#f8c7cc" stroke-width="2" opacity="0.7"/><path transform="translate(21.240000000000002,387.48)" d="M3.873,0A3.873,3.873,0,1,1,-3.873,0A3.873,3.873,0,1,1,3.873,0" fill="#edae49" stroke-width="2" opacity="0.7"/><path transform="translate(146.76000000000002,308.28)" d="M3.873,0A3.873,3.873,0,1,1,-3.873,0A3.873,3.873,0,1,1,3.873,0" fill="#81a684" stroke-width="2" opacity="0.7"/><path transform="translate(74.22,355.88)" d="M3.873,0A3.873,3.873,0,1,1,-3.873,0A3.873,3.873,0,1,1,3.873,0" fill="#81a684" stroke-width="2" opacity="0.7"/><path transform="translate(229.92,366.12)" d="M3.873,0A3.873,3.873,0,1,1,-3.873,0A3.873,3.873,0,1,1,3.873,0" fill="#166417" stroke-width="2" opacity="0.7"/><path transform="translate(136.32,363.56)" d="M3.873,0A3.873,3.873,0,1,1,-3.873,0A3.873,3.873,0,1,1,3.873,0" fill="#742183" stroke-width="2" opacity="0.7"/><path transform="translate(107.27999999999999,363.76)" d="M3.873,0A3.873,3.873,0,1,1,-3.873,0A3.873,3.873,0,1,1,3.873,0" fill="#742183" stroke-width="2" opacity="0.7"/><path transform="translate(117.53999999999999,325.28000000000003)" d="M3.873,0A3.873,3.873,0,1,1,-3.873,0A3.873,3.873,0,1,1,3.873,0" fill="#edae49" stroke-width="2" opacity="0.7"/><path transform="translate(31.019999999999996,377.28000000000003)" d="M3.873,0A3.873,3.873,0,1,1,-3.873,0A3.873,3.873,0,1,1,3.873,0" fill="#edae49" stroke-width="2" opacity="0.7"/><path transform="translate(150.72000000000003,368.04)" d="M3.873,0A3.873,3.873,0,1,1,-3.873,0A3.873,3.873,0,1,1,3.873,0" fill="#f8c7cc" stroke-width="2" opacity="0.7"/><path transform="translate(337.44,348.24)" d="M3.873,0A3.873,3.873,0,1,1,-3.873,0A3.873,3.873,0,1,1,3.873,0" fill="#f8c7cc" stroke-width="2" opacity="0.7"/><path transform="translate(128.28,363.44)" d="M3.873,0A3.873,3.873,0,1,1,-3.873,0A3.873,3.873,0,1,1,3.873,0" fill="#166417" stroke-width="2" opacity="0.7"/><path transform="translate(187.74,302.08)" d="M3.873,0A3.873,3.873,0,1,1,-3.873,0A3.873,3.873,0,1,1,3.873,0" fill="#81a684" stroke-width="2" opacity="0.7"/><path transform="translate(149.88,361.84000000000003)" d="M3.873,0A3.873,3.873,0,1,1,-3.873,0A3.873,3.873,0,1,1,3.873,0" fill="#166417" stroke-width="2" opacity="0.7"/><path transform="translate(161.22,317.68)" d="M3.873,0A3.873,3.873,0,1,1,-3.873,0A3.873,3.873,0,1,1,3.873,0" fill="#166417" stroke-width="2" opacity="0.7"/><path transform="translate(93.78,358.84000000000003)" d="M3.873,0A3.873,3.873,0,1,1,-3.873,0A3.873,3.873,0,1,1,3.873,0" fill="#f8c7cc" stroke-width="2" opacity="0.7"/><path transform="translate(62.16,359.56)" d="M3.873,0A3.873,3.873,0,1,1,-3.873,0A3.873,3.873,0,1,1,3.873,0" fill="#edae49" stroke-width="2" opacity="0.7"/><path transform="translate(43.32,366.12)" d="M3.873,0A3.873,3.873,0,1,1,-3.873,0A3.873,3.873,0,1,1,3.873,0" fill="#edae49" stroke-width="2" opacity="0.7"/><path transform="translate(108.66,352.96)" d="M3.873,0A3.873,3.873,0,1,1,-3.873,0A3.873,3.873,0,1,1,3.873,0" fill="#166417" stroke-width="2" opacity="0.7"/><path transform="translate(80.94,394.24)" d="M3.873,0A3.873,3.873,0,1,1,-3.873,0A3.873,3.873,0,1,1,3.873,0" fill="#f8c7cc" stroke-width="2" opacity="0.7"/><path transform="translate(117.53999999999999,345.56)" d="M3.873,0A3.873,3.873,0,1,1,-3.873,0A3.873,3.873,0,1,1,3.873,0" fill="#edae49" stroke-width="2" opacity="0.7"/><path transform="translate(92.22,355.71999999999997)" d="M3.873,0A3.873,3.873,0,1,1,-3.873,0A3.873,3.873,0,1,1,3.873,0" fill="#edae49" stroke-width="2" opacity="0.7"/><path transform="translate(187.61999999999998,302)" d="M3.873,0A3.873,3.873,0,1,1,-3.873,0A3.873,3.873,0,1,1,3.873,0" fill="#742183" stroke-width="2" opacity="0.7"/><path transform="translate(196.38,289.44)" d="M3.873,0A3.873,3.873,0,1,1,-3.873,0A3.873,3.873,0,1,1,3.873,0" fill="#81a684" stroke-width="2" opacity="0.7"/><path transform="translate(305.58,205.08)" d="M3.873,0A3.873,3.873,0,1,1,-3.873,0A3.873,3.873,0,1,1,3.873,0" fill="#742183" stroke-width="2" opacity="0.7"/><path transform="translate(140.22,346.52000000000004)" d="M3.873,0A3.873,3.873,0,1,1,-3.873,0A3.873,3.873,0,1,1,3.873,0" fill="#f8c7cc" stroke-width="2" opacity="0.7"/><path transform="translate(262.14,308.15999999999997)" d="M3.873,0A3.873,3.873,0,1,1,-3.873,0A3.873,3.873,0,1,1,3.873,0" fill="#742183" stroke-width="2" opacity="0.7"/><path transform="translate(72.96,349.48)" d="M3.873,0A3.873,3.873,0,1,1,-3.873,0A3.873,3.873,0,1,1,3.873,0" fill="#edae49" stroke-width="2" opacity="0.7"/><path transform="translate(203.76000000000002,282.76000000000005)" d="M3.873,0A3.873,3.873,0,1,1,-3.873,0A3.873,3.873,0,1,1,3.873,0" fill="#742183" stroke-width="2" opacity="0.7"/><path transform="translate(35.28,370.04)" d="M3.873,0A3.873,3.873,0,1,1,-3.873,0A3.873,3.873,0,1,1,3.873,0" fill="#f8c7cc" stroke-width="2" opacity="0.7"/><path transform="translate(45.839999999999996,359.8)" d="M3.873,0A3.873,3.873,0,1,1,-3.873,0A3.873,3.873,0,1,1,3.873,0" fill="#edae49" stroke-width="2" opacity="0.7"/><path transform="translate(44.88,371.68)" d="M3.873,0A3.873,3.873,0,1,1,-3.873,0A3.873,3.873,0,1,1,3.873,0" fill="#edae49" stroke-width="2" opacity="0.7"/><path transform="translate(62.46,375.28000000000003)" d="M3.873,0A3.873,3.873,0,1,1,-3.873,0A3.873,3.873,0,1,1,3.873,0" fill="#81a684" stroke-width="2" opacity="0.7"/><path transform="translate(301.68,249.24)" d="M3.873,0A3.873,3.873,0,1,1,-3.873,0A3.873,3.873,0,1,1,3.873,0" fill="#742183" stroke-width="2" opacity="0.7"/><path transform="translate(213.12,270.16)" d="M3.873,0A3.873,3.873,0,1,1,-3.873,0A3.873,3.873,0,1,1,3.873,0" fill="#742183" stroke-width="2" opacity="0.7"/><path transform="translate(221.87999999999997,279.56000000000006)" d="M3.873,0A3.873,3.873,0,1,1,-3.873,0A3.873,3.873,0,1,1,3.873,0" fill="#742183" stroke-width="2" opacity="0.7"/><path transform="translate(54.480000000000004,357.28)" d="M3.873,0A3.873,3.873,0,1,1,-3.873,0A3.873,3.873,0,1,1,3.873,0" fill="#edae49" stroke-width="2" opacity="0.7"/><path transform="translate(136.14000000000001,345.35999999999996)" d="M3.873,0A3.873,3.873,0,1,1,-3.873,0A3.873,3.873,0,1,1,3.873,0" fill="#f8c7cc" stroke-width="2" opacity="0.7"/><path transform="translate(184.02,247.52)" d="M3.873,0A3.873,3.873,0,1,1,-3.873,0A3.873,3.873,0,1,1,3.873,0" fill="#166417" stroke-width="2" opacity="0.7"/><path transform="translate(180.12,301.92)" d="M3.873,0A3.873,3.873,0,1,1,-3.873,0A3.873,3.873,0,1,1,3.873,0" fill="#166417" stroke-width="2" opacity="0.7"/><path transform="translate(378.42,274.2)" d="M3.873,0A3.873,3.873,0,1,1,-3.873,0A3.873,3.873,0,1,1,3.873,0" fill="#742183" stroke-width="2" opacity="0.7"/><path transform="translate(131.28,339.59999999999997)" d="M3.873,0A3.873,3.873,0,1,1,-3.873,0A3.873,3.873,0,1,1,3.873,0" fill="#166417" stroke-width="2" opacity="0.7"/><path transform="translate(30.900000000000002,379.64000000000004)" d="M3.873,0A3.873,3.873,0,1,1,-3.873,0A3.873,3.873,0,1,1,3.873,0" fill="#edae49" stroke-width="2" opacity="0.7"/><path transform="translate(35.76,365.2)" d="M3.873,0A3.873,3.873,0,1,1,-3.873,0A3.873,3.873,0,1,1,3.873,0" fill="#edae49" stroke-width="2" opacity="0.7"/><path transform="translate(282.78000000000003,276.64)" d="M3.873,0A3.873,3.873,0,1,1,-3.873,0A3.873,3.873,0,1,1,3.873,0" fill="#f8c7cc" stroke-width="2" opacity="0.7"/><path transform="translate(281.88,298.8)" d="M3.873,0A3.873,3.873,0,1,1,-3.873,0A3.873,3.873,0,1,1,3.873,0" fill="#f8c7cc" stroke-width="2" opacity="0.7"/><path transform="translate(105.11999999999999,365.88000000000005)" d="M3.873,0A3.873,3.873,0,1,1,-3.873,0A3.873,3.873,0,1,1,3.873,0" fill="#742183" stroke-width="2" opacity="0.7"/><path transform="translate(93.84,362.2)" d="M3.873,0A3.873,3.873,0,1,1,-3.873,0A3.873,3.873,0,1,1,3.873,0" fill="#f8c7cc" stroke-width="2" opacity="0.7"/><path transform="translate(176.22,283.92)" d="M3.873,0A3.873,3.873,0,1,1,-3.873,0A3.873,3.873,0,1,1,3.873,0" fill="#f8c7cc" stroke-width="2" opacity="0.7"/><path transform="translate(96,357.47999999999996)" d="M3.873,0A3.873,3.873,0,1,1,-3.873,0A3.873,3.873,0,1,1,3.873,0" fill="#742183" stroke-width="2" opacity="0.7"/><path transform="translate(184.85999999999999,295.84000000000003)" d="M3.873,0A3.873,3.873,0,1,1,-3.873,0A3.873,3.873,0,1,1,3.873,0" fill="#81a684" stroke-width="2" opacity="0.7"/><path transform="translate(107.82,337.8)" d="M3.873,0A3.873,3.873,0,1,1,-3.873,0A3.873,3.873,0,1,1,3.873,0" fill="#166417" stroke-width="2" opacity="0.7"/><path transform="translate(124.68,302.32)" d="M3.873,0A3.873,3.873,0,1,1,-3.873,0A3.873,3.873,0,1,1,3.873,0" fill="#742183" stroke-width="2" opacity="0.7"/><path transform="translate(177.60000000000002,337.88)" d="M3.873,0A3.873,3.873,0,1,1,-3.873,0A3.873,3.873,0,1,1,3.873,0" fill="#f8c7cc" stroke-width="2" opacity="0.7"/><path transform="translate(81.9,340.64)" d="M3.873,0A3.873,3.873,0,1,1,-3.873,0A3.873,3.873,0,1,1,3.873,0" fill="#f8c7cc" stroke-width="2" opacity="0.7"/><path transform="translate(106.92,362.12)" d="M3.873,0A3.873,3.873,0,1,1,-3.873,0A3.873,3.873,0,1,1,3.873,0" fill="#742183" stroke-width="2" opacity="0.7"/><path transform="translate(125.46000000000001,345.28)" d="M3.873,0A3.873,3.873,0,1,1,-3.873,0A3.873,3.873,0,1,1,3.873,0" fill="#edae49" stroke-width="2" opacity="0.7"/><path transform="translate(97.08,379.84)" d="M3.873,0A3.873,3.873,0,1,1,-3.873,0A3.873,3.873,0,1,1,3.873,0" fill="#f8c7cc" stroke-width="2" opacity="0.7"/><path transform="translate(72.72,346.20000000000005)" d="M3.873,0A3.873,3.873,0,1,1,-3.873,0A3.873,3.873,0,1,1,3.873,0" fill="#edae49" stroke-width="2" opacity="0.7"/><path transform="translate(68.4,356)" d="M3.873,0A3.873,3.873,0,1,1,-3.873,0A3.873,3.873,0,1,1,3.873,0" fill="#166417" stroke-width="2" opacity="0.7"/><path transform="translate(109.32000000000001,337.84000000000003)" d="M3.873,0A3.873,3.873,0,1,1,-3.873,0A3.873,3.873,0,1,1,3.873,0" fill="#166417" stroke-width="2" opacity="0.7"/><path transform="translate(120.41999999999999,360.04)" d="M3.873,0A3.873,3.873,0,1,1,-3.873,0A3.873,3.873,0,1,1,3.873,0" fill="#f8c7cc" stroke-width="2" opacity="0.7"/><path transform="translate(232.56,278.56)" d="M3.873,0A3.873,3.873,0,1,1,-3.873,0A3.873,3.873,0,1,1,3.873,0" fill="#81a684" stroke-width="2" opacity="0.7"/><path transform="translate(188.64000000000001,335.04)" d="M3.873,0A3.873,3.873,0,1,1,-3.873,0A3.873,3.873,0,1,1,3.873,0" fill="#166417" stroke-width="2" opacity="0.7"/><path transform="translate(74.28,359.11999999999995)" d="M3.873,0A3.873,3.873,0,1,1,-3.873,0A3.873,3.873,0,1,1,3.873,0" fill="#f8c7cc" stroke-width="2" opacity="0.7"/><path transform="translate(122.27999999999999,349.68)" d="M3.873,0A3.873,3.873,0,1,1,-3.873,0A3.873,3.873,0,1,1,3.873,0" fill="#166417" stroke-width="2" opacity="0.7"/><path transform="translate(198.06,307.04)" d="M3.873,0A3.873,3.873,0,1,1,-3.873,0A3.873,3.873,0,1,1,3.873,0" fill="#f8c7cc" stroke-width="2" opacity="0.7"/><path transform="translate(408.66,303.44)" d="M3.873,0A3.873,3.873,0,1,1,-3.873,0A3.873,3.873,0,1,1,3.873,0" fill="#f8c7cc" stroke-width="2" opacity="0.7"/><path transform="translate(201.29999999999998,298.76)" d="M3.873,0A3.873,3.873,0,1,1,-3.873,0A3.873,3.873,0,1,1,3.873,0" fill="#742183" stroke-width="2" opacity="0.7"/><path transform="translate(212.58,308.15999999999997)" d="M3.873,0A3.873,3.873,0,1,1,-3.873,0A3.873,3.873,0,1,1,3.873,0" fill="#742183" stroke-width="2" opacity="0.7"/></g><g class="mark-line role-mark layer_1_marks" role="graphics-symbol" aria-roledescription="line mark container"><path d="M0,400L600,0" stroke="black" stroke-width="2" opacity="0.3"/></g><g class="mark-group role-legend" role="graphics-symbol" aria-roledescription="legend" aria-label="Symbol legend titled 'Region' for fill color with 5 values: Africa, Americas, Asia, Europe, Oceania"><g transform="translate(618,0)"><path class="background" aria-hidden="true" d="M0,0h58v80h-58Z" pointer-events="none"/><g><g class="mark-group role-legend-entry"><g transform="translate(0,17)"><path class="background" aria-hidden="true" d="M0,0h0v0h0Z" pointer-events="none"/><g><g class="mark-group role-scope" role="graphics-object" aria-roledescription="group mark container"><g transform="translate(0,0)"><path class="background" aria-hidden="true" d="M0,0h57.6748046875v11h-57.6748046875Z" pointer-events="none" opacity="1"/><g><g class="mark-symbol role-legend-symbol" pointer-events="none"><path transform="translate(6,6)" d="M5,0A5,5,0,1,1,-5,0A5,5,0,1,1,5,0" fill="#742183" stroke-width="1.5" opacity="0.7"/></g><g class="mark-text role-legend-label" pointer-events="none"><text text-anchor="start" transform="translate(16,9)" font-family="Arial" font-size="10px" fill="#000" opacity="1">Africa</text></g></g><path class="foreground" aria-hidden="true" d="" pointer-events="none" display="none"/></g><g transform="translate(0,13)"><path class="background" aria-hidden="true" d="M0,0h57.6748046875v11h-57.6748046875Z" pointer-events="none" opacity="1"/><g><g class="mark-symbol role-legend-symbol" pointer-events="none"><path transform="translate(6,6)" d="M5,0A5,5,0,1,1,-5,0A5,5,0,1,1,5,0" fill="#166417" stroke-width="1.5" opacity="0.7"/></g><g class="mark-text role-legend-label" pointer-events="none"><text text-anchor="start" transform="translate(16,9)" font-family="Arial" font-size="10px" fill="#000" opacity="1">Americas</text></g></g><path class="foreground" aria-hidden="true" d="" pointer-events="none" display="none"/></g><g transform="translate(0,26)"><path class="background" aria-hidden="true" d="M0,0h57.6748046875v11h-57.6748046875Z" pointer-events="none" opacity="1"/><g><g class="mark-symbol role-legend-symbol" pointer-events="none"><path transform="translate(6,6)" d="M5,0A5,5,0,1,1,-5,0A5,5,0,1,1,5,0" fill="#f8c7cc" stroke-width="1.5" opacity="0.7"/></g><g class="mark-text role-legend-label" pointer-events="none"><text text-anchor="start" transform="translate(16,9)" font-family="Arial" font-size="10px" fill="#000" opacity="1">Asia</text></g></g><path class="foreground" aria-hidden="true" d="" pointer-events="none" display="none"/></g><g transform="translate(0,39)"><path class="background" aria-hidden="true" d="M0,0h57.6748046875v11h-57.6748046875Z" pointer-events="none" opacity="1"/><g><g class="mark-symbol role-legend-symbol" pointer-events="none"><path transform="translate(6,6)" d="M5,0A5,5,0,1,1,-5,0A5,5,0,1,1,5,0" fill="#edae49" stroke-width="1.5" opacity="0.7"/></g><g class="mark-text role-legend-label" pointer-events="none"><text text-anchor="start" transform="translate(16,9)" font-family="Arial" font-size="10px" fill="#000" opacity="1">Europe</text></g></g><path class="foreground" aria-hidden="true" d="" pointer-events="none" display="none"/></g><g transform="translate(0,52)"><path class="background" aria-hidden="true" d="M0,0h57.6748046875v11h-57.6748046875Z" pointer-events="none" opacity="1"/><g><g class="mark-symbol role-legend-symbol" pointer-events="none"><path transform="translate(6,6)" d="M5,0A5,5,0,1,1,-5,0A5,5,0,1,1,5,0" fill="#81a684" stroke-width="1.5" opacity="0.7"/></g><g class="mark-text role-legend-label" pointer-events="none"><text text-anchor="start" transform="translate(16,9)" font-family="Arial" font-size="10px" fill="#000" opacity="1">Oceania</text></g></g><path class="foreground" aria-hidden="true" d="" pointer-events="none" display="none"/></g></g></g><path class="foreground" aria-hidden="true" d="" pointer-events="none" display="none"/></g></g><g class="mark-text role-legend-title" pointer-events="none"><text text-anchor="start" transform="translate(0,9)" font-family="Arial" font-size="12px" font-weight="bold" fill="#000" opacity="1">Region</text></g></g><path class="foreground" aria-hidden="true" d="" pointer-events="none" display="none"/></g></g><g class="mark-group role-title"><g transform="translate(-45.021484375,-26)"><path class="background" aria-hidden="true" d="M0,0h0v0h0Z" pointer-events="none"/><g><g class="mark-text role-title-text" role="graphics-symbol" aria-roledescription="title" aria-label="Title text 'Youth not in education, employment or training by gender, modeled ILO estimate'" pointer-events="none"><text text-anchor="start" transform="translate(0,13)" font-family="Helvetica" font-size="16px" font-weight="bold" fill="#333333" opacity="1">Youth not in education, employment or training by gender, modeled ILO estimate</text></g></g><path class="foreground" aria-hidden="true" d="" pointer-events="none" display="none"/></g></g></g><path class="foreground" aria-hidden="true" d="" display="none"/></g></g></g></svg>