<svg xmlns="http://www.w3.org/2000/svg" xmlns:xlink="http://www.w3.org/1999/xlink" version="1.1" class="marks" width="732" height="472" viewBox="0 0 732 472"><rect width="732" height="472" fill="white"/><g fill="none" stroke-miterlimit="10" transform="translate(51,31)"><g class="mark-group role-frame root" role="graphics-object" aria-roledescription="group mark container"><g transform="translate(0,0)"><path class="background" aria-hidden="true" d="M0.5,0.5h600v400h-600Z" stroke="#ddd"/><g><g class="mark-group role-axis" aria-hidden="true"><g transform="translate(0.5,400.5)"><path class="background" aria-hidden="true" d="M0,0h0v0h0Z" pointer-events="none"/><g><g class="mark-rule role-axis-grid" pointer-events="none"><line transform="translate(0,-400)" x2="0" y2="400" stroke="#ddd" stroke-width="1" opacity="1"/><line transform="translate(30,-400)" x2="0" y2="400" stroke="#ddd" stroke-width="1" opacity="1"/><line transform="translate(60,-400)" x2="0" y2="400" stroke="#ddd" stroke-width="1" opacity="1"/><line transform="translate(90,-400)" x2="0" y2="400" stroke="#ddd" stroke-width="1" opacity="1"/><line transform="translate(120,-400)" x2="0" y2="400" stroke="#ddd" stroke-width="1" opacity="1"/><line transform="translate(150,-400)" x2="0" y2="400" stroke="#ddd" stroke-width="1" opacity="1"/><line transform="translate(180,-400)" x2="0" y2="400" stroke="#ddd" stroke-width="1" opacity="1"/><line transform="translate(210,-400)" x2="0" y2="400" stroke="#ddd" stroke-width="1" opacity="1"/><line transform="translate(240,-400)" x2="0" y2="400" stroke="#ddd" stroke-width="1" opacity="1"/><line transform="translate(270,-400)" x2="0" y2="400" stroke="#ddd" stroke-width="1" opacity="1"/><line transform="translate(300,-400)" x2="0" y2="400" stroke="#ddd" stroke-width="1" opacity="1"/><line transform="translate(330,-400)" x2="0" y2="400" stroke="#ddd" stroke-width="1" opacity="1"/><line transform="translate(360,-400)" x2="0" y2="400" stroke="#ddd" stroke-width="1" opacity="1"/><line transform="translate(390,-400)" x2="0" y2="400" stroke="#ddd" stroke-width="1" opacity="1"/><line transform="translate(420,-400)" x2="0" y2="400" stroke="#ddd" stroke-width="1" opacity="1"/><line transform="translate(450,-400)" x2="0" y2="400" stroke="#ddd" stroke-width="1" opacity="1"/><line transform="translate(480,-400)" x2="0" y2="400" stroke="#ddd" stroke-width="1" opacity="1"/><line transform="translate(510,-400)" x2="0" y2="400" stroke="#ddd" stroke-width="1" opacity="1"/><line transform="translate(540,-400)" x2="0" y2="400" stroke="#ddd" stroke-width="1" opacity="1"/><line transform="translate(570,-400)" x2="0" y2="400" stroke="#ddd" stroke-width="1" opacity="1"/><line transform="translate(600,-400)" x2="0" y2="400" stroke="#ddd" stroke-width="1" opacity="1"/></g></g><path class="foreground" aria-hidden="true" d="" pointer-events="none" display="none"/></g></g><g class="mark-group role-axis" aria-hidden="true"><g transform="translate(0.5,0.5)"><path class="background" aria-hidden="true" d="M0,0h0v0h0Z" pointer-events="none"/><g><g class="mark-rule role-axis-grid" pointer-events="none"><line transform="translate(0,400)" x2="600" y2="0" stroke="#ddd" stroke-width="1" opacity="1"/><line transform="translate(0,360)" x2="600" y2="0" stroke="#ddd" stroke-width="1" opacity="1"/><line transform="translate(0,320)" x2="600" y2="0" stroke="#ddd" stroke-width="1" opacity="1"/><line transform="translate(0,280)" x2="600" y2="0" stroke="#ddd" stroke-width="1" opacity="1"/><line transform="translate(0,240)" x2="600" y2="0" stroke="#ddd" stroke-width="1" opacity="1"/><line transform="translate(0,200)" x2="600" y2="0" stroke="#ddd" stroke-width="1" opacity="1"/><line transform="translate(0,160)" x2="600" y2="0" stroke="#ddd" stroke-width="1" opacity="1"/><line transform="translate(0,120)" x2="600" y2="0" stroke="#ddd" stroke-width="1" opacity="1"/><line transform="translate(0,80)" x2="600" y2="0" stroke="#ddd" stroke-width="1" opacity="1"/><line transform="translate(0,40)" x2="600" y2="0" stroke="#ddd" stroke-width="1" opacity="1"/><line transform="translate(0,0)" x2="600" y2="0" stroke="#ddd" stroke-width="1" opacity="1"/></g></g><path class="foreground" aria-hidden="true" d="" pointer-events="none" display="none"/></g></g><g class="mark-group role-axis" role="graphics-symbol" aria-roledescription="axis" aria-label="X-axis titled '% Female' for a linear scale with values from 0 to 100"><g transform="translate(0.5,400.5)"><path class="background" aria-hidden="true" d="M0,0h0v0h0Z" pointer-events="none"/><g><g class="mark-rule role-axis-tick" pointer-events="none"><line transform="translate(0,0)" x2="0" y2="5" stroke="#888" stroke-width="1" opacity="1"/><line transform="translate(30,0)" x2="0" y2="5" stroke="#888" stroke-width="1" opacity="1"/><line transform="translate(60,0)" x2="0" y2="5" stroke="#888" stroke-width="1" opacity="1"/><line transform="translate(90,0)" x2="0" y2="5" stroke="#888" stroke-width="1" opacity="1"/><line transform="translate(120,0)" x2="0" y2="5" stroke="#888" stroke-width="1" opacity="1"/><line transform="translate(150,0)" x2="0" y2="5" stroke="#888" stroke-width="1" opacity="1"/><line transform="translate(180,0)" x2="0" y2="5" stroke="#888" stroke-width="1" opacity="1"/><line transform="translate(210,0)" x2="0" y2="5" stroke="#888" stroke-width="1" opacity="1"/><line transform="translate(240,0)" x2="0" y2="5" stroke="#888" stroke-width="1" opacity="1"/><line transform="translate(270,0)" x2="0" y2="5" stroke="#888" stroke-width="1" opacity="1"/><line transform="translate(300,0)" x2="0" y2="5" stroke="#888" stroke-width="1" opacity="1"/><line transform="translate(330,0)" x2="0" y2="5" stroke="#888" stroke-width="1" opacity="1"/><line transform="translate(360,0)" x2="0" y2="5" stroke="#888" stroke-width="1" opacity="1"/><line transform="translate(390,0)" x2="0" y2="5" stroke="#888" stroke-width="1" opacity="1"/><line transform="translate(420,0)" x2="0" y2="5" stroke="#888" stroke-width="1" opacity="1"/><line transform="translate(450,0)" x2="0" y2="5" stroke="#888" stroke-width="1" opacity="1"/><line transform="translate(480,0)" x2="0" y2="5" stroke="#888" stroke-width="1" opacity="1"/><line transform="translate(510,0)" x2="0" y2="5" stroke="#888" stroke-width="1" opacity="1"/><line transform="translate(540,0)" x2="0" y2="5" stroke="#888" stroke-width="1" opacity="1"/><line transform="translate(570,0)" x2="0" y2="5" stroke="#888" stroke-width="1" opacity="1"/><line transform="translate(600,0)" x2="0" y2="5" stroke="#888" stroke-width="1" opacity="1"/></g><g class="mark-text role-axis-label" pointer-events="none"><text text-anchor="start" transform="translate(0,16)" font-family="Arial" font-size="12px" fill="#333333" opacity="1">0</text><text text-anchor="middle" transform="translate(30,16)" font-family="Arial" font-size="12px" fill="#333333" opacity="1">5</text><text text-anchor="middle" transform="translate(60,16)" font-family="Arial" font-size="12px" fill="#333333" opacity="1">10</text><text text-anchor="middle" transform="translate(90,16)" font-family="Arial" font-size="12px" fill="#333333" opacity="1">15</text><text text-anchor="middle" transform="translate(120,16)" font-family="Arial" font-size="12px" fill="#333333" opacity="1">20</text><text text-anchor="middle" transform="translate(150,16)" font-family="Arial" font-size="12px" fill="#333333" opacity="1">25</text><text text-anchor="middle" transform="translate(180,16)" font-family="Arial" font-size="12px" fill="#333333" opacity="1">30</text><text text-anchor="middle" transform="translate(210,16)" font-family="Arial" font-size="12px" fill="#333333" opacity="1">35</text><text text-anchor="middle" transform="translate(240,16)" font-family="Arial" font-size="12px" fill="#333333" opacity="1">40</text><text text-anchor="middle" transform="translate(270,16)" font-family="Arial" font-size="12px" fill="#333333" opacity="1">45</text><text text-anchor="middle" transform="translate(300,16)" font-family="Arial" font-size="12px" fill="#333333" opacity="1">50</text><text text-anchor="middle" transform="translate(330,16)" font-family="Arial" font-size="12px" fill="#333333" opacity="1">55</text><text text-anchor="middle" transform="translate(360,16)" font-family="Arial" font-size="12px" fill="#333333" opacity="1">60</text><text text-anchor="middle" transform="translate(390,16)" font-family="Arial" font-size="12px" fill="#333333" opacity="1">65</text><text text-anchor="middle" transform="translate(420,16)" font-family="Arial" font-size="12px" fill="#333333" opacity="1">70</text><text text-anchor="middle" transform="translate(450,16)" font-family="Arial" font-size="12px" fill="#333333" opacity="1">75</text><text text-anchor="middle" transform="translate(480,16)" font-family="Arial" font-size="12px" fill="#333333" opacity="1">80</text><text text-anchor="middle" transform="translate(510,16)" font-family="Arial" font-size="12px" fill="#333333" opacity="1">85</text><text text-anchor="middle" transform="translate(540,16)" font-family="Arial" font-size="12px" fill="#333333" opacity="1">90</text><text text-anchor="middle" transform="translate(570,16)" font-family="Arial" font-size="12px" fill="#333333" opacity="1">95</text><text text-anchor="end" transform="translate(600,16)" font-family="Arial" font-size="12px" fill="#333333" opacity="1">100</text></g><g class="mark-rule role-axis-domain" pointer-events="none"><line transform="translate(0,0)" x2="600" y2="0" stroke="#888" stroke-width="1" opacity="1"/></g><g class="mark-text role-axis-title" pointer-events="none"><text text-anchor="middle" transform="translate(300,33)" font-family="Arial" font-size="14px" font-weight="bold" fill="#333333" opacity="1">% Female</text></g></g><path class="foreground" aria-hidden="true" d="" pointer-events="none" display="none"/></g></g><g class="mark-group role-axis" role="graphics-symbol" aria-roledescription="axis" aria-label="Y-axis titled '% Male' for a linear scale with values from 0 to 100"><g transform="translate(0.5,0.5)"><path class="background" aria-hidden="true" d="M0,0h0v0h0Z" pointer-events="none"/><g><g class="mark-rule role-axis-tick" pointer-events="none"><line transform="translate(0,400)" x2="-5" y2="0" stroke="#888" stroke-width="1" opacity="1"/><line transform="translate(0,360)" x2="-5" y2="0" stroke="#888" stroke-width="1" opacity="1"/><line transform="translate(0,320)" x2="-5" y2="0" stroke="#888" stroke-width="1" opacity="1"/><line transform="translate(0,280)" x2="-5" y2="0" stroke="#888" stroke-width="1" opacity="1"/><line transform="translate(0,240)" x2="-5" y2="0" stroke="#888" stroke-width="1" opacity="1"/><line transform="translate(0,200)" x2="-5" y2="0" stroke="#888" stroke-width="1" opacity="1"/><line transform="translate(0,160)" x2="-5" y2="0" stroke="#888" stroke-width="1" opacity="1"/><line transform="translate(0,120)" x2="-5" y2="0" stroke="#888" stroke-width="1" opacity="1"/><line transform="translate(0,80)" x2="-5" y2="0" stroke="#888" stroke-width="1" opacity="1"/><line transform="translate(0,40)" x2="-5" y2="0" stroke="#888" stroke-width="1" opacity="1"/><line transform="translate(0,0)" x2="-5" y2="0" stroke="#888" stroke-width="1" opacity="1"/></g><g class="mark-text role-axis-label" pointer-events="none"><text text-anchor="end" transform="translate(-7,404)" font-family="Arial" font-size="12px" fill="#333333" opacity="1">0</text><text text-anchor="end" transform="translate(-7,364)" font-family="Arial" font-size="12px" fill="#333333" opacity="1">10</text><text text-anchor="end" transform="translate(-7,324)" font-family="Arial" font-size="12px" fill="#333333" opacity="1">20</text><text text-anchor="end" transform="translate(-7,284)" font-family="Arial" font-size="12px" fill="#333333" opacity="1">30</text><text text-anchor="end" transform="translate(-7,244)" font-family="Arial" font-size="12px" fill="#333333" opacity="1">40</text><text text-anchor="end" transform="translate(-7,204)" font-family="Arial" font-size="12px" fill="#333333" opacity="1">50</text><text text-anchor="end" transform="translate(-7,164)" font-family="Arial" font-size="12px" fill="#333333" opacity="1">60</text><text text-anchor="end" transform="translate(-7,124.00000000000001)" font-family="Arial" font-size="12px" fill="#333333" opacity="1">70</text><text text-anchor="end" transform="translate(-7,83.99999999999999)" font-family="Arial" font-size="12px" fill="#333333" opacity="1">80</text><text text-anchor="end" transform="translate(-7,43.99999999999999)" font-family="Arial" font-size="12px" fill="#333333" opacity="1">90</text><text text-anchor="end" transform="translate(-7,4)" font-family="Arial" font-size="12px" fill="#333333" opacity="1">100</text></g><g class="mark-rule role-axis-domain" pointer-events="none"><line transform="translate(0,400)" x2="0" y2="-400" stroke="#888" stroke-width="1" opacity="1"/></g><g class="mark-text role-axis-title" pointer-events="none"><text text-anchor="middle" transform="translate(-31.021484375,200) rotate(-90) translate(0,-3)" font-family="Arial" font-size="14px" font-weight="bold" fill="#333333" opacity="1">% Male</text></g></g><path class="foreground" aria-hidden="true" d="" pointer-events="none" display="none"/></g></g><g class="mark-symbol role-mark layer_0_marks" role="graphics-symbol" aria-roledescription="symbol mark container"><path transform="translate(53.28,324.64)" d="M3.873,0A3.873,3.873,0,1,1,-3.873,0A3.873,3.873,0,1,1,3.873,0" fill="#f8c7cc" stroke-width="2" opacity="0.7"/><path transform="translate(297.42,218.87999999999997)" d="M3.873,0A3.873,3.873,0,1,1,-3.873,0A3.873,3.873,0,1,1,3.873,0" fill="#edae49" stroke-width="2" opacity="0.7"/><path transform="translate(444.17999999999995,128.28)" d="M3.873,0A3.873,3.873,0,1,1,-3.873,0A3.873,3.873,0,1,1,3.873,0" fill="#742183" stroke-width="2" opacity="0.7"/><path transform="translate(160.8,226.24000000000004)" d="M3.873,0A3.873,3.873,0,1,1,-3.873,0A3.873,3.873,0,1,1,3.873,0" fill="#742183" stroke-width="2" opacity="0.7"/><path transform="translate(449.70000000000005,117.83999999999999)" d="M3.873,0A3.873,3.873,0,1,1,-3.873,0A3.873,3.873,0,1,1,3.873,0" fill="#166417" stroke-width="2" opacity="0.7"/><path transform="translate(197.88,228.92000000000002)" d="M3.873,0A3.873,3.873,0,1,1,-3.873,0A3.873,3.873,0,1,1,3.873,0" fill="#f8c7cc" stroke-width="2" opacity="0.7"/><path transform="translate(528.9599999999999,77.8)" d="M3.873,0A3.873,3.873,0,1,1,-3.873,0A3.873,3.873,0,1,1,3.873,0" fill="#81a684" stroke-width="2" opacity="0.7"/><path transform="translate(538.86,59.959999999999965)" d="M3.873,0A3.873,3.873,0,1,1,-3.873,0A3.873,3.873,0,1,1,3.873,0" fill="#edae49" stroke-width="2" opacity="0.7"/><path transform="translate(173.46,252.88)" d="M3.873,0A3.873,3.873,0,1,1,-3.873,0A3.873,3.873,0,1,1,3.873,0" fill="#f8c7cc" stroke-width="2" opacity="0.7"/><path transform="translate(541.98,92.43999999999998)" d="M3.873,0A3.873,3.873,0,1,1,-3.873,0A3.873,3.873,0,1,1,3.873,0" fill="#166417" stroke-width="2" opacity="0.7"/><path transform="translate(576.6,9.439999999999982)" d="M3.873,0A3.873,3.873,0,1,1,-3.873,0A3.873,3.873,0,1,1,3.873,0" fill="#f8c7cc" stroke-width="2" opacity="0.7"/><path transform="translate(199.02,216.56)" d="M3.873,0A3.873,3.873,0,1,1,-3.873,0A3.873,3.873,0,1,1,3.873,0" fill="#f8c7cc" stroke-width="2" opacity="0.7"/><path transform="translate(515.76,107.64)" d="M3.873,0A3.873,3.873,0,1,1,-3.873,0A3.873,3.873,0,1,1,3.873,0" fill="#166417" stroke-width="2" opacity="0.7"/><path transform="translate(581.58,25.51999999999999)" d="M3.873,0A3.873,3.873,0,1,1,-3.873,0A3.873,3.873,0,1,1,3.873,0" fill="#edae49" stroke-width="2" opacity="0.7"/><path transform="translate(533.4,74.32)" d="M3.873,0A3.873,3.873,0,1,1,-3.873,0A3.873,3.873,0,1,1,3.873,0" fill="#edae49" stroke-width="2" opacity="0.7"/><path transform="translate(406.86,131.56)" d="M3.873,0A3.873,3.873,0,1,1,-3.873,0A3.873,3.873,0,1,1,3.873,0" fill="#166417" stroke-width="2" opacity="0.7"/><path transform="translate(100.74,298.76)" d="M3.873,0A3.873,3.873,0,1,1,-3.873,0A3.873,3.873,0,1,1,3.873,0" fill="#742183" stroke-width="2" opacity="0.7"/><path transform="translate(102.72000000000001,250.24)" d="M3.873,0A3.873,3.873,0,1,1,-3.873,0A3.873,3.873,0,1,1,3.873,0" fill="#f8c7cc" stroke-width="2" opacity="0.7"/><path transform="translate(155.27999999999997,260.08000000000004)" d="M3.873,0A3.873,3.873,0,1,1,-3.873,0A3.873,3.873,0,1,1,3.873,0" fill="#166417" stroke-width="2" opacity="0.7"/><path transform="translate(445.86,96.72)" d="M3.873,0A3.873,3.873,0,1,1,-3.873,0A3.873,3.873,0,1,1,3.873,0" fill="#edae49" stroke-width="2" opacity="0.7"/><path transform="translate(418.20000000000005,125.92000000000003)" d="M3.873,0A3.873,3.873,0,1,1,-3.873,0A3.873,3.873,0,1,1,3.873,0" fill="#742183" stroke-width="2" opacity="0.7"/><path transform="translate(438.36,143.83999999999997)" d="M3.873,0A3.873,3.873,0,1,1,-3.873,0A3.873,3.873,0,1,1,3.873,0" fill="#166417" stroke-width="2" opacity="0.7"/><path transform="translate(546.84,28.720000000000034)" d="M3.873,0A3.873,3.873,0,1,1,-3.873,0A3.873,3.873,0,1,1,3.873,0" fill="#f8c7cc" stroke-width="2" opacity="0.7"/><path transform="translate(549.9000000000001,53.88000000000002)" d="M3.873,0A3.873,3.873,0,1,1,-3.873,0A3.873,3.873,0,1,1,3.873,0" fill="#edae49" stroke-width="2" opacity="0.7"/><path transform="translate(72.17999999999999,334.71999999999997)" d="M3.873,0A3.873,3.873,0,1,1,-3.873,0A3.873,3.873,0,1,1,3.873,0" fill="#742183" stroke-width="2" opacity="0.7"/><path transform="translate(56.88,315.88)" d="M3.873,0A3.873,3.873,0,1,1,-3.873,0A3.873,3.873,0,1,1,3.873,0" fill="#742183" stroke-width="2" opacity="0.7"/><path transform="translate(320.28000000000003,132.6)" d="M3.873,0A3.873,3.873,0,1,1,-3.873,0A3.873,3.873,0,1,1,3.873,0" fill="#742183" stroke-width="2" opacity="0.7"/><path transform="translate(236.52,180.08)" d="M3.873,0A3.873,3.873,0,1,1,-3.873,0A3.873,3.873,0,1,1,3.873,0" fill="#f8c7cc" stroke-width="2" opacity="0.7"/><path transform="translate(102.66,272.12)" d="M3.873,0A3.873,3.873,0,1,1,-3.873,0A3.873,3.873,0,1,1,3.873,0" fill="#742183" stroke-width="2" opacity="0.7"/><path transform="translate(535.92,64.75999999999998)" d="M3.873,0A3.873,3.873,0,1,1,-3.873,0A3.873,3.873,0,1,1,3.873,0" fill="#166417" stroke-width="2" opacity="0.7"/><path transform="translate(17.700000000000003,361.24)" d="M3.873,0A3.873,3.873,0,1,1,-3.873,0A3.873,3.873,0,1,1,3.873,0" fill="#742183" stroke-width="2" opacity="0.7"/><path transform="translate(25.380000000000003,350.2)" d="M3.873,0A3.873,3.873,0,1,1,-3.873,0A3.873,3.873,0,1,1,3.873,0" fill="#742183" stroke-width="2" opacity="0.7"/><path transform="translate(534,73.55999999999997)" d="M3.873,0A3.873,3.873,0,1,1,-3.873,0A3.873,3.873,0,1,1,3.873,0" fill="#edae49" stroke-width="2" opacity="0.7"/><path transform="translate(459.36,101.80000000000003)" d="M3.873,0A3.873,3.873,0,1,1,-3.873,0A3.873,3.873,0,1,1,3.873,0" fill="#166417" stroke-width="2" opacity="0.7"/><path transform="translate(327.24,184.04)" d="M3.873,0A3.873,3.873,0,1,1,-3.873,0A3.873,3.873,0,1,1,3.873,0" fill="#f8c7cc" stroke-width="2" opacity="0.7"/><path transform="translate(338.46,197.8)" d="M3.873,0A3.873,3.873,0,1,1,-3.873,0A3.873,3.873,0,1,1,3.873,0" fill="#166417" stroke-width="2" opacity="0.7"/><path transform="translate(208.68,208.76000000000002)" d="M3.873,0A3.873,3.873,0,1,1,-3.873,0A3.873,3.873,0,1,1,3.873,0" fill="#742183" stroke-width="2" opacity="0.7"/><path transform="translate(52.559999999999995,327.08)" d="M3.873,0A3.873,3.873,0,1,1,-3.873,0A3.873,3.873,0,1,1,3.873,0" fill="#742183" stroke-width="2" opacity="0.7"/><path transform="translate(70.92,255.72)" d="M3.873,0A3.873,3.873,0,1,1,-3.873,0A3.873,3.873,0,1,1,3.873,0" fill="#742183" stroke-width="2" opacity="0.7"/><path transform="translate(458.70000000000005,119.32000000000001)" d="M3.873,0A3.873,3.873,0,1,1,-3.873,0A3.873,3.873,0,1,1,3.873,0" fill="#166417" stroke-width="2" opacity="0.7"/><path transform="translate(102.35999999999999,269.03999999999996)" d="M3.873,0A3.873,3.873,0,1,1,-3.873,0A3.873,3.873,0,1,1,3.873,0" fill="#742183" stroke-width="2" opacity="0.7"/><path transform="translate(543.3,67.60000000000002)" d="M3.873,0A3.873,3.873,0,1,1,-3.873,0A3.873,3.873,0,1,1,3.873,0" fill="#edae49" stroke-width="2" opacity="0.7"/><path transform="translate(475.25999999999993,115.92000000000002)" d="M3.873,0A3.873,3.873,0,1,1,-3.873,0A3.873,3.873,0,1,1,3.873,0" fill="#166417" stroke-width="2" opacity="0.7"/><path transform="translate(545.22,49.48000000000001)" d="M3.873,0A3.873,3.873,0,1,1,-3.873,0A3.873,3.873,0,1,1,3.873,0" fill="#f8c7cc" stroke-width="2" opacity="0.7"/><path transform="translate(529.74,77.48000000000003)" d="M3.873,0A3.873,3.873,0,1,1,-3.873,0A3.873,3.873,0,1,1,3.873,0" fill="#edae49" stroke-width="2" opacity="0.7"/><path transform="translate(567,45.44000000000001)" d="M3.873,0A3.873,3.873,0,1,1,-3.873,0A3.873,3.873,0,1,1,3.873,0" fill="#edae49" stroke-width="2" opacity="0.7"/><path transform="translate(213.66,196.15999999999997)" d="M3.873,0A3.873,3.873,0,1,1,-3.873,0A3.873,3.873,0,1,1,3.873,0" fill="#742183" stroke-width="2" opacity="0.7"/><path transform="translate(411.11999999999995,205.15999999999997)" d="M3.873,0A3.873,3.873,0,1,1,-3.873,0A3.873,3.873,0,1,1,3.873,0" fill="#166417" stroke-width="2" opacity="0.7"/><path transform="translate(223.13999999999996,186.44)" d="M3.873,0A3.873,3.873,0,1,1,-3.873,0A3.873,3.873,0,1,1,3.873,0" fill="#166417" stroke-width="2" opacity="0.7"/><path transform="translate(426.24,108.39999999999996)" d="M3.873,0A3.873,3.873,0,1,1,-3.873,0A3.873,3.873,0,1,1,3.873,0" fill="#742183" stroke-width="2" opacity="0.7"/><path transform="translate(337.98,126.32)" d="M3.873,0A3.873,3.873,0,1,1,-3.873,0A3.873,3.873,0,1,1,3.873,0" fill="#166417" stroke-width="2" opacity="0.7"/><path transform="translate(54.300000000000004,333.92)" d="M3.873,0A3.873,3.873,0,1,1,-3.873,0A3.873,3.873,0,1,1,3.873,0" fill="#742183" stroke-width="2" opacity="0.7"/><path transform="translate(119.03999999999999,260.56)" d="M3.873,0A3.873,3.873,0,1,1,-3.873,0A3.873,3.873,0,1,1,3.873,0" fill="#742183" stroke-width="2" opacity="0.7"/><path transform="translate(560.04,57.2)" d="M3.873,0A3.873,3.873,0,1,1,-3.873,0A3.873,3.873,0,1,1,3.873,0" fill="#edae49" stroke-width="2" opacity="0.7"/><path transform="translate(348.96,122.72000000000003)" d="M3.873,0A3.873,3.873,0,1,1,-3.873,0A3.873,3.873,0,1,1,3.873,0" fill="#742183" stroke-width="2" opacity="0.7"/><path transform="translate(86.94,339.40000000000003)" d="M3.873,0A3.873,3.873,0,1,1,-3.873,0A3.873,3.873,0,1,1,3.873,0" fill="#742183" stroke-width="2" opacity="0.7"/><path transform="translate(427.14,131.2)" d="M3.873,0A3.873,3.873,0,1,1,-3.873,0A3.873,3.873,0,1,1,3.873,0" fill="#81a684" stroke-width="2" opacity="0.7"/><path transform="translate(541.32,71.36)" d="M3.873,0A3.873,3.873,0,1,1,-3.873,0A3.873,3.873,0,1,1,3.873,0" fill="#edae49" stroke-width="2" opacity="0.7"/><path transform="translate(539.88,64.16000000000004)" d="M3.873,0A3.873,3.873,0,1,1,-3.873,0A3.873,3.873,0,1,1,3.873,0" fill="#edae49" stroke-width="2" opacity="0.7"/><path transform="translate(511.32,90.07999999999998)" d="M3.873,0A3.873,3.873,0,1,1,-3.873,0A3.873,3.873,0,1,1,3.873,0" fill="#81a684" stroke-width="2" opacity="0.7"/><path transform="translate(367.62,124.04000000000002)" d="M3.873,0A3.873,3.873,0,1,1,-3.873,0A3.873,3.873,0,1,1,3.873,0" fill="#742183" stroke-width="2" opacity="0.7"/><path transform="translate(110.64,275.4)" d="M3.873,0A3.873,3.873,0,1,1,-3.873,0A3.873,3.873,0,1,1,3.873,0" fill="#742183" stroke-width="2" opacity="0.7"/><path transform="translate(326.7,208.07999999999998)" d="M3.873,0A3.873,3.873,0,1,1,-3.873,0A3.873,3.873,0,1,1,3.873,0" fill="#f8c7cc" stroke-width="2" opacity="0.7"/><path transform="translate(561.1800000000001,43.000000000000014)" d="M3.873,0A3.873,3.873,0,1,1,-3.873,0A3.873,3.873,0,1,1,3.873,0" fill="#edae49" stroke-width="2" opacity="0.7"/><path transform="translate(108.72,275.52)" d="M3.873,0A3.873,3.873,0,1,1,-3.873,0A3.873,3.873,0,1,1,3.873,0" fill="#742183" stroke-width="2" opacity="0.7"/><path transform="translate(414.18,166.8)" d="M3.873,0A3.873,3.873,0,1,1,-3.873,0A3.873,3.873,0,1,1,3.873,0" fill="#edae49" stroke-width="2" opacity="0.7"/><path transform="translate(550.6800000000001,63.12000000000002)" d="M3.873,0A3.873,3.873,0,1,1,-3.873,0A3.873,3.873,0,1,1,3.873,0" fill="#81a684" stroke-width="2" opacity="0.7"/><path transform="translate(309.42,166.52)" d="M3.873,0A3.873,3.873,0,1,1,-3.873,0A3.873,3.873,0,1,1,3.873,0" fill="#166417" stroke-width="2" opacity="0.7"/><path transform="translate(65.69999999999999,307.08000000000004)" d="M3.873,0A3.873,3.873,0,1,1,-3.873,0A3.873,3.873,0,1,1,3.873,0" fill="#742183" stroke-width="2" opacity="0.7"/><path transform="translate(134.46,250.64000000000001)" d="M3.873,0A3.873,3.873,0,1,1,-3.873,0A3.873,3.873,0,1,1,3.873,0" fill="#742183" stroke-width="2" opacity="0.7"/><path transform="translate(400.79999999999995,140.79999999999998)" d="M3.873,0A3.873,3.873,0,1,1,-3.873,0A3.873,3.873,0,1,1,3.873,0" fill="#166417" stroke-width="2" opacity="0.7"/><path transform="translate(116.7,278.47999999999996)" d="M3.873,0A3.873,3.873,0,1,1,-3.873,0A3.873,3.873,0,1,1,3.873,0" fill="#166417" stroke-width="2" opacity="0.7"/><path transform="translate(272.04,161.83999999999997)" d="M3.873,0A3.873,3.873,0,1,1,-3.873,0A3.873,3.873,0,1,1,3.873,0" fill="#166417" stroke-width="2" opacity="0.7"/><path transform="translate(569.52,47.39999999999998)" d="M3.873,0A3.873,3.873,0,1,1,-3.873,0A3.873,3.873,0,1,1,3.873,0" fill="#f8c7cc" stroke-width="2" opacity="0.7"/><path transform="translate(539.88,60.00000000000001)" d="M3.873,0A3.873,3.873,0,1,1,-3.873,0A3.873,3.873,0,1,1,3.873,0" fill="#edae49" stroke-width="2" opacity="0.7"/><path transform="translate(542.88,69.04000000000003)" d="M3.873,0A3.873,3.873,0,1,1,-3.873,0A3.873,3.873,0,1,1,3.873,0" fill="#edae49" stroke-width="2" opacity="0.7"/><path transform="translate(128.16,305)" d="M3.873,0A3.873,3.873,0,1,1,-3.873,0A3.873,3.873,0,1,1,3.873,0" fill="#f8c7cc" stroke-width="2" opacity="0.7"/><path transform="translate(233.94000000000003,194.19999999999996)" d="M3.873,0A3.873,3.873,0,1,1,-3.873,0A3.873,3.873,0,1,1,3.873,0" fill="#f8c7cc" stroke-width="2" opacity="0.7"/><path transform="translate(364.74,172.16)" d="M3.873,0A3.873,3.873,0,1,1,-3.873,0A3.873,3.873,0,1,1,3.873,0" fill="#f8c7cc" stroke-width="2" opacity="0.7"/><path transform="translate(465.66,129)" d="M3.873,0A3.873,3.873,0,1,1,-3.873,0A3.873,3.873,0,1,1,3.873,0" fill="#f8c7cc" stroke-width="2" opacity="0.7"/><path transform="translate(552.36,76.72000000000003)" d="M3.873,0A3.873,3.873,0,1,1,-3.873,0A3.873,3.873,0,1,1,3.873,0" fill="#edae49" stroke-width="2" opacity="0.7"/><path transform="translate(548.6999999999999,56.08)" d="M3.873,0A3.873,3.873,0,1,1,-3.873,0A3.873,3.873,0,1,1,3.873,0" fill="#f8c7cc" stroke-width="2" opacity="0.7"/><path transform="translate(503.28,102)" d="M3.873,0A3.873,3.873,0,1,1,-3.873,0A3.873,3.873,0,1,1,3.873,0" fill="#edae49" stroke-width="2" opacity="0.7"/><path transform="translate(404.88000000000005,170.96)" d="M3.873,0A3.873,3.873,0,1,1,-3.873,0A3.873,3.873,0,1,1,3.873,0" fill="#166417" stroke-width="2" opacity="0.7"/><path transform="translate(551.1,43.80000000000002)" d="M3.873,0A3.873,3.873,0,1,1,-3.873,0A3.873,3.873,0,1,1,3.873,0" fill="#f8c7cc" stroke-width="2" opacity="0.7"/><path transform="translate(578.28,52.48000000000004)" d="M3.873,0A3.873,3.873,0,1,1,-3.873,0A3.873,3.873,0,1,1,3.873,0" fill="#f8c7cc" stroke-width="2" opacity="0.7"/><path transform="translate(456.06,108.83999999999996)" d="M3.873,0A3.873,3.873,0,1,1,-3.873,0A3.873,3.873,0,1,1,3.873,0" fill="#f8c7cc" stroke-width="2" opacity="0.7"/><path transform="translate(180,212.88)" d="M3.873,0A3.873,3.873,0,1,1,-3.873,0A3.873,3.873,0,1,1,3.873,0" fill="#742183" stroke-width="2" opacity="0.7"/><path transform="translate(76.08,316.56)" d="M3.873,0A3.873,3.873,0,1,1,-3.873,0A3.873,3.873,0,1,1,3.873,0" fill="#f8c7cc" stroke-width="2" opacity="0.7"/><path transform="translate(478.25999999999993,103.32)" d="M3.873,0A3.873,3.873,0,1,1,-3.873,0A3.873,3.873,0,1,1,3.873,0" fill="#f8c7cc" stroke-width="2" opacity="0.7"/><path transform="translate(594.9599999999999,9.959999999999969)" d="M3.873,0A3.873,3.873,0,1,1,-3.873,0A3.873,3.873,0,1,1,3.873,0" fill="#f8c7cc" stroke-width="2" opacity="0.7"/><path transform="translate(425.46,144)" d="M3.873,0A3.873,3.873,0,1,1,-3.873,0A3.873,3.873,0,1,1,3.873,0" fill="#f8c7cc" stroke-width="2" opacity="0.7"/><path transform="translate(87.48,292.03999999999996)" d="M3.873,0A3.873,3.873,0,1,1,-3.873,0A3.873,3.873,0,1,1,3.873,0" fill="#f8c7cc" stroke-width="2" opacity="0.7"/><path transform="translate(534.36,63.56000000000002)" d="M3.873,0A3.873,3.873,0,1,1,-3.873,0A3.873,3.873,0,1,1,3.873,0" fill="#edae49" stroke-width="2" opacity="0.7"/><path transform="translate(497.52000000000004,141.60000000000002)" d="M3.873,0A3.873,3.873,0,1,1,-3.873,0A3.873,3.873,0,1,1,3.873,0" fill="#f8c7cc" stroke-width="2" opacity="0.7"/><path transform="translate(397.98,171.96000000000004)" d="M3.873,0A3.873,3.873,0,1,1,-3.873,0A3.873,3.873,0,1,1,3.873,0" fill="#742183" stroke-width="2" opacity="0.7"/><path transform="translate(64.02,274.64)" d="M3.873,0A3.873,3.873,0,1,1,-3.873,0A3.873,3.873,0,1,1,3.873,0" fill="#742183" stroke-width="2" opacity="0.7"/><path transform="translate(540,68.92)" d="M3.873,0A3.873,3.873,0,1,1,-3.873,0A3.873,3.873,0,1,1,3.873,0" fill="#742183" stroke-width="2" opacity="0.7"/><path transform="translate(538.74,56.879999999999995)" d="M3.873,0A3.873,3.873,0,1,1,-3.873,0A3.873,3.873,0,1,1,3.873,0" fill="#edae49" stroke-width="2" opacity="0.7"/><path transform="translate(537.4799999999999,43.72000000000003)" d="M3.873,0A3.873,3.873,0,1,1,-3.873,0A3.873,3.873,0,1,1,3.873,0" fill="#edae49" stroke-width="2" opacity="0.7"/><path transform="translate(577.74,37.88)" d="M3.873,0A3.873,3.873,0,1,1,-3.873,0A3.873,3.873,0,1,1,3.873,0" fill="#f8c7cc" stroke-width="2" opacity="0.7"/><path transform="translate(57.78000000000001,348.91999999999996)" d="M3.873,0A3.873,3.873,0,1,1,-3.873,0A3.873,3.873,0,1,1,3.873,0" fill="#742183" stroke-width="2" opacity="0.7"/><path transform="translate(212.64,233.95999999999998)" d="M3.873,0A3.873,3.873,0,1,1,-3.873,0A3.873,3.873,0,1,1,3.873,0" fill="#742183" stroke-width="2" opacity="0.7"/><path transform="translate(445.50000000000006,96.36)" d="M3.873,0A3.873,3.873,0,1,1,-3.873,0A3.873,3.873,0,1,1,3.873,0" fill="#f8c7cc" stroke-width="2" opacity="0.7"/><path transform="translate(404.88000000000005,73.36)" d="M3.873,0A3.873,3.873,0,1,1,-3.873,0A3.873,3.873,0,1,1,3.873,0" fill="#f8c7cc" stroke-width="2" opacity="0.7"/><path transform="translate(43.5,323.44)" d="M3.873,0A3.873,3.873,0,1,1,-3.873,0A3.873,3.873,0,1,1,3.873,0" fill="#742183" stroke-width="2" opacity="0.7"/><path transform="translate(545.6999999999999,77.51999999999998)" d="M3.873,0A3.873,3.873,0,1,1,-3.873,0A3.873,3.873,0,1,1,3.873,0" fill="#edae49" stroke-width="2" opacity="0.7"/><path transform="translate(110.81999999999998,276.40000000000003)" d="M3.873,0A3.873,3.873,0,1,1,-3.873,0A3.873,3.873,0,1,1,3.873,0" fill="#742183" stroke-width="2" opacity="0.7"/><path transform="translate(531.9000000000001,87.19999999999999)" d="M3.873,0A3.873,3.873,0,1,1,-3.873,0A3.873,3.873,0,1,1,3.873,0" fill="#742183" stroke-width="2" opacity="0.7"/><path transform="translate(406.98,126.56)" d="M3.873,0A3.873,3.873,0,1,1,-3.873,0A3.873,3.873,0,1,1,3.873,0" fill="#166417" stroke-width="2" opacity="0.7"/><path transform="translate(243.95999999999998,235.6)" d="M3.873,0A3.873,3.873,0,1,1,-3.873,0A3.873,3.873,0,1,1,3.873,0" fill="#edae49" stroke-width="2" opacity="0.7"/><path transform="translate(370.02000000000004,182.39999999999998)" d="M3.873,0A3.873,3.873,0,1,1,-3.873,0A3.873,3.873,0,1,1,3.873,0" fill="#f8c7cc" stroke-width="2" opacity="0.7"/><path transform="translate(508.14,103.60000000000001)" d="M3.873,0A3.873,3.873,0,1,1,-3.873,0A3.873,3.873,0,1,1,3.873,0" fill="#edae49" stroke-width="2" opacity="0.7"/><path transform="translate(271.79999999999995,185.31999999999996)" d="M3.873,0A3.873,3.873,0,1,1,-3.873,0A3.873,3.873,0,1,1,3.873,0" fill="#742183" stroke-width="2" opacity="0.7"/><path transform="translate(43.980000000000004,306.48)" d="M3.873,0A3.873,3.873,0,1,1,-3.873,0A3.873,3.873,0,1,1,3.873,0" fill="#742183" stroke-width="2" opacity="0.7"/><path transform="translate(213.18,257.92)" d="M3.873,0A3.873,3.873,0,1,1,-3.873,0A3.873,3.873,0,1,1,3.873,0" fill="#f8c7cc" stroke-width="2" opacity="0.7"/><path transform="translate(336.41999999999996,136.32)" d="M3.873,0A3.873,3.873,0,1,1,-3.873,0A3.873,3.873,0,1,1,3.873,0" fill="#742183" stroke-width="2" opacity="0.7"/><path transform="translate(50.400000000000006,283.12)" d="M3.873,0A3.873,3.873,0,1,1,-3.873,0A3.873,3.873,0,1,1,3.873,0" fill="#f8c7cc" stroke-width="2" opacity="0.7"/><path transform="translate(524.0400000000001,78.67999999999999)" d="M3.873,0A3.873,3.873,0,1,1,-3.873,0A3.873,3.873,0,1,1,3.873,0" fill="#edae49" stroke-width="2" opacity="0.7"/><path transform="translate(533.64,87.68000000000002)" d="M3.873,0A3.873,3.873,0,1,1,-3.873,0A3.873,3.873,0,1,1,3.873,0" fill="#81a684" stroke-width="2" opacity="0.7"/><path transform="translate(489.9,109.56000000000002)" d="M3.873,0A3.873,3.873,0,1,1,-3.873,0A3.873,3.873,0,1,1,3.873,0" fill="#81a684" stroke-width="2" opacity="0.7"/><path transform="translate(311.58,158.8)" d="M3.873,0A3.873,3.873,0,1,1,-3.873,0A3.873,3.873,0,1,1,3.873,0" fill="#166417" stroke-width="2" opacity="0.7"/><path transform="translate(16.98,366.96)" d="M3.873,0A3.873,3.873,0,1,1,-3.873,0A3.873,3.873,0,1,1,3.873,0" fill="#742183" stroke-width="2" opacity="0.7"/><path transform="translate(85.08000000000001,343.52)" d="M3.873,0A3.873,3.873,0,1,1,-3.873,0A3.873,3.873,0,1,1,3.873,0" fill="#742183" stroke-width="2" opacity="0.7"/><path transform="translate(526.26,78.04000000000002)" d="M3.873,0A3.873,3.873,0,1,1,-3.873,0A3.873,3.873,0,1,1,3.873,0" fill="#edae49" stroke-width="2" opacity="0.7"/><path transform="translate(580.86,23.320000000000007)" d="M3.873,0A3.873,3.873,0,1,1,-3.873,0A3.873,3.873,0,1,1,3.873,0" fill="#edae49" stroke-width="2" opacity="0.7"/><path transform="translate(559.5,15.839999999999987)" d="M3.873,0A3.873,3.873,0,1,1,-3.873,0A3.873,3.873,0,1,1,3.873,0" fill="#f8c7cc" stroke-width="2" opacity="0.7"/><path transform="translate(151.43999999999997,211.68)" d="M3.873,0A3.873,3.873,0,1,1,-3.873,0A3.873,3.873,0,1,1,3.873,0" fill="#f8c7cc" stroke-width="2" opacity="0.7"/><path transform="translate(349.08,183.64)" d="M3.873,0A3.873,3.873,0,1,1,-3.873,0A3.873,3.873,0,1,1,3.873,0" fill="#166417" stroke-width="2" opacity="0.7"/><path transform="translate(92.63999999999999,288.28000000000003)" d="M3.873,0A3.873,3.873,0,1,1,-3.873,0A3.873,3.873,0,1,1,3.873,0" fill="#81a684" stroke-width="2" opacity="0.7"/><path transform="translate(341.99999999999994,166.6)" d="M3.873,0A3.873,3.873,0,1,1,-3.873,0A3.873,3.873,0,1,1,3.873,0" fill="#166417" stroke-width="2" opacity="0.7"/><path transform="translate(254.4,188.04)" d="M3.873,0A3.873,3.873,0,1,1,-3.873,0A3.873,3.873,0,1,1,3.873,0" fill="#166417" stroke-width="2" opacity="0.7"/><path transform="translate(356.04,132.64000000000001)" d="M3.873,0A3.873,3.873,0,1,1,-3.873,0A3.873,3.873,0,1,1,3.873,0" fill="#f8c7cc" stroke-width="2" opacity="0.7"/><path transform="translate(510.9599999999999,96.27999999999997)" d="M3.873,0A3.873,3.873,0,1,1,-3.873,0A3.873,3.873,0,1,1,3.873,0" fill="#edae49" stroke-width="2" opacity="0.7"/><path transform="translate(530.9399999999999,74.95999999999997)" d="M3.873,0A3.873,3.873,0,1,1,-3.873,0A3.873,3.873,0,1,1,3.873,0" fill="#edae49" stroke-width="2" opacity="0.7"/><path transform="translate(536.4,84.51999999999997)" d="M3.873,0A3.873,3.873,0,1,1,-3.873,0A3.873,3.873,0,1,1,3.873,0" fill="#166417" stroke-width="2" opacity="0.7"/><path transform="translate(596.88,1.4800000000000146)" d="M3.873,0A3.873,3.873,0,1,1,-3.873,0A3.873,3.873,0,1,1,3.873,0" fill="#f8c7cc" stroke-width="2" opacity="0.7"/><path transform="translate(473.34000000000003,99.12)" d="M3.873,0A3.873,3.873,0,1,1,-3.873,0A3.873,3.873,0,1,1,3.873,0" fill="#edae49" stroke-width="2" opacity="0.7"/><path transform="translate(566.22,30.200000000000003)" d="M3.873,0A3.873,3.873,0,1,1,-3.873,0A3.873,3.873,0,1,1,3.873,0" fill="#edae49" stroke-width="2" opacity="0.7"/><path transform="translate(129.23999999999998,205.83999999999997)" d="M3.873,0A3.873,3.873,0,1,1,-3.873,0A3.873,3.873,0,1,1,3.873,0" fill="#742183" stroke-width="2" opacity="0.7"/><path transform="translate(402.59999999999997,145.71999999999997)" d="M3.873,0A3.873,3.873,0,1,1,-3.873,0A3.873,3.873,0,1,1,3.873,0" fill="#81a684" stroke-width="2" opacity="0.7"/><path transform="translate(192.54000000000002,205.64)" d="M3.873,0A3.873,3.873,0,1,1,-3.873,0A3.873,3.873,0,1,1,3.873,0" fill="#742183" stroke-width="2" opacity="0.7"/><path transform="translate(517.08,18.39999999999997)" d="M3.873,0A3.873,3.873,0,1,1,-3.873,0A3.873,3.873,0,1,1,3.873,0" fill="#f8c7cc" stroke-width="2" opacity="0.7"/><path transform="translate(149.76000000000002,230.56)" d="M3.873,0A3.873,3.873,0,1,1,-3.873,0A3.873,3.873,0,1,1,3.873,0" fill="#742183" stroke-width="2" opacity="0.7"/><path transform="translate(459.48,119.48000000000003)" d="M3.873,0A3.873,3.873,0,1,1,-3.873,0A3.873,3.873,0,1,1,3.873,0" fill="#edae49" stroke-width="2" opacity="0.7"/><path transform="translate(38.58,340)" d="M3.873,0A3.873,3.873,0,1,1,-3.873,0A3.873,3.873,0,1,1,3.873,0" fill="#742183" stroke-width="2" opacity="0.7"/><path transform="translate(547.4399999999999,68.80000000000001)" d="M3.873,0A3.873,3.873,0,1,1,-3.873,0A3.873,3.873,0,1,1,3.873,0" fill="#f8c7cc" stroke-width="2" opacity="0.7"/><path transform="translate(548.34,82.67999999999999)" d="M3.873,0A3.873,3.873,0,1,1,-3.873,0A3.873,3.873,0,1,1,3.873,0" fill="#edae49" stroke-width="2" opacity="0.7"/><path transform="translate(541.2,70.00000000000001)" d="M3.873,0A3.873,3.873,0,1,1,-3.873,0A3.873,3.873,0,1,1,3.873,0" fill="#edae49" stroke-width="2" opacity="0.7"/><path transform="translate(141.9,215.08000000000004)" d="M3.873,0A3.873,3.873,0,1,1,-3.873,0A3.873,3.873,0,1,1,3.873,0" fill="#81a684" stroke-width="2" opacity="0.7"/><path transform="translate(214.79999999999998,183.72000000000003)" d="M3.873,0A3.873,3.873,0,1,1,-3.873,0A3.873,3.873,0,1,1,3.873,0" fill="#742183" stroke-width="2" opacity="0.7"/><path transform="translate(434.88,120.83999999999997)" d="M3.873,0A3.873,3.873,0,1,1,-3.873,0A3.873,3.873,0,1,1,3.873,0" fill="#742183" stroke-width="2" opacity="0.7"/><path transform="translate(32.04,332.2)" d="M3.873,0A3.873,3.873,0,1,1,-3.873,0A3.873,3.873,0,1,1,3.873,0" fill="#742183" stroke-width="2" opacity="0.7"/><path transform="translate(529.6800000000001,73.72000000000001)" d="M3.873,0A3.873,3.873,0,1,1,-3.873,0A3.873,3.873,0,1,1,3.873,0" fill="#edae49" stroke-width="2" opacity="0.7"/><path transform="translate(359.58,172.48000000000002)" d="M3.873,0A3.873,3.873,0,1,1,-3.873,0A3.873,3.873,0,1,1,3.873,0" fill="#f8c7cc" stroke-width="2" opacity="0.7"/><path transform="translate(478.98,143.60000000000005)" d="M3.873,0A3.873,3.873,0,1,1,-3.873,0A3.873,3.873,0,1,1,3.873,0" fill="#166417" stroke-width="2" opacity="0.7"/><path transform="translate(472.5,122.24)" d="M3.873,0A3.873,3.873,0,1,1,-3.873,0A3.873,3.873,0,1,1,3.873,0" fill="#166417" stroke-width="2" opacity="0.7"/><path transform="translate(206.57999999999998,230.87999999999997)" d="M3.873,0A3.873,3.873,0,1,1,-3.873,0A3.873,3.873,0,1,1,3.873,0" fill="#742183" stroke-width="2" opacity="0.7"/><path transform="translate(486.41999999999996,100.51999999999998)" d="M3.873,0A3.873,3.873,0,1,1,-3.873,0A3.873,3.873,0,1,1,3.873,0" fill="#166417" stroke-width="2" opacity="0.7"/><path transform="translate(561.9000000000001,56.63999999999998)" d="M3.873,0A3.873,3.873,0,1,1,-3.873,0A3.873,3.873,0,1,1,3.873,0" fill="#edae49" stroke-width="2" opacity="0.7"/><path transform="translate(515.76,73.44)" d="M3.873,0A3.873,3.873,0,1,1,-3.873,0A3.873,3.873,0,1,1,3.873,0" fill="#edae49" stroke-width="2" opacity="0.7"/><path transform="translate(547.86,167.76)" d="M3.873,0A3.873,3.873,0,1,1,-3.873,0A3.873,3.873,0,1,1,3.873,0" fill="#f8c7cc" stroke-width="2" opacity="0.7"/><path transform="translate(425.34,103.60000000000001)" d="M3.873,0A3.873,3.873,0,1,1,-3.873,0A3.873,3.873,0,1,1,3.873,0" fill="#f8c7cc" stroke-width="2" opacity="0.7"/><path transform="translate(57.9,324.56)" d="M3.873,0A3.873,3.873,0,1,1,-3.873,0A3.873,3.873,0,1,1,3.873,0" fill="#742183" stroke-width="2" opacity="0.7"/><path transform="translate(291.3,210.16)" d="M3.873,0A3.873,3.873,0,1,1,-3.873,0A3.873,3.873,0,1,1,3.873,0" fill="#f8c7cc" stroke-width="2" opacity="0.7"/><path transform="translate(114.06000000000002,220.84)" d="M3.873,0A3.873,3.873,0,1,1,-3.873,0A3.873,3.873,0,1,1,3.873,0" fill="#f8c7cc" stroke-width="2" opacity="0.7"/><path transform="translate(103.68,270.84000000000003)" d="M3.873,0A3.873,3.873,0,1,1,-3.873,0A3.873,3.873,0,1,1,3.873,0" fill="#742183" stroke-width="2" opacity="0.7"/><path transform="translate(286.86,203.39999999999998)" d="M3.873,0A3.873,3.873,0,1,1,-3.873,0A3.873,3.873,0,1,1,3.873,0" fill="#81a684" stroke-width="2" opacity="0.7"/><path transform="translate(500.52000000000004,121.39999999999999)" d="M3.873,0A3.873,3.873,0,1,1,-3.873,0A3.873,3.873,0,1,1,3.873,0" fill="#166417" stroke-width="2" opacity="0.7"/><path transform="translate(515.7,117.36)" d="M3.873,0A3.873,3.873,0,1,1,-3.873,0A3.873,3.873,0,1,1,3.873,0" fill="#742183" stroke-width="2" opacity="0.7"/><path transform="translate(418.14,117.8)" d="M3.873,0A3.873,3.873,0,1,1,-3.873,0A3.873,3.873,0,1,1,3.873,0" fill="#f8c7cc" stroke-width="2" opacity="0.7"/><path transform="translate(407.76,127.44)" d="M3.873,0A3.873,3.873,0,1,1,-3.873,0A3.873,3.873,0,1,1,3.873,0" fill="#f8c7cc" stroke-width="2" opacity="0.7"/><path transform="translate(81.18,304.15999999999997)" d="M3.873,0A3.873,3.873,0,1,1,-3.873,0A3.873,3.873,0,1,1,3.873,0" fill="#742183" stroke-width="2" opacity="0.7"/><path transform="translate(508.97999999999996,79.52)" d="M3.873,0A3.873,3.873,0,1,1,-3.873,0A3.873,3.873,0,1,1,3.873,0" fill="#edae49" stroke-width="2" opacity="0.7"/><path transform="translate(578.82,18.679999999999986)" d="M3.873,0A3.873,3.873,0,1,1,-3.873,0A3.873,3.873,0,1,1,3.873,0" fill="#f8c7cc" stroke-width="2" opacity="0.7"/><path transform="translate(532.2,78.64)" d="M3.873,0A3.873,3.873,0,1,1,-3.873,0A3.873,3.873,0,1,1,3.873,0" fill="#edae49" stroke-width="2" opacity="0.7"/><path transform="translate(577.08,33.63999999999998)" d="M3.873,0A3.873,3.873,0,1,1,-3.873,0A3.873,3.873,0,1,1,3.873,0" fill="#166417" stroke-width="2" opacity="0.7"/><path transform="translate(447.48,123.19999999999997)" d="M3.873,0A3.873,3.873,0,1,1,-3.873,0A3.873,3.873,0,1,1,3.873,0" fill="#166417" stroke-width="2" opacity="0.7"/><path transform="translate(416.28,218.48000000000002)" d="M3.873,0A3.873,3.873,0,1,1,-3.873,0A3.873,3.873,0,1,1,3.873,0" fill="#f8c7cc" stroke-width="2" opacity="0.7"/><path transform="translate(226.14,234.24)" d="M3.873,0A3.873,3.873,0,1,1,-3.873,0A3.873,3.873,0,1,1,3.873,0" fill="#81a684" stroke-width="2" opacity="0.7"/><path transform="translate(392.88000000000005,173.28)" d="M3.873,0A3.873,3.873,0,1,1,-3.873,0A3.873,3.873,0,1,1,3.873,0" fill="#166417" stroke-width="2" opacity="0.7"/><path transform="translate(250.26000000000002,198.32)" d="M3.873,0A3.873,3.873,0,1,1,-3.873,0A3.873,3.873,0,1,1,3.873,0" fill="#f8c7cc" stroke-width="2" opacity="0.7"/><path transform="translate(560.88,51.2)" d="M3.873,0A3.873,3.873,0,1,1,-3.873,0A3.873,3.873,0,1,1,3.873,0" fill="#166417" stroke-width="2" opacity="0.7"/><path transform="translate(462.41999999999996,96.04000000000003)" d="M3.873,0A3.873,3.873,0,1,1,-3.873,0A3.873,3.873,0,1,1,3.873,0" fill="#f8c7cc" stroke-width="2" opacity="0.7"/><path transform="translate(206.70000000000002,214.84)" d="M3.873,0A3.873,3.873,0,1,1,-3.873,0A3.873,3.873,0,1,1,3.873,0" fill="#f8c7cc" stroke-width="2" opacity="0.7"/><path transform="translate(105.72000000000001,262.24)" d="M3.873,0A3.873,3.873,0,1,1,-3.873,0A3.873,3.873,0,1,1,3.873,0" fill="#742183" stroke-width="2" opacity="0.7"/><path transform="translate(183.78,230.48000000000002)" d="M3.873,0A3.873,3.873,0,1,1,-3.873,0A3.873,3.873,0,1,1,3.873,0" fill="#742183" stroke-width="2" opacity="0.7"/></g><g class="mark-line role-mark layer_1_marks" role="graphics-symbol" aria-roledescription="line mark container"><path d="M0,400L600,0" stroke="black" stroke-width="2" opacity="0.3"/></g><g class="mark-group role-legend" role="graphics-symbol" aria-roledescription="legend" aria-label="Symbol legend titled 'Region' for fill color with 5 values: Africa, Americas, Asia, Europe, Oceania"><g transform="translate(618,0)"><path class="background" aria-hidden="true" d="M0,0h58v80h-58Z" pointer-events="none"/><g><g class="mark-group role-legend-entry"><g transform="translate(0,17)"><path class="background" aria-hidden="true" d="M0,0h0v0h0Z" pointer-events="none"/><g><g class="mark-group role-scope" role="graphics-object" aria-roledescription="group mark container"><g transform="translate(0,0)"><path class="background" aria-hidden="true" d="M0,0h57.6748046875v11h-57.6748046875Z" pointer-events="none" opacity="1"/><g><g class="mark-symbol role-legend-symbol" pointer-events="none"><path transform="translate(6,6)" d="M5,0A5,5,0,1,1,-5,0A5,5,0,1,1,5,0" fill="#742183" stroke-width="1.5" opacity="0.7"/></g><g class="mark-text role-legend-label" pointer-events="none"><text text-anchor="start" transform="translate(16,9)" font-family="Arial" font-size="10px" fill="#000" opacity="1">Africa</text></g></g><path class="foreground" aria-hidden="true" d="" pointer-events="none" display="none"/></g><g transform="translate(0,13)"><path class="background" aria-hidden="true" d="M0,0h57.6748046875v11h-57.6748046875Z" pointer-events="none" opacity="1"/><g><g class="mark-symbol role-legend-symbol" pointer-events="none"><path transform="translate(6,6)" d="M5,0A5,5,0,1,1,-5,0A5,5,0,1,1,5,0" fill="#166417" stroke-width="1.5" opacity="0.7"/></g><g class="mark-text role-legend-label" pointer-events="none"><text text-anchor="start" transform="translate(16,9)" font-family="Arial" font-size="10px" fill="#000" opacity="1">Americas</text></g></g><path class="foreground" aria-hidden="true" d="" pointer-events="none" display="none"/></g><g transform="translate(0,26)"><path class="background" aria-hidden="true" d="M0,0h57.6748046875v11h-57.6748046875Z" pointer-events="none" opacity="1"/><g><g class="mark-symbol role-legend-symbol" pointer-events="none"><path transform="translate(6,6)" d="M5,0A5,5,0,1,1,-5,0A5,5,0,1,1,5,0" fill="#f8c7cc" stroke-width="1.5" opacity="0.7"/></g><g class="mark-text role-legend-label" pointer-events="none"><text text-anchor="start" transform="translate(16,9)" font-family="Arial" font-size="10px" fill="#000" opacity="1">Asia</text></g></g><path class="foreground" aria-hidden="true" d="" pointer-events="none" display="none"/></g><g transform="translate(0,39)"><path class="background" aria-hidden="true" d="M0,0h57.6748046875v11h-57.6748046875Z" pointer-events="none" opacity="1"/><g><g class="mark-symbol role-legend-symbol" pointer-events="none"><path transform="translate(6,6)" d="M5,0A5,5,0,1,1,-5,0A5,5,0,1,1,5,0" fill="#edae49" stroke-width="1.5" opacity="0.7"/></g><g class="mark-text role-legend-label" pointer-events="none"><text text-anchor="start" transform="translate(16,9)" font-family="Arial" font-size="10px" fill="#000" opacity="1">Europe</text></g></g><path class="foreground" aria-hidden="true" d="" pointer-events="none" display="none"/></g><g transform="translate(0,52)"><path class="background" aria-hidden="true" d="M0,0h57.6748046875v11h-57.6748046875Z" pointer-events="none" opacity="1"/><g><g class="mark-symbol role-legend-symbol" pointer-events="none"><path transform="translate(6,6)" d="M5,0A5,5,0,1,1,-5,0A5,5,0,1,1,5,0" fill="#81a684" stroke-width="1.5" opacity="0.7"/></g><g class="mark-text role-legend-label" pointer-events="none"><text text-anchor="start" transform="translate(16,9)" font-family="Arial" font-size="10px" fill="#000" opacity="1">Oceania</text></g></g><path class="foreground" aria-hidden="true" d="" pointer-events="none" display="none"/></g></g></g><path class="foreground" aria-hidden="true" d="" pointer-events="none" display="none"/></g></g><g class="mark-text role-legend-title" pointer-events="none"><text text-anchor="start" transform="translate(0,9)" font-family="Arial" font-size="12px" font-weight="bold" fill="#000" opacity="1">Region</text></g></g><path class="foreground" aria-hidden="true" d="" pointer-events="none" display="none"/></g></g><g class="mark-group role-title"><g transform="translate(-45.021484375,-26)"><path class="background" aria-hidden="true" d="M0,0h0v0h0Z" pointer-events="none"/><g><g class="mark-text role-title-text" role="graphics-symbol" aria-roledescription="title" aria-label="Title text 'Wage and salaried workers by gender, modeled ILO estimate'" pointer-events="none"><text text-anchor="start" transform="translate(0,13)" font-family="Helvetica" font-size="16px" font-weight="bold" fill="#333333" opacity="1">Wage and salaried workers by gender, modeled ILO estimate</text></g></g><path class="foreground" aria-hidden="true" d="" pointer-events="none" display="none"/></g></g></g><path class="foreground" aria-hidden="true" d="" display="none"/></g></g></g></svg>